<?xml version="1.0" encoding="utf-8"?>
<!-- Generator: Adobe Illustrator 27.5.0, SVG Export Plug-In . SVG Version: 6.00 Build 0)  -->
<svg version="1.1" xmlns="http://www.w3.org/2000/svg" xmlns:xlink="http://www.w3.org/1999/xlink" x="0px" y="0px"
	 viewBox="0 0 500 500" style="enable-background:new 0 0 500 500;" xml:space="preserve">
<g id="Background_Complete">
	<g>
		<g>
			<path style="fill:#E0E0E0;" d="M149.431,151.66c-0.673-1.122-1.749-1.971-2.946-2.5c-1.173-0.518-2.499-0.744-3.753-0.475
				c-1.331,0.286-2.531,1.141-3.234,2.306c-0.419,0.693-0.658,1.49-0.707,2.298c-0.6-0.425-1.292-0.722-2.016-0.851
				c-1.341-0.238-2.774,0.1-3.866,0.914c-1.028,0.766-1.732,1.913-2.115,3.136c-0.391,1.249-0.462,2.618-0.061,3.863
				c0.503,1.56,1.526,3.053,2.875,3.983c1.425,0.982,3.232,1.479,4.951,1.68c2.89,0.338,6.656,0.695,6.656,0.695
				s1.67-3.035,3.32-5.432c0.981-1.426,1.799-3.111,1.998-4.831C150.722,154.819,150.273,153.066,149.431,151.66z"/>
		</g>
	</g>
	<g>
		<g>
			<path style="fill:#E0E0E0;" d="M362.206,229.658c-0.217-1.29-0.909-2.473-1.831-3.402c-0.903-0.91-2.055-1.605-3.32-1.812
				c-1.344-0.22-2.772,0.139-3.853,0.967c-0.643,0.493-1.157,1.147-1.497,1.882c-0.404-0.615-0.939-1.143-1.566-1.527
				c-1.161-0.711-2.619-0.919-3.933-0.56c-1.237,0.338-2.311,1.149-3.113,2.148c-0.819,1.02-1.385,2.269-1.466,3.575
				c-0.101,1.636,0.306,3.399,1.223,4.757c0.968,1.435,2.47,2.556,3.996,3.37c2.568,1.369,5.943,3.076,5.943,3.076
				s2.662-2.217,5.073-3.846c1.434-0.969,2.81-2.241,3.623-3.768C362.255,233.071,362.477,231.275,362.206,229.658z"/>
		</g>
	</g>
	<g>
		<g>
			<path style="fill:#E0E0E0;" d="M274.126,84.367c0.056-1.681-0.515-3.347-1.439-4.752c-0.905-1.377-2.18-2.545-3.721-3.129
				c-1.637-0.619-3.528-0.532-5.1,0.236c-0.935,0.457-1.75,1.151-2.365,1.989c-0.352-0.877-0.892-1.679-1.584-2.323
				c-1.281-1.192-3.065-1.825-4.811-1.708c-1.644,0.11-3.203,0.858-4.469,1.912c-1.292,1.076-2.323,2.505-2.758,4.129
				c-0.544,2.035-0.481,4.36,0.328,6.305c0.854,2.054,2.459,3.849,4.175,5.264c2.885,2.38,6.702,5.39,6.702,5.39
				s3.918-2.114,7.371-3.552c2.053-0.855,4.111-2.106,5.525-3.823C273.319,88.678,274.056,86.472,274.126,84.367z"/>
		</g>
	</g>
	<g>
		<g>
			<path style="fill:#F5F5F5;" d="M417.408,158.258c-0.082-3.563-1.489-7.021-3.611-9.884c-2.079-2.805-4.916-5.126-8.246-6.176
				c-3.537-1.115-7.527-0.705-10.763,1.108c-1.924,1.078-3.565,2.643-4.767,4.491c-0.849-1.814-2.087-3.447-3.628-4.727
				c-2.853-2.369-6.703-3.496-10.384-3.04c-3.465,0.429-6.676,2.197-9.229,4.579c-2.606,2.43-4.617,5.576-5.343,9.065
				c-0.909,4.37-0.497,9.283,1.445,13.301c2.051,4.244,5.663,7.851,9.462,10.641c6.389,4.691,14.824,10.605,14.824,10.605
				s8.039-4.94,15.172-8.395c4.242-2.055,8.448-4.946,11.234-8.748C416.214,167.477,417.509,162.721,417.408,158.258z"/>
		</g>
	</g>
	<g>
		<g>
			<path style="fill:#F5F5F5;" d="M127.309,65.203c-1.495-3.235-4.164-5.846-7.252-7.625c-3.025-1.743-6.552-2.741-10.024-2.377
				c-3.688,0.387-7.185,2.354-9.429,5.306c-1.335,1.756-2.216,3.845-2.582,6.019c-1.502-1.326-3.288-2.33-5.212-2.889
				c-3.561-1.035-7.541-0.535-10.735,1.351c-3.007,1.775-5.247,4.676-6.639,7.878c-1.421,3.268-2.012,6.955-1.287,10.444
				c0.908,4.37,3.244,8.711,6.628,11.622c3.573,3.075,8.323,4.943,12.919,5.987c7.729,1.756,17.823,3.817,17.823,3.817
				s5.404-7.734,10.569-13.746c3.072-3.576,5.776-7.904,6.816-12.501C129.889,74.134,129.181,69.255,127.309,65.203z"/>
		</g>
	</g>
	<g>
		<g>
			<path style="fill:#F5F5F5;" d="M343.396,47.224c-0.181-3.222-1.557-6.308-3.564-8.835c-1.965-2.476-4.602-4.491-7.646-5.341
				c-3.234-0.903-6.832-0.412-9.706,1.325c-1.709,1.033-3.147,2.498-4.179,4.207c-0.822-1.616-1.991-3.056-3.424-4.169
				c-2.653-2.058-6.17-2.963-9.486-2.44c-3.123,0.492-5.975,2.188-8.213,4.419c-2.285,2.277-4.011,5.184-4.563,8.363
				c-0.692,3.982-0.172,8.414,1.706,11.992c1.983,3.779,5.359,6.934,8.88,9.344c5.921,4.053,13.731,9.151,13.731,9.151
				s7.126-4.71,13.477-8.05c3.777-1.987,7.496-4.729,9.903-8.252C342.592,55.602,343.622,51.259,343.396,47.224z"/>
		</g>
	</g>
	<g>
		<g>
			<path style="fill:#F5F5F5;" d="M103.406,264.056c-0.084-1.505-0.727-2.946-1.664-4.126c-0.918-1.156-2.149-2.097-3.571-2.495
				c-1.51-0.422-3.191-0.193-4.533,0.619c-0.798,0.482-1.47,1.167-1.952,1.965c-0.384-0.755-0.93-1.427-1.599-1.947
				c-1.239-0.961-2.882-1.384-4.43-1.14c-1.458,0.23-2.79,1.022-3.836,2.064c-1.067,1.064-1.873,2.421-2.131,3.906
				c-0.323,1.86-0.08,3.93,0.797,5.601c0.926,1.765,2.503,3.238,4.147,4.364c2.766,1.893,6.413,4.274,6.413,4.274
				s3.328-2.2,6.294-3.76c1.764-0.928,3.501-2.208,4.625-3.854C103.031,267.968,103.512,265.94,103.406,264.056z"/>
		</g>
	</g>
	<g>
		<g>
			<path style="fill:#F5F5F5;" d="M206.312,43.608c0.093-1.783-0.48-3.564-1.432-5.075c-0.933-1.48-2.264-2.746-3.888-3.396
				c-1.725-0.69-3.735-0.636-5.419,0.148c-1.002,0.466-1.881,1.186-2.551,2.065c-0.356-0.939-0.913-1.801-1.635-2.499
				c-1.337-1.291-3.218-1.999-5.074-1.91c-1.748,0.084-3.418,0.847-4.784,1.94c-1.394,1.116-2.517,2.612-3.011,4.328
				c-0.619,2.149-0.598,4.619,0.222,6.7c0.865,2.198,2.534,4.136,4.327,5.673c3.016,2.584,7.008,5.857,7.008,5.857
				s4.203-2.166,7.897-3.623c2.197-0.867,4.407-2.153,5.942-3.948C205.368,48.169,206.195,45.841,206.312,43.608z"/>
		</g>
	</g>
	<g>
		<g>
			<path style="fill:#F5F5F5;" d="M84.753,181.57c0.153-2.923-0.786-5.842-2.348-8.317c-1.53-2.425-3.71-4.501-6.372-5.566
				c-2.828-1.132-6.121-1.042-8.882,0.243c-1.643,0.764-3.083,1.945-4.181,3.384c-0.583-1.538-1.496-2.952-2.68-4.095
				c-2.191-2.116-5.274-3.277-8.316-3.13c-2.864,0.138-5.602,1.388-7.84,3.18c-2.284,1.83-4.125,4.282-4.935,7.094
				c-1.014,3.523-0.98,7.571,0.363,10.982c1.418,3.602,4.153,6.779,7.092,9.298c4.943,4.236,11.486,9.599,11.486,9.599
				s6.888-3.549,12.943-5.938c3.601-1.421,7.223-3.53,9.74-6.471C83.206,189.045,84.561,185.23,84.753,181.57z"/>
		</g>
	</g>
	<g>
		<g>
			<path style="fill:#F5F5F5;" d="M459.111,213.946c0.097-1.861-0.5-3.719-1.495-5.295c-0.974-1.544-2.362-2.866-4.057-3.544
				c-1.801-0.72-3.897-0.663-5.655,0.155c-1.046,0.487-1.963,1.238-2.662,2.154c-0.371-0.979-0.953-1.879-1.706-2.607
				c-1.395-1.347-3.358-2.086-5.295-1.993c-1.824,0.088-3.567,0.883-4.992,2.025c-1.454,1.165-2.627,2.726-3.142,4.517
				c-0.646,2.243-0.624,4.82,0.231,6.992c0.903,2.294,2.644,4.316,4.515,5.92c3.147,2.697,7.313,6.112,7.313,6.112
				s4.386-2.26,8.241-3.781c2.293-0.905,4.599-2.247,6.201-4.12C458.126,218.706,458.988,216.277,459.111,213.946z"/>
		</g>
	</g>
	<g>
		<g>
			<path style="fill:#F5F5F5;" d="M392.638,89.655c0.085-1.625-0.437-3.247-1.305-4.623c-0.85-1.348-2.062-2.502-3.542-3.094
				c-1.572-0.629-3.402-0.579-4.937,0.135c-0.913,0.425-1.714,1.081-2.324,1.881c-0.324-0.855-0.832-1.641-1.489-2.276
				c-1.218-1.176-2.931-1.821-4.622-1.74c-1.592,0.076-3.114,0.771-4.358,1.768c-1.27,1.017-2.293,2.38-2.743,3.943
				c-0.564,1.958-0.544,4.208,0.202,6.104c0.788,2.002,2.308,3.768,3.942,5.168c2.747,2.354,6.384,5.335,6.384,5.335
				s3.829-1.973,7.194-3.301c2.002-0.79,4.015-1.962,5.414-3.597C391.779,93.81,392.531,91.689,392.638,89.655z"/>
		</g>
	</g>
	<path style="fill:#EBEBEB;" d="M87.139,420.475c11.037,15.003,30.669,28.368,48.038,35.093c17.369,6.725,30.43,9.992,48.647,13.877
		c36.292,7.74,83.452,5.278,123.177-1.254c39.725-6.533,79.942-18.959,106.713-49.028L87.139,420.475z"/>
	<g>
		<path style="fill:#FFFFFF;" d="M379.676,421.38c0,0-0.174,0.158-0.531,0.446c-0.372,0.297-0.902,0.719-1.592,1.269
			c-1.39,1.129-3.515,2.699-6.307,4.639c-2.805,1.923-6.309,4.176-10.521,6.546c-4.221,2.352-9.137,4.84-14.731,7.232
			c-11.177,4.79-25.08,9.192-40.926,11.997c-15.831,2.894-33.531,4.193-52.077,4.309c-18.55,0.034-36.259-0.492-52.225-2.551
			c-7.979-1.022-15.503-2.455-22.434-4.237c-6.923-1.808-13.26-3.933-18.863-6.311c-11.247-4.698-19.536-10.194-24.881-14.379
			c-2.666-2.113-4.643-3.868-5.941-5.1c-0.635-0.613-1.122-1.084-1.464-1.415c-0.328-0.321-0.486-0.495-0.486-0.495
			s0.183,0.148,0.523,0.456c0.35,0.322,0.849,0.779,1.499,1.376c1.319,1.206,3.315,2.933,5.994,5.017
			c5.372,4.127,13.666,9.558,24.898,14.199c5.595,2.349,11.92,4.447,18.828,6.232c6.917,1.758,14.424,3.172,22.388,4.179
			c15.932,2.028,33.628,2.541,52.16,2.507c18.526-0.116,36.194-1.398,51.996-4.26c15.817-2.773,29.696-7.127,40.867-11.863
			c5.591-2.365,10.508-4.824,14.734-7.148c4.217-2.341,7.731-4.565,10.549-6.459c2.806-1.912,4.948-3.454,6.357-4.555
			c0.704-0.532,1.244-0.941,1.623-1.228C379.48,421.51,379.676,421.38,379.676,421.38z"/>
	</g>
	<g>
		<path style="fill:#FFFFFF;" d="M316.431,418.982c0.005,0.007-0.085,0.08-0.267,0.216c-0.206,0.149-0.475,0.344-0.815,0.591
			c-0.714,0.523-1.802,1.245-3.233,2.128c-2.863,1.759-7.172,4.077-12.811,6.189c-5.627,2.122-12.567,4.053-20.43,5.27
			c-7.856,1.259-16.604,1.828-25.772,1.878c-9.169,0.015-17.917-0.215-25.826-1.106c-7.908-0.871-14.938-2.507-20.588-4.591
			c-5.66-2.074-9.912-4.536-12.673-6.449c-1.373-0.973-2.4-1.781-3.073-2.356c-0.316-0.277-0.565-0.497-0.757-0.664
			c-0.168-0.152-0.252-0.233-0.246-0.24c0.006-0.007,0.101,0.061,0.281,0.199c0.199,0.157,0.459,0.363,0.788,0.623
			c0.692,0.548,1.736,1.327,3.12,2.27c2.785,1.854,7.039,4.253,12.684,6.271c5.636,2.029,12.635,3.619,20.516,4.461
			c7.88,0.862,16.617,1.077,25.77,1.062c9.15-0.05,17.871-0.603,25.701-1.831c7.837-1.186,14.755-3.071,20.376-5.141
			c5.632-2.059,9.948-4.317,12.835-6.017c1.443-0.853,2.546-1.547,3.279-2.041c0.352-0.229,0.63-0.41,0.843-0.548
			C316.325,419.033,316.426,418.974,316.431,418.982z"/>
	</g>
</g>
<g id="Background_Simple" style="display:none;">
	<path style="display:inline;fill:#F5F5F5;" d="M416.61,149.78l-1.101-3.676c-9.285-30.985-34.457-54.75-65.925-60.839
		c-4.045-0.783-8.148-1.274-12.275-1.453c-29.715-1.29-59.739,13.63-76.977,38.253c-10.137,14.481-16.603,32.507-31.241,42.289
		c-19.05,12.73-44.22,6.744-66.053,0.337c-21.832-6.407-47.036-12.332-66.031,0.482c-11.897,8.025-18.666,22.075-21.55,36.214
		c-7.634,37.433,9.514,77.134,37.969,102.048s66.598,36.396,104.284,38.484c52.794,2.925,107.719-12.447,147.543-47.888
		C405.076,258.591,427.522,202.039,416.61,149.78z"/>
</g>
<g id="Floor">
	<g>
		<path style="fill:#263238;" d="M464.792,419.676c0,0.144-96.966,0.26-216.552,0.26c-119.627,0-216.572-0.117-216.572-0.26
			c0-0.144,96.945-0.26,216.572-0.26C367.826,419.415,464.792,419.532,464.792,419.676z"/>
	</g>
</g>
<g id="Dog">
	<g>
		<g>
			<g>
				<path style="fill:#FF725E;" d="M486.272,330.116c-2.428,0.196-4.726,1.653-6.076,3.852c6.72-10.469,8.438-24.638,4.47-36.866
					c-0.771-2.374-1.94-4.892-4.078-5.82c-1.415-0.615-3.2,0.05-4.057,1.267c0.565-3.55,0.592-7.212,0.058-10.789
					c-0.239-1.601-0.674-3.332-1.884-4.282c-1.676-1.315-4.141-0.445-5.425,1.274c-1.284,1.719-1.688,4.018-2.05,6.216
					c-6.628-16.973-21.989-29.583-38.646-31.723c-3.312-0.426-6.959-0.362-9.532,1.902c-2.573,2.264-3.045,7.436-0.155,9.299
					c-3.139-1.142-6.422-2.195-9.682-1.764c-3.26,0.431-6.503,2.721-7.241,6.221c-0.956,4.538,2.46,8.849,6.007,11.515
					c4.827,3.627,10.348,5.936,15.476,9.016c5.128,3.08,10.078,7.219,12.454,13.07c3.027,7.455,1.25,16.196-2.116,23.349
					c-6.291,13.369-18.114,23.385-31.543,26.721l10.945,24.167c13.831,9.438,51.315,1.749,62.211-11.129
					c1.725-2.038,3.32-4.551,3.156-7.354c-0.164-2.802-2.979-5.474-5.262-4.252C480.788,348.978,489.515,333.552,486.272,330.116z"
					/>
				<g style="opacity:0.6;">
					<path style="fill:#FFFFFF;" d="M401.972,268.903c-0.956,4.538,2.46,8.849,6.007,11.515c4.827,3.627,10.348,5.936,15.476,9.016
						c2.122,1.275,4.211,2.734,6.102,4.418c2.093-1.832,2.878-5.263,2.384-8.269c-0.569-3.463-2.447-6.495-4.278-9.407
						c2.413,3.078,5.395,5.622,8.704,7.428c1.23,0.671,2.656,1.248,3.929,0.735c2.077-0.837,2.405-4.02,1.584-6.302
						c-0.821-2.283-2.4-4.206-3.04-6.554c1.871,1.727,3.774,3.475,5.995,4.585c2.221,1.109,4.842,1.516,7.06,0.483
						c2.556-1.19,4.168-4.15,4.485-7.187c0.048-0.455,0.062-0.911,0.061-1.368c-7.578-8.004-17.466-13.415-27.858-14.751
						c-3.312-0.426-6.959-0.362-9.532,1.902c-2.573,2.264-3.045,7.436-0.155,9.299c-3.139-1.142-6.422-2.195-9.682-1.764
						C405.954,263.113,402.71,265.402,401.972,268.903z"/>
				</g>
			</g>
			<path style="fill:#FF725E;" d="M398.044,319.094l-29.642-15.971c0,0-18.096-10.188-27.216-19.052
				c-16.185-15.731-19.981-29.393-19.981-29.393l-87.398,40.121l-17.818,5.6c2.218,9.291,2.554,26.857,8.513,44.835
				c1.647,4.97,6.522,9.599,6.733,7.93c0.176-1.39,0.02,0.913,0.02,0.913c3.099,8.164,6.666,18.753,17.252,26.126
				c7.936,12.019,24.877,18.862,31.809,22.816c10.258,5.853,49.157,17.329,49.157,17.329l30.248,2.307l75.819-60.17
				C435.54,362.485,431.006,336.207,398.044,319.094z"/>
			<g>
				<g>
					<path style="fill:#FF725E;" d="M295.175,385.144c5.174,4.533,7.169,11.702,7.875,18.545c0.706,6.843,0.394,13.837,2.11,20.498
						c-3.41-0.999-7.185,1.748-7.936,5.221c-0.75,3.473,1.065,7.156,3.873,9.333c2.808,2.177,6.436,3.044,9.983,3.238
						c6.039,0.33,12.47-1.344,16.589-5.772c3.78-4.063,5.103-9.751,6.598-15.095c2.564-9.165,6.026-18.058,8.648-27.207
						c2.621-9.149,4.403-18.694,3.483-28.166c0.862,0.299,1.723,0.597,2.585,0.896c3.185,0.93,0.135-9.754-3.053-14.566"/>
					<g>
						<path style="fill:#263238;" d="M345.929,352.069c0,0,0.273,0.345,0.705,1.075c0.429,0.73,1.016,1.843,1.651,3.349
							c0.626,1.508,1.331,3.401,1.843,5.713c0.126,0.578,0.23,1.185,0.293,1.82c0.051,0.634,0.099,1.307-0.111,1.998
							c-0.102,0.329-0.354,0.723-0.784,0.797c-0.203,0.028-0.398,0.002-0.589-0.046l-0.504-0.172
							c-0.677-0.232-1.373-0.47-2.087-0.715l0.209-0.164c0.415,4.127,0.354,8.934-0.364,14.182
							c-0.716,5.248-2.067,10.923-3.887,16.875c-1.799,5.961-4.042,12.21-6.128,18.828c-1.068,3.305-1.958,6.728-2.969,10.214
							c-1.035,3.455-2.36,7.027-4.815,9.952c-3.098,3.698-7.709,5.633-12.181,6.244c-2.253,0.324-4.519,0.323-6.721,0.08
							c-2.201-0.25-4.361-0.796-6.307-1.762c-1.94-0.962-3.647-2.392-4.771-4.184c-1.145-1.764-1.756-3.871-1.55-5.918
							c0.355-4.137,4.609-7.333,8.358-6.256l-0.271,0.263c-1.506-6.1-1.437-11.858-1.778-16.862
							c-0.264-5.019-0.963-9.362-2.133-12.761c-1.131-3.415-2.672-5.824-3.874-7.309c-0.605-0.743-1.105-1.285-1.465-1.625
							c-0.353-0.348-0.524-0.54-0.524-0.54s0.835,0.611,2.09,2.082c1.243,1.468,2.834,3.881,4.01,7.312
							c1.215,3.412,1.952,7.791,2.248,12.82c0.371,5.014,0.335,10.759,1.847,16.776l0.093,0.369l-0.364-0.106
							c-3.424-0.999-7.468,2.026-7.767,5.886c-0.188,1.922,0.391,3.924,1.49,5.609c1.08,1.712,2.708,3.072,4.585,4.001
							c1.881,0.93,3.985,1.461,6.142,1.703c2.16,0.235,4.385,0.234,6.591-0.086c4.385-0.603,8.863-2.496,11.855-6.07
							c2.378-2.831,3.688-6.331,4.718-9.765c1.006-3.458,1.909-6.911,2.982-10.217c2.099-6.63,4.354-12.87,6.166-18.812
							c1.832-5.933,3.197-11.577,3.935-16.794c0.739-5.216,0.828-9.992,0.446-14.096l-0.023-0.246l0.232,0.081
							c0.711,0.249,1.403,0.492,2.076,0.728c0.343,0.116,0.669,0.273,0.95,0.216c0.285-0.046,0.47-0.308,0.569-0.602
							c0.192-0.603,0.16-1.268,0.114-1.884c-0.055-0.621-0.151-1.221-0.27-1.794c-0.483-2.293-1.161-4.189-1.759-5.699
							c-0.608-1.509-1.168-2.629-1.57-3.371c-0.2-0.352-0.356-0.627-0.473-0.832C345.976,352.17,345.923,352.073,345.929,352.069z"
							/>
					</g>
				</g>
				<g>
					<path style="fill:#263238;" d="M309.214,427.517c0.034,0.079-0.74,0.412-1.833,1.179c-1.091,0.758-2.481,2.014-3.532,3.747
						c-1.052,1.733-1.525,3.547-1.693,4.864c-0.175,1.324-0.114,2.164-0.199,2.17c-0.057,0.009-0.252-0.829-0.167-2.207
						c0.078-1.367,0.512-3.283,1.614-5.098c1.101-1.815,2.599-3.085,3.776-3.785C308.362,427.677,309.195,427.462,309.214,427.517z"
						/>
				</g>
				<g>
					<path style="fill:#263238;" d="M316.678,428.03c0.047,0.073-0.716,0.559-1.741,1.565c-1.023,0.996-2.273,2.578-3.072,4.606
						c-0.799,2.029-0.963,4.039-0.893,5.465c0.064,1.434,0.291,2.31,0.206,2.331c-0.053,0.018-0.412-0.832-0.574-2.304
						c-0.168-1.459-0.059-3.564,0.776-5.683c0.834-2.119,2.189-3.732,3.306-4.686C315.809,428.359,316.651,427.98,316.678,428.03z"
						/>
				</g>
			</g>
			<g>
				<g>
					<path style="fill:#FF725E;" d="M242.799,376.053c3.23,6.733,6.838,12.438,7.544,19.281s0.394,13.837,2.11,20.498
						c-3.41-0.999-7.185,1.747-7.936,5.22c-0.75,3.473,1.065,7.156,3.873,9.333c2.808,2.178,6.436,3.044,9.983,3.238
						c6.039,0.33,12.47-1.344,16.589-5.772c3.78-4.063,6.871-18.127,7.984-23.563"/>
					<g>
						<path style="fill:#263238;" d="M282.947,404.29c0.009,0.002-0.003,0.103-0.035,0.3c-0.04,0.224-0.091,0.511-0.154,0.87
							c-0.145,0.763-0.366,1.886-0.683,3.327c-0.647,2.875-1.576,7.052-3.307,12.049c-0.427,1.251-0.958,2.534-1.561,3.85
							c-0.638,1.29-1.393,2.649-2.529,3.758c-2.22,2.229-5.275,3.887-8.692,4.723c-3.416,0.85-7.181,1.005-10.953,0.315
							c-1.881-0.358-3.771-0.98-5.489-2.002c-1.723-1.002-3.228-2.484-4.221-4.29c-0.736-1.313-1.176-2.787-1.227-4.275
							c-0.047-1.478,0.321-2.993,1.141-4.201c0.788-1.223,1.922-2.183,3.205-2.769c0.646-0.282,1.328-0.476,2.024-0.546
							c0.697-0.055,1.394,0.014,2.057,0.194l-0.311,0.301c-1.466-5.897-1.441-11.562-1.763-16.546
							c-0.167-2.498-0.286-4.857-0.796-6.977c-0.478-2.127-1.166-4.034-1.875-5.724c-1.433-3.379-2.817-5.967-3.681-7.78
							c-0.439-0.904-0.773-1.603-0.988-2.081c-0.097-0.22-0.177-0.398-0.241-0.543c-0.052-0.123-0.075-0.188-0.069-0.191
							c0.007-0.003,0.043,0.055,0.108,0.172c0.075,0.14,0.166,0.312,0.279,0.524c0.257,0.496,0.61,1.176,1.06,2.043
							c0.911,1.789,2.337,4.351,3.82,7.733c0.733,1.692,1.448,3.61,1.951,5.763c0.537,2.154,0.674,4.537,0.857,7.034
							c0.353,4.995,0.357,10.64,1.82,16.448l0.108,0.427l-0.419-0.126c-2.438-0.732-5.266,0.656-6.714,2.923
							c-1.535,2.279-1.306,5.476,0.109,7.944c0.949,1.722,2.372,3.13,4.031,4.097c1.652,0.985,3.483,1.592,5.319,1.945
							c3.688,0.682,7.396,0.54,10.741-0.28c3.351-0.806,6.333-2.41,8.504-4.564c1.097-1.059,1.828-2.353,2.471-3.627
							c0.604-1.294,1.141-2.56,1.577-3.8c1.765-4.952,2.75-9.113,3.456-11.969c0.331-1.406,0.592-2.512,0.778-3.303
							c0.085-0.354,0.152-0.637,0.205-0.859C282.909,404.386,282.938,404.289,282.947,404.29z"/>
					</g>
				</g>
				<g>
					<path style="fill:#263238;" d="M256.508,419.163c0.034,0.078-0.74,0.412-1.833,1.179c-1.091,0.758-2.481,2.014-3.532,3.747
						c-1.052,1.733-1.525,3.547-1.693,4.864c-0.175,1.324-0.114,2.164-0.199,2.17c-0.057,0.009-0.252-0.829-0.167-2.207
						c0.078-1.367,0.512-3.283,1.614-5.098c1.101-1.815,2.6-3.085,3.776-3.785C255.656,419.322,256.489,419.108,256.508,419.163z"/>
				</g>
				<g>
					<path style="fill:#263238;" d="M263.972,419.676c0.047,0.073-0.716,0.559-1.741,1.565c-1.023,0.996-2.273,2.578-3.072,4.606
						c-0.799,2.029-0.963,4.039-0.893,5.465c0.064,1.434,0.291,2.31,0.207,2.331c-0.053,0.018-0.412-0.833-0.574-2.304
						c-0.168-1.459-0.059-3.564,0.776-5.683c0.834-2.119,2.189-3.732,3.306-4.685C263.103,420.004,263.945,419.626,263.972,419.676z
						"/>
				</g>
			</g>
			<g>
				<path style="fill:#263238;" d="M290.411,407.031c-0.005,0.017-0.299-0.051-0.856-0.197c-0.554-0.154-1.383-0.35-2.426-0.682
					c-2.087-0.656-5.082-1.717-8.614-3.416c-3.528-1.699-7.576-4.07-11.696-7.22c-4.087-3.181-8.263-7.131-11.914-11.88
					c-0.864-1.052-1.596-2.185-2.38-3.253l0.424-0.299c0.327,0.491,0.702,0.945,0.8,1.65c0.015,0.178-0.029,0.414-0.184,0.583
					c-0.156,0.171-0.354,0.231-0.518,0.258c-0.339,0.054-0.637,0.011-0.926-0.042c-1.141-0.264-2.155-0.681-3.094-1.357l0.028,0.02
					c-3.999-2.538-7.046-5.829-9.338-9.024c-2.313-3.198-3.95-6.299-5.172-8.926c-1.218-2.632-2.044-4.795-2.562-6.294
					c-0.272-0.745-0.444-1.334-0.572-1.727c-0.123-0.395-0.18-0.603-0.165-0.608c0.014-0.005,0.1,0.194,0.25,0.579
					c0.163,0.426,0.379,0.989,0.65,1.696c0.567,1.478,1.437,3.616,2.69,6.216c1.256,2.596,2.917,5.658,5.233,8.808
					c2.294,3.147,5.32,6.374,9.251,8.852l0.002,0.001l0.026,0.019c0.795,0.575,1.848,1.017,2.869,1.242
					c0.509,0.104,1.11,0.088,1.015-0.262c-0.049-0.431-0.391-0.936-0.703-1.376l0.424-0.299c0.779,1.058,1.505,2.182,2.363,3.225
					c3.622,4.711,7.754,8.64,11.797,11.819c4.076,3.148,8.077,5.536,11.565,7.268c3.492,1.732,6.454,2.841,8.515,3.554
					c1.03,0.361,1.847,0.587,2.391,0.774C290.13,406.912,290.415,407.014,290.411,407.031z"/>
			</g>
			<path style="fill:#FF725E;" d="M427.133,350.219l-28.306,21.814c-8.321,1.183-13.975,6.878-19.67,13.058
				c-7.463,8.099-5.775,16.211-8.029,24.308c-0.461,1.657-1.419,3.066-2.146,4.624c-1.693,3.63-6.13,2.547-8.454,3.247
				c-2.767,0.833-4.035,2.154-5.296,4.755c-1.261,2.6-0.839,6.096,1.149,8.194c1.691,1.784,4.533,2.122,6.933,2.649
				c6.684,1.467,13.597,2.939,20.311,1.62c6.715-1.319,13.23-6.194,14.231-12.963c4.708,1.309,9.846,0.535,14.268-1.545
				c4.422-2.08,8.175-5.391,11.33-9.123c7.006-8.289,12.085-18.844,12.742-29.677C436.853,370.345,433.085,359.294,427.133,350.219z
				"/>
			<g>
				<path style="fill:#263238;" d="M404.967,371.96c-0.004,0.008-0.082-0.02-0.231-0.081c-0.175-0.076-0.389-0.169-0.651-0.284
					c-0.57-0.25-1.425-0.593-2.561-0.917c-2.252-0.65-5.722-1.209-9.889-0.473c-2.068,0.374-4.309,1.018-6.517,2.135
					c-2.214,1.099-4.402,2.635-6.404,4.567c-4.006,3.861-7.227,9.335-8.763,15.587c-1.572,6.257-1.519,12.51-0.811,18.042
					c0.164,1.38,0.331,2.847-0.256,4.166c-0.286,0.651-0.792,1.183-1.369,1.546c-0.583,0.363-1.231,0.552-1.858,0.664
					c-1.261,0.22-2.474,0.198-3.61,0.328c-1.133,0.113-2.18,0.448-3.089,0.953c-1.826,1.004-3.074,2.562-3.671,4.098
					c-0.612,1.545-0.646,3.03-0.48,4.184c0.365,2.342,1.321,3.388,1.235,3.418c0,0-0.228-0.243-0.537-0.792
					c-0.307-0.546-0.694-1.409-0.898-2.595c-0.201-1.176-0.2-2.705,0.409-4.32c0.595-1.606,1.869-3.245,3.764-4.314
					c0.94-0.537,2.049-0.902,3.222-1.03c1.165-0.143,2.377-0.133,3.577-0.354c1.191-0.19,2.381-0.809,2.889-1.974
					c0.513-1.154,0.372-2.547,0.197-3.917c-0.738-5.566-0.811-11.887,0.782-18.229c1.558-6.339,4.843-11.899,8.936-15.805
					c2.046-1.955,4.281-3.505,6.546-4.608c2.259-1.12,4.543-1.755,6.648-2.111c4.24-0.699,7.752-0.075,10.008,0.642
					C403.857,371.222,404.967,371.96,404.967,371.96z"/>
			</g>
			<g>
				<path style="fill:#263238;" d="M362.222,432.129c-0.038,0.034-0.634-0.612-1.084-1.928c-0.453-1.291-0.657-3.322,0.141-5.326
					c0.806-2.002,2.356-3.331,3.575-3.952c1.234-0.642,2.111-0.698,2.115-0.647c0.025,0.088-0.804,0.273-1.933,0.967
					c-1.119,0.674-2.525,1.965-3.274,3.826c-0.742,1.863-0.616,3.767-0.271,5.027C361.829,431.376,362.301,432.082,362.222,432.129z
					"/>
			</g>
			<g>
				<path style="fill:#263238;" d="M372.946,434.177c-0.016,0.026-0.241-0.069-0.606-0.313c-0.366-0.242-0.856-0.661-1.354-1.276
					c-0.993-1.199-1.952-3.398-1.526-5.85c0.451-2.448,2.114-4.178,3.461-4.958c0.681-0.405,1.285-0.627,1.713-0.727
					c0.427-0.102,0.671-0.114,0.677-0.083c0.029,0.095-0.939,0.267-2.19,1.121c-1.235,0.821-2.733,2.482-3.148,4.74
					c-0.394,2.261,0.435,4.339,1.308,5.537C372.158,433.601,373.005,434.098,372.946,434.177z"/>
			</g>
			<g>
				<path style="fill:#263238;" d="M436.196,381.178c-0.095-0.016,0.212-1.773,0.355-4.636c0.077-1.431,0.072-3.138-0.032-5.028
					c-0.127-1.888-0.365-3.957-0.767-6.104c-0.827-4.295-2.136-8.051-3.223-10.704c-0.544-1.327-1.01-2.393-1.349-3.121
					c-0.332-0.732-0.502-1.145-0.47-1.162c0.032-0.017,0.262,0.365,0.651,1.072c0.396,0.703,0.915,1.75,1.507,3.067
					c1.181,2.631,2.56,6.408,3.396,10.75c0.406,2.171,0.633,4.266,0.734,6.176c0.079,1.911,0.045,3.636-0.08,5.077
					c-0.119,1.44-0.273,2.601-0.435,3.392C436.332,380.75,436.232,381.185,436.196,381.178z"/>
			</g>
			<g>
				<path style="fill:#263238;" d="M375.065,344.555c-0.016,0.018-0.201-0.107-0.528-0.368c-0.325-0.262-0.789-0.663-1.345-1.208
					c-1.109-1.088-2.586-2.776-3.926-5.073l0.419-0.189c0.747,2.134,1.165,4.789,0.872,7.567c-0.088,0.85-0.238,1.678-0.434,2.454
					l-0.148,0.589l-0.32-0.515c-2.084-3.355-3.902-6.327-5.186-8.469c-0.593-1.008-1.09-1.854-1.491-2.535
					c-0.341-0.6-0.514-0.937-0.486-0.954c0.028-0.017,0.254,0.286,0.643,0.856c0.436,0.659,0.977,1.477,1.623,2.452
					c1.361,2.094,3.233,5.032,5.333,8.377l-0.468,0.074c0.186-0.754,0.33-1.558,0.415-2.383c0.284-2.696-0.099-5.275-0.791-7.364
					l0.419-0.189c1.278,2.276,2.681,3.98,3.722,5.112C374.433,343.922,375.103,344.511,375.065,344.555z"/>
			</g>
			<g style="opacity:0.3;">
				<path d="M374.897,380.18c-5.541,5.07-9.537,11.808-11.327,19.103c-0.487,1.983-0.836,4.059-1.943,5.775
					c-2.33,3.614-7.262,4.521-11.542,4.115c-4.281-0.405-11.615-1.077-11.615-1.077l-4.093,12.626
					c7.494,0.989,20.6,1.571,20.6,1.571c1.772-3.648,4.389-5.353,8.263-5.468c0.968-0.029,2.285-0.203,3.22-0.453
					c1.384-0.37,2.26-1.806,2.459-3.226c0.199-1.419-0.133-2.851-0.384-4.262C366.772,398.981,369.115,388.411,374.897,380.18z"/>
			</g>
			<path style="opacity:0.3;" d="M269.401,395.801l33.454,11.489l0.762,4.887C303.617,412.177,272.003,402.827,269.401,395.801z"/>
		</g>
		<g>
			<g style="opacity:0.6;">
				<path style="fill:#FFFFFF;" d="M305.106,260.657l-86.822,45.375c5.593,30.002,15.827,48.405,39.162,68.074
					c2.469,2.081,13.186,9.396,16.143,10.693c2.957,1.297,6.409,1.769,9.423,0.61c3.794-1.459,6.228-5.169,7.9-8.874
					c4.632-10.261,5.324-21.799,5.947-33.04c1.698,2.152,2.84,4.74,3.285,7.445c6.725-8.982-5.231-39.858-4.654-51.064
					C296.495,280.367,308.702,279.857,305.106,260.657z"/>
			</g>
			<path style="fill:#FF725E;" d="M218.37,306.235c0,0-17.946-42.398-18.245-60.889c-0.299-18.491,15.39-32.199,15.39-32.199
				s3.45-17.728,10.3-34.359c6.85-16.63,27.579-42.214,33.361-40.382c5.781,1.832,8.454,4.968,8.483,20.031
				c0.029,15.062,1.903,23.659,1.903,23.659s13.63,3.022,17.978,7.905c0,0,3.087-0.278,6.922-3.621
				c3.835-3.343,31.03-27.081,38.785-21.442c7.756,5.638,5.14,32.626-0.919,44.139c-6.059,11.512-15.953,26.368-16.324,27.729
				c-0.371,1.361,3.721,18.562,1.483,27.416c-2.238,8.853-8.632,20.016-19.418,28.35c-10.785,8.333-43.034,28.2-58.36,24.458
				C224.383,313.287,218.37,306.235,218.37,306.235z"/>
			<path style="opacity:0.6;fill:#FFFFFF;" d="M218.37,306.235c0,0-17.946-42.398-18.245-60.889
				c-0.299-18.491,15.39-32.199,15.39-32.199s3.45-17.728,10.3-34.359c6.85-16.63,27.579-42.214,33.361-40.382
				c5.781,1.832,8.454,4.968,8.483,20.031c0.029,15.062,1.903,23.659,1.903,23.659s13.63,3.022,17.978,7.905
				c0,0,3.087-0.278,6.922-3.621c3.835-3.343,31.03-27.081,38.785-21.442c7.756,5.638,5.14,32.626-0.919,44.139
				c-6.059,11.512-15.953,26.368-16.324,27.729c-0.371,1.361,3.721,18.562,1.483,27.416c-2.238,8.853-8.632,20.016-19.418,28.35
				c-10.785,8.333-43.034,28.2-58.36,24.458C224.383,313.287,218.37,306.235,218.37,306.235z"/>
			<path style="fill:#FF725E;" d="M332.327,209.077c6.059-11.512,8.675-38.5,0.919-44.139c-7.756-5.639-34.95,18.099-38.785,21.442
				c-3.835,3.343-6.922,3.621-6.922,3.621c-0.434-0.487-0.962-0.954-1.557-1.403c-4.592,3.46-8.813,7.412-12.27,11.995
				c-4.458,5.91-7.617,12.909-8.376,20.272c-0.342,3.314-0.156,6.828,1.513,9.711c2.078,3.589,6.091,5.602,10.062,6.796
				c13.77,4.139,39.917-5.966,32.71,25.855c0,0-5.646,14.593-10.888,23.63c-1.354,2.333-2.227,7.441-2.987,10.037
				c0.907-0.654,5.51,0.69,6.235,0.13c10.785-8.333,26.183-18.681,23.268-27.336c-4.652-13.815-9.618-31.52-9.247-32.881
				C316.374,235.444,326.268,220.589,332.327,209.077z"/>
			<g style="opacity:0.6;">
				<path style="fill:#FFFFFF;" d="M331.436,170.178c-1.842-1.249-4.34-0.587-6.376,0.312c-10.626,4.694-21.04,13.431-27.357,23.18
					c0.085,10.527,3.306,21.009,9.147,29.766c0.909,1.363,2.217,2.841,3.84,2.621c1.193-0.161,2.047-1.198,2.762-2.167
					c10.181-13.788,17.948-29.756,19.857-46.788C333.59,174.599,333.522,171.592,331.436,170.178z"/>
			</g>
			<g>
				<path style="fill:#FF725E;" d="M251.71,214.613c4.53-6.059,8.66-12.432,13.619-18.146c3.911-4.507,8.419-8.63,13.61-11.511
					c-4.732-1.829-9.377-2.861-9.377-2.861s-1.875-8.597-1.904-23.659c-0.028-15.062-2.702-18.199-8.483-20.031
					c-5.781-1.832-26.51,23.752-33.361,40.382c-4.664,11.324-7.751,23.151-9.246,29.55l0.195,0.09
					c4.253,2.994,7.628,7.08,11.784,10.207c4.155,3.127,9.636,5.276,14.543,3.552C246.754,220.899,249.384,217.724,251.71,214.613z"
					/>
			</g>
			<path style="fill:#263238;" d="M252.484,234.01c-2.824-2.005-4.53-2.787-7.818-3.875c-1.719-0.569-3.82-0.931-5.168,0.279
				c-1.085,0.974-1.238,2.685-0.728,4.051c0.511,1.366,1.556,2.455,2.617,3.455c1.13,1.064,2.364,2.106,3.861,2.513
				c2.478,0.675,3.718,0.218,6.011-0.939c0.765-0.386,1.956-1.148,2.901-2.04C254.785,236.865,254.872,235.252,252.484,234.01z"/>
			<path style="fill:#FF725E;" d="M263.127,246.494c-4.07,3.15-5.152,7.625-6.425,12.612c-1.273,4.987-2.165,10.211-4.925,14.555
				c-2.76,4.344-8.065,7.612-12.998,6.141c-2.686-0.801-4.864-2.904-6.166-5.386c-1.302-2.482-1.799-5.319-1.888-8.121
				c-0.279-8.725,3.124-17.212,9.58-23.087c0,0,2.904,0.482,4.052,1.243c1.148,0.761,7.561,4.577,12.233,3.439
				C261.26,246.752,263.127,246.494,263.127,246.494z"/>
			<g>
				<path style="fill:#263238;" d="M241.93,262.934c-0.054,0.004-0.189-1.013-0.03-2.654c0.149-1.638,0.661-3.882,1.679-6.185
					c1.026-2.3,2.347-4.185,3.463-5.394c1.111-1.218,1.955-1.801,1.988-1.758c0.059,0.067-0.692,0.743-1.709,1.997
					c-1.023,1.247-2.263,3.117-3.267,5.366c-0.995,2.252-1.55,4.425-1.789,6.021C242.017,261.923,242.019,262.933,241.93,262.934z"
					/>
			</g>
			<g>
				<path style="fill:#263238;" d="M270.423,241.882c0.015,0.01-0.088,0.179-0.3,0.494c-0.213,0.313-0.565,0.756-1.097,1.247
					c-1.041,1.009-2.887,2.105-5.344,2.892c-1.225,0.405-2.595,0.742-4.068,1.068c-1.455,0.343-3.09,0.647-4.805,0.623
					c-3.419,0.003-7.243-1.088-10.43-3.433c-0.802-0.537-1.619-1.029-2.5-1.202c-0.877-0.18-1.827-0.03-2.787-0.187
					c-1.945-0.283-3.472-1.623-4.367-3.091c-0.911-1.486-1.341-3.143-1.325-4.687c0.013-1.543,0.393-2.954,0.922-4.139
					c1.082-2.389,2.713-3.852,3.902-4.646c0.608-0.392,1.111-0.644,1.461-0.788c0.353-0.141,0.54-0.206,0.546-0.189
					c0.024,0.051-0.732,0.324-1.892,1.144c-1.131,0.829-2.677,2.297-3.68,4.626c-0.49,1.155-0.834,2.52-0.828,3.991
					c0.002,1.463,0.43,3.039,1.3,4.433c0.858,1.382,2.277,2.594,4.034,2.841c0.862,0.147,1.814-0.011,2.814,0.184
					c1.001,0.197,1.875,0.734,2.688,1.277c3.134,2.304,6.807,3.356,10.144,3.387c1.679,0.034,3.235-0.238,4.711-0.565
					c1.471-0.306,2.833-0.619,4.047-0.997c2.437-0.732,4.26-1.751,5.321-2.693C269.962,242.54,270.374,241.844,270.423,241.882z"/>
			</g>
			<g style="opacity:0.6;">
				<path style="fill:#FFFFFF;" d="M223.813,203.706c9.633-7.668,20.077-14.317,31.101-19.8c1.57-0.781,3.198-1.573,4.35-2.895
					c1.433-1.646,1.934-3.881,2.387-6.016c1.672-7.891,3.338-16.15,1.182-23.922c-0.758-2.734-2.493-5.721-5.322-5.937
					c-1.786-0.137-3.434,0.907-4.855,1.997c-10.195,7.817-16.189,19.778-21.842,31.314c-3.815,7.786-7.705,15.848-8.122,24.508"/>
			</g>
			<g>
				<path style="fill:#263238;" d="M243.062,243.75c-0.102,0.073-0.878-1.051-0.949-2.695c-0.061-1.645,0.623-2.826,0.731-2.762
					c0.152,0.055-0.272,1.247-0.21,2.741C242.691,242.528,243.209,243.683,243.062,243.75z"/>
			</g>
			<g style="opacity:0.6;">
				<path style="fill:#FFFFFF;" d="M282.175,208.056c-2.316-0.499-4.76-0.387-7.02,0.32c-0.84,0.263-1.738,0.689-2.051,1.512
					c-0.475,1.252,0.672,2.512,1.797,3.238c2.126,1.374,4.594,2.215,7.116,2.426c0.9,0.075,1.824,0.069,2.683-0.21
					c0.859-0.279,1.651-0.863,2.014-1.69c0.548-1.251-0.016-2.766-0.993-3.72c-0.977-0.955-2.288-1.473-3.561-1.967"/>
			</g>
			<g style="opacity:0.6;">
				<path style="fill:#FFFFFF;" d="M248.487,197.387c-2.315-0.499-4.76-0.387-7.02,0.32c-0.84,0.263-1.738,0.689-2.051,1.512
					c-0.475,1.252,0.672,2.512,1.797,3.238c2.126,1.374,4.594,2.215,7.116,2.426c0.9,0.075,1.824,0.069,2.683-0.21
					c0.859-0.279,1.651-0.863,2.014-1.69c0.548-1.251-0.016-2.766-0.993-3.72c-0.977-0.955-2.288-1.473-3.561-1.967"/>
			</g>
			<g>
				<path style="fill:#263238;" d="M250.515,161.141c0.077,0.07-1.173,1.353-2.795,3.717c-0.819,1.176-1.681,2.651-2.521,4.345
					c-0.811,1.708-1.584,3.643-2.188,5.741c-0.582,2.105-0.935,4.159-1.137,6.039c-0.169,1.884-0.206,3.592-0.123,5.023
					c0.146,2.863,0.54,4.61,0.438,4.63c-0.035,0.008-0.148-0.424-0.323-1.214c-0.094-0.394-0.193-0.88-0.261-1.451
					c-0.074-0.57-0.19-1.217-0.221-1.942c-0.131-1.444-0.132-3.176,0.013-5.09c0.178-1.91,0.523-3.999,1.114-6.137
					c0.614-2.13,1.413-4.091,2.259-5.812c0.877-1.707,1.784-3.183,2.651-4.345c0.406-0.601,0.843-1.092,1.204-1.539
					c0.357-0.451,0.695-0.813,0.981-1.1C250.167,161.424,250.489,161.116,250.515,161.141z"/>
			</g>
			<path style="fill:#263238;" d="M279.803,225.337c-0.052,2.494-2.116,4.473-4.61,4.422c-2.494-0.052-4.473-2.116-4.421-4.61
				c0.052-2.494,2.116-4.473,4.609-4.421C277.875,220.779,279.854,222.843,279.803,225.337z"/>
			<path style="fill:#263238;" d="M245.388,213.327c-0.052,2.494-2.116,4.473-4.61,4.422c-2.494-0.052-4.473-2.116-4.421-4.61
				c0.052-2.494,2.116-4.473,4.61-4.421C243.461,208.769,245.44,210.833,245.388,213.327z"/>
			<g>
				<path style="fill:#263238;" d="M330.517,177.778c0.012,0.013-0.132,0.165-0.416,0.441c-0.326,0.312-0.741,0.708-1.254,1.198
					c-1.09,1.038-2.648,2.564-4.499,4.525c-3.707,3.909-8.51,9.669-12.878,16.711l-0.287,0.463l-0.18-0.515
					c-0.087-0.249-0.181-0.518-0.275-0.788c-0.863-2.484-1.7-4.894-2.486-7.156l0.467,0.023c-2.792,6.037-3.683,11.853-3.837,15.941
					c-0.084,2.053-0.019,3.696,0.053,4.821c0.077,1.125,0.131,1.738,0.096,1.742c-0.015,0.002-0.047-0.149-0.094-0.441
					c-0.042-0.292-0.12-0.723-0.175-1.287c-0.126-1.125-0.242-2.776-0.202-4.847c0.066-4.122,0.899-10.016,3.7-16.143l0.26-0.569
					l0.207,0.592c0.791,2.261,1.633,4.669,2.501,7.151c0.094,0.27,0.188,0.539,0.275,0.788l-0.467-0.052
					c4.395-7.077,9.27-12.83,13.058-16.688c1.892-1.935,3.493-3.425,4.627-4.42c0.561-0.504,1.016-0.873,1.32-1.128
					C330.339,177.89,330.505,177.764,330.517,177.778z"/>
			</g>
			<g>
				<path style="fill:#263238;" d="M259.264,320.777c0.023-0.002,0.069,0.291,0.128,0.844c0.056,0.553,0.121,1.366,0.163,2.404
					c0.083,2.074,0.066,5.055-0.369,8.603l-0.048,0.388l-0.312-0.241c-2.86-2.212-5.912-5.334-8.354-9.239
					c-0.239-0.373-0.459-0.754-0.682-1.127l0.478-0.192c0.953,3.943,1.844,7.625,2.611,10.801l0.19,0.786l-0.565-0.575
					c-2.528-2.57-4.048-5.197-4.917-7.084c-0.436-0.947-0.719-1.716-0.894-2.245c-0.17-0.531-0.242-0.819-0.221-0.826
					c0.024-0.008,0.139,0.265,0.35,0.778c0.215,0.511,0.534,1.258,1,2.179c0.929,1.835,2.483,4.389,4.998,6.882l-0.375,0.211
					c-0.789-3.171-1.703-6.846-2.682-10.783l-0.422-1.697l0.9,1.504c0.22,0.367,0.437,0.743,0.673,1.11
					c2.406,3.848,5.393,6.942,8.189,9.164l-0.359,0.147c0.476-3.514,0.558-6.474,0.552-8.54c-0.016-0.978-0.029-1.776-0.04-2.4
					C259.24,321.076,259.24,320.78,259.264,320.777z"/>
			</g>
		</g>
	</g>
</g>
<g id="Cat">
	<g>
		<g>
			<path style="fill:#FF725E;" d="M107.727,404.626c-4.637,3.271-9.457,6.493-14.929,7.996c-5.472,1.503-11.786,1.027-16.183-2.56
				c-5.645-4.605-6.667-12.834-6.044-20.093c1.268-14.775,7.521-29.433,4.665-43.985c-2.062-10.508-9.081-19.932-18.558-24.917
				c-9.477-4.985-21.219-5.43-31.046-1.175c-6.126,2.652-11.869,7.724-12.599,14.36c1.955,6.157,11.165,11.252,17.254,13.411
				c6.089,2.159,12.867,4.517,15.906,10.218c2.639,4.949,1.635,10.941,1.037,16.518c-1.014,9.452-0.65,19.051,1.08,28.399
				c1.297,7.01,3.486,14.116,8.191,19.471c7.359,8.377,19.592,10.89,30.68,9.706c11.087-1.184,21.561-5.481,32.245-8.671
				C115.525,417.077,111.626,410.851,107.727,404.626z"/>
			<g style="opacity:0.5;">
				<path style="fill:#FFFFFF;" d="M74.386,351.307c0.462-1.222,0.833-2.472,1.121-3.739c-0.08-0.528-0.169-1.057-0.272-1.585
					c-2.062-10.508-9.081-19.932-18.558-24.917c-9.477-4.985-21.219-5.43-31.046-1.175c-6.126,2.652-11.869,7.724-12.599,14.36
					c1.955,6.157,11.165,11.252,17.254,13.411c6.089,2.159,12.867,4.517,15.906,10.218c1.779,3.337,1.901,7.147,1.609,10.985
					c1.113,0.154,2.249,0.196,3.35,0.129C61.422,368.371,70.749,360.934,74.386,351.307z"/>
			</g>
		</g>
		<g>
			<g>
				<path style="fill:#FF725E;" d="M183.758,419.247c2.988-1.907,9.78-2.409,13.302-2.808c3.522-0.398,7.347,0.605,9.694,3.261
					c2.347,2.656,2.733,7.085,0.342,9.701c-2.729,2.987-8.919,2.935-12.965,2.935c-11.01,0-17.435-0.21-27.51,0"/>
				<g>
					<path style="fill:#263238;" d="M166.621,432.337c0-0.018,0.265-0.04,0.771-0.067c0.556-0.022,1.292-0.05,2.214-0.086
						c1.923-0.058,4.708-0.111,8.148-0.121c3.457,0.007,7.546,0.014,12.082,0.023c2.271-0.005,4.664,0.021,7.126-0.03
						c2.448-0.082,5.035-0.253,7.435-1.181c1.181-0.484,2.246-1.204,2.95-2.208c0.704-1.004,1.049-2.211,1.102-3.404
						c0.081-2.397-0.94-4.721-2.63-6.149c-1.666-1.472-3.76-2.207-5.721-2.448c-1.974-0.274-3.842,0.091-5.558,0.228
						c-3.419,0.333-6.165,0.776-8.009,1.294c-0.925,0.25-1.612,0.533-2.075,0.732c-0.451,0.22-0.687,0.345-0.698,0.327
						c-0.005-0.008,0.048-0.048,0.157-0.12c0.11-0.069,0.27-0.181,0.495-0.302c0.452-0.232,1.139-0.549,2.064-0.832
						c1.846-0.583,4.605-1.085,8.026-1.465c1.698-0.157,3.587-0.553,5.65-0.29c2.03,0.231,4.217,0.972,5.987,2.516
						c1.8,1.506,2.905,3.974,2.823,6.529c-0.052,1.275-0.419,2.582-1.187,3.682c-0.769,1.103-1.94,1.888-3.179,2.393
						c-2.52,0.972-5.144,1.13-7.617,1.209c-2.485,0.044-4.866,0.007-7.142-0.001c-4.535-0.051-8.624-0.096-12.081-0.135
						c-3.397-0.018-6.165-0.034-8.144-0.044c-0.922-0.005-1.659-0.009-2.215-0.012C166.888,432.367,166.622,432.355,166.621,432.337
						z"/>
				</g>
			</g>
			<path style="fill:#FF725E;" d="M141.817,273.117c0,1.341-8.045,20.782-27.821,36.537c-19.777,15.754-36.201,34.19-35.866,58.66
				c0.335,24.469,15.419,51.285,15.419,51.285l15.592,12.275l57.481,0.462c0,0,26.481-6.369,29.833-28.157
				c3.352-21.788-3.352-32.179-3.352-32.179l1.006-21.788c0,0,15.754-29.162,16.76-38.548c1.006-9.386-7.71-43.576-7.71-43.576
				L141.817,273.117z"/>
			<g>
				<path style="fill:#263238;" d="M174.045,336.377c0.157,0.014-0.87,2.459-0.339,6.486c0.244,1.998,0.953,4.316,2.081,6.728
					c1.145,2.407,2.737,4.892,4.67,7.293c1.949,2.396,3.964,4.556,5.756,6.561c1.796,2.002,3.368,3.855,4.572,5.504
					c1.208,1.644,2.077,3.054,2.603,4.066c0.28,0.496,0.449,0.908,0.579,1.178c0.124,0.273,0.181,0.42,0.164,0.428
					c-0.039,0.019-0.339-0.534-0.92-1.506c-0.577-0.975-1.485-2.341-2.721-3.944c-1.232-1.607-2.822-3.423-4.634-5.404
					c-1.808-1.984-3.838-4.138-5.804-6.555c-1.956-2.429-3.56-4.958-4.7-7.416c-1.123-2.464-1.81-4.841-2.012-6.887
					c-0.214-2.043-0.062-3.719,0.198-4.832c0.089-0.566,0.266-0.981,0.342-1.27C173.971,336.519,174.027,336.372,174.045,336.377z"
					/>
			</g>
			<g>
				<path style="fill:#263238;" d="M195.532,380.832c0.017-0.006,0.102,0.2,0.25,0.6c0.136,0.402,0.382,0.984,0.597,1.764
					c0.484,1.543,1.033,3.831,1.39,6.707c0.354,2.873,0.474,6.35,0.006,10.162c-0.223,1.905-0.589,3.893-1.165,5.902
					c-0.564,2.01-1.292,4.061-2.291,6.044c-0.987,1.988-2.151,3.826-3.418,5.491c-1.285,1.652-2.675,3.12-4.079,4.43
					c-2.845,2.585-5.759,4.491-8.329,5.824c-2.571,1.34-4.762,2.19-6.301,2.685c-0.762,0.272-1.376,0.414-1.783,0.535
					c-0.411,0.112-0.628,0.162-0.633,0.145c-0.005-0.017,0.203-0.101,0.602-0.245c0.396-0.154,0.999-0.326,1.746-0.626
					c1.512-0.551,3.668-1.449,6.194-2.819c2.527-1.363,5.387-3.282,8.178-5.852c1.376-1.303,2.739-2.757,4-4.389
					c1.242-1.645,2.384-3.454,3.355-5.411c0.984-1.951,1.704-3.97,2.267-5.951c0.574-1.98,0.946-3.942,1.18-5.823
					c0.489-3.765,0.408-7.207,0.104-10.062c-0.307-2.857-0.797-5.141-1.22-6.693c-0.183-0.785-0.397-1.374-0.501-1.786
					C195.568,381.056,195.515,380.838,195.532,380.832z"/>
			</g>
			<g>
				<path style="fill:#263238;" d="M110.145,431.829c-0.015,0.033-0.531-0.19-1.455-0.623c-0.465-0.21-1.026-0.483-1.652-0.849
					c-0.628-0.36-1.365-0.738-2.118-1.254c-0.77-0.491-1.608-1.037-2.457-1.696c-0.88-0.619-1.745-1.374-2.67-2.15
					c-1.801-1.61-3.664-3.514-5.405-5.696c-1.718-2.2-3.138-4.456-4.286-6.581c-0.54-1.081-1.074-2.098-1.472-3.097
					c-0.444-0.979-0.781-1.921-1.079-2.784c-0.327-0.853-0.524-1.657-0.728-2.352c-0.211-0.693-0.346-1.302-0.442-1.804
					c-0.206-0.999-0.303-1.552-0.268-1.56c0.035-0.007,0.199,0.532,0.465,1.511c0.126,0.491,0.288,1.089,0.525,1.77
					c0.229,0.682,0.449,1.472,0.795,2.309c0.318,0.847,0.672,1.773,1.128,2.734c0.41,0.982,0.953,1.981,1.499,3.044
					c1.159,2.09,2.574,4.311,4.272,6.486c1.721,2.156,3.551,4.048,5.315,5.66c0.907,0.778,1.753,1.538,2.612,2.165
					c0.829,0.667,1.647,1.226,2.398,1.732c0.734,0.531,1.451,0.928,2.062,1.31c0.607,0.388,1.151,0.685,1.6,0.922
					C109.673,431.512,110.16,431.797,110.145,431.829z"/>
			</g>
			<g>
				<path style="fill:#263238;" d="M136.859,362.79c-0.017,0.022-0.364-0.209-0.978-0.67c-0.612-0.463-1.486-1.165-2.532-2.108
					c-2.092-1.879-4.863-4.766-7.446-8.591l0.445-0.212c0.601,1.926,1.251,4.009,1.925,6.167c0.49,1.588,0.968,3.134,1.424,4.613
					l0.236,0.763l-0.632-0.486c-4.031-3.096-6.379-7.015-7.517-9.91c-0.581-1.457-0.908-2.669-1.083-3.51
					c-0.096-0.418-0.135-0.749-0.171-0.97c-0.032-0.222-0.041-0.339-0.025-0.342c0.035-0.007,0.145,0.448,0.368,1.27
					c0.227,0.821,0.599,2.006,1.213,3.426c1.205,2.823,3.566,6.626,7.522,9.632l-0.397,0.278c-0.46-1.477-0.942-3.023-1.436-4.609
					c-0.666-2.161-1.309-4.246-1.903-6.174l-0.507-1.643l0.952,1.431c2.529,3.803,5.225,6.709,7.245,8.639
					c1.01,0.968,1.848,1.704,2.425,2.207C136.566,362.49,136.878,362.765,136.859,362.79z"/>
			</g>
			<g style="opacity:0.3;">
				<path d="M173.509,337.61c0.139-0.979,1.741-0.958,2.288-0.135c0.547,0.823,0.393,1.902,0.334,2.888
					c-0.345,5.759,3.252,10.959,6.973,15.367c3.722,4.408,7.894,8.855,9.1,14.497c-2.981-3.446-6.523-6.354-9.813-9.506
					c-3.29-3.152-6.391-6.642-8.185-10.83c-1.794-4.188-2.127-9.199,0.03-13.213"/>
			</g>
			<g style="opacity:0.3;">
				<path d="M172.969,430.051c4.599,0.171,9.35-0.292,13.437-2.408c4.087-2.115,7.401-6.133,7.701-10.725
					c-1.15,0.049-2.301,0.098-3.451,0.146c-4.379,5.74-10.45,10.172-17.251,12.593"/>
			</g>
		</g>
		<g>
			<path style="fill:#FF725E;" d="M180.491,194.86c0,0-24.955,3.881-30.343,6.042c-5.388,2.16-27.219,13.438-30.656,24.218
				c0,0-1.716,12.154,3.654,27.104c1.958,5.45,17.823,23.889,21.59,25.98c3.767,2.092,58.969-7.708,58.969-7.708
				c3.312-4.5,12.864-20.134,12.787-31.854c-0.097-14.714-5.372-31.248-5.372-31.248L180.491,194.86z"/>
			<path style="fill:#FF725E;" d="M199.736,169.456c-0.538-0.088-7.173-0.008-12.23,11.429
				c-5.057,11.437-10.706,20.207-10.706,20.207l34.5,7.972c0,0-1.927-18.646-3.841-25.157
				C205.545,177.395,203.598,170.09,199.736,169.456z"/>
			<g style="opacity:0.6;">
				<path style="fill:#FFFFFF;" d="M189.076,240.404c-11.142-4.378-23.963-2.435-34.867,2.508
					c-6.065,2.749-12.029,6.733-14.736,12.817c-4.438,9.971,1.583,21.827,10.019,28.751c8.436,6.923,19.01,10.669,28.114,16.688
					c9.104,6.018,17.196,15.814,16.003,26.662l0.543,22.303c0.9-1.673,15.741-29.366,16.716-38.466
					c0.858-8.004-5.354-34.045-7.201-41.538c0.805-1.027,2.059-3.085,3.567-5.07C207.379,254.246,199.304,244.423,189.076,240.404z"
					/>
			</g>
			<g>
				<line style="fill:#263238;" x1="177.069" y1="234.028" x2="177.07" y2="234.029"/>
				<path style="fill:#263238;" d="M177.541,236.116c0.316-1.058-0.437-2.118-1.533-2.255c-2.817-0.35-5.726,0.044-8.342,1.148
					c-0.566,0.239-1.174,0.57-1.357,1.157c-0.191,0.61,0.156,1.257,0.565,1.749c1.342,1.612,3.531,2.474,5.612,2.209
					c2.081-0.265,3.984-1.648,4.879-3.545C177.433,236.433,177.493,236.277,177.541,236.116z"/>
			</g>
			<g>
				<path style="fill:#263238;" d="M178.419,248.564c0.116,0.07-1.007,1.397-3.003,1.859c-1.991,0.485-3.59-0.196-3.518-0.311
					c0.036-0.153,1.57,0.256,3.398-0.196C177.132,249.498,178.318,248.443,178.419,248.564z"/>
			</g>
			<g>
				<path style="fill:#FF725E;" d="M120.122,227.363c0,0-11.767-40.797-6.754-44.236c5.014-3.439,9.646,0.628,9.646,0.628
					l25.932,19.725L120.122,227.363z"/>
				<g style="opacity:0.6;">
					<path style="fill:#FFFFFF;" d="M123.368,219.122c4.416-6.13,10.365-11.147,17.152-14.465c-5.95-4.677-11.9-9.354-17.85-14.03
						c-0.814-0.64-1.782-1.318-2.793-1.093c-0.96,0.214-1.564,1.184-1.819,2.134c-0.664,2.474-0.023,6.486,0.522,8.989
						C120.017,207.252,121.549,213.569,123.368,219.122"/>
				</g>
			</g>
			<g style="opacity:0.6;">
				<path style="fill:#FFFFFF;" d="M205.387,203.764c-6.304-3.628-13.512-5.672-20.782-5.893c3.367-6.462,6.733-12.923,10.1-19.385
					c0.46-0.884,1.041-1.863,2.017-2.066c0.927-0.193,1.841,0.419,2.441,1.151c1.563,1.908,2.591,5.682,3.105,8.094
					C203.622,192.021,204.782,198.171,205.387,203.764"/>
			</g>
			<g>
				<path style="fill:#263238;" d="M208.768,261.934c0.016,0.007-0.067,0.217-0.24,0.61c-0.202,0.441-0.462,1.008-0.783,1.711
					c-0.701,1.475-1.912,3.526-3.723,5.836c-1.884,2.239-4.491,4.666-7.932,6.506c-0.863,0.444-1.772,0.861-2.713,1.245
					c-0.961,0.337-1.93,0.719-2.964,0.953c-1.016,0.305-2.084,0.459-3.158,0.659c-1.086,0.118-2.187,0.257-3.311,0.266
					c-2.017,0.051-4-0.086-5.883-0.448l0.148-0.487c2.934,1.244,5.404,3.064,7.289,5.049l0.369,0.388l-0.533,0.004
					c-5.267,0.036-9.617-0.996-12.535-1.973c-1.465-0.49-2.588-0.96-3.343-1.302c-0.378-0.17-0.661-0.316-0.853-0.413
					c-0.191-0.098-0.287-0.154-0.282-0.166c0.011-0.025,0.424,0.139,1.191,0.445c0.77,0.299,1.903,0.726,3.37,1.175
					c2.923,0.895,7.242,1.85,12.446,1.771l-0.164,0.391c-1.861-1.927-4.286-3.692-7.154-4.897l-2.231-0.938l2.379,0.45
					c1.843,0.349,3.791,0.48,5.772,0.43c1.103-0.008,2.185-0.145,3.252-0.258c1.055-0.195,2.104-0.343,3.102-0.639
					c1.016-0.226,1.968-0.598,2.913-0.923c0.925-0.373,1.819-0.777,2.67-1.206c3.388-1.783,5.976-4.138,7.873-6.318
					c1.823-2.251,3.073-4.254,3.825-5.693c0.357-0.682,0.645-1.233,0.868-1.661C208.637,262.122,208.752,261.927,208.768,261.934z"
					/>
			</g>
			<g>
				<path style="fill:#263238;" d="M193.706,324.805c0.036-0.002,0.092,0.411,0.161,1.16c0.068,0.749,0.146,1.834,0.221,3.176
					c0.152,2.684,0.284,6.395,0.343,10.496c0.06,4.102,0.031,7.816-0.044,10.503c-0.036,1.344-0.082,2.431-0.13,3.181
					c-0.047,0.751-0.091,1.165-0.127,1.164c-0.036-0.001-0.061-0.417-0.076-1.168c-0.01-0.861-0.022-1.924-0.036-3.181
					c-0.029-2.804-0.067-6.454-0.109-10.492c-0.073-4.036-0.139-7.686-0.19-10.489c-0.022-1.256-0.04-2.319-0.055-3.18
					C193.657,325.223,193.67,324.807,193.706,324.805z"/>
			</g>
			<path style="fill:#263238;" d="M155.623,233.769c0,2.494-2.022,4.517-4.516,4.517s-4.516-2.022-4.516-4.517
				s2.022-4.516,4.516-4.516S155.623,231.275,155.623,233.769z"/>
			<path style="fill:#263238;" d="M193.83,226.863c0,2.494-2.022,4.516-4.516,4.516s-4.517-2.022-4.517-4.516
				c0-2.494,2.022-4.517,4.517-4.517S193.83,224.368,193.83,226.863z"/>
			<g>
				<path style="fill:#263238;" d="M186.352,237.273c0.032,0,0.053,0.556-0.105,1.542c-0.169,0.976-0.48,2.423-1.411,3.986
					c-0.238,0.375-0.497,0.798-0.89,1.135c-0.38,0.336-0.818,0.623-1.308,0.856c-0.978,0.515-2.251,0.534-3.408,0.2
					c-0.596-0.15-1.168-0.473-1.683-0.805c-0.529-0.333-1.046-0.71-1.549-1.121c-1.007-0.821-1.945-1.796-2.789-2.883l0.458-0.096
					c-0.025,0.086-0.051,0.18-0.078,0.274c-0.749,2.702-2.493,5.023-4.711,6.132c-1.101,0.558-2.312,0.759-3.404,0.629
					c-1.09-0.144-2.052-0.543-2.822-1.047c-1.556-1.016-2.406-2.293-2.89-3.174c-0.238-0.449-0.398-0.81-0.482-1.064
					c-0.09-0.251-0.128-0.386-0.112-0.392c0.046-0.019,0.249,0.503,0.769,1.354c0.526,0.833,1.402,2.036,2.91,2.964
					c0.747,0.46,1.66,0.813,2.674,0.93c1.015,0.1,2.118-0.098,3.141-0.628c2.056-1.053,3.712-3.264,4.426-5.844
					c0.026-0.089,0.051-0.179,0.075-0.261l0.144-0.501l0.314,0.405c0.821,1.058,1.729,2.007,2.7,2.809
					c0.485,0.401,0.982,0.77,1.492,1.096c0.516,0.335,1.001,0.617,1.549,0.764c2.198,0.753,4.341-0.456,5.163-1.927
					c0.933-1.473,1.298-2.88,1.524-3.829C186.266,237.817,186.313,237.271,186.352,237.273z"/>
			</g>
			<g style="opacity:0.6;">
				<path style="fill:#FFFFFF;" d="M166.496,197.223l-6.332,1.201c0.383,2.575,1.422,5.23,2.747,7.472
					c0.483,0.818,1.207,1.697,2.154,1.624c0.552-0.042,1.035-0.424,1.328-0.893c0.293-0.47,0.424-1.021,0.523-1.566
					C167.391,202.466,167.222,199.758,166.496,197.223z"/>
			</g>
			<g>
				<path style="fill:#263238;" d="M224.927,243.981c-0.01,0.034-0.461-0.062-1.266-0.265c-0.907-0.226-2.049-0.511-3.409-0.85
					c-2.881-0.703-6.884-1.579-11.349-2.291c-4.468-0.707-8.546-1.115-11.503-1.339c-1.399-0.099-2.573-0.182-3.505-0.248
					c-0.828-0.056-1.286-0.104-1.286-0.14c0.001-0.036,0.461-0.056,1.292-0.062c0.832-0.01,2.035,0.016,3.521,0.083
					c2.971,0.131,7.074,0.482,11.562,1.192c4.485,0.715,8.494,1.652,11.36,2.449c1.433,0.397,2.586,0.745,3.374,1.012
					C224.507,243.784,224.938,243.946,224.927,243.981z"/>
			</g>
			<g>
				<path style="fill:#263238;" d="M228.391,235.823c-0.002,0.036-0.482,0.051-1.348,0.046c-0.968-0.009-2.197-0.021-3.666-0.035
					c-3.094-0.031-7.368-0.036-12.087,0.089c-4.72,0.128-8.988,0.361-12.076,0.558c-1.466,0.093-2.692,0.17-3.659,0.231
					c-0.865,0.051-1.344,0.062-1.348,0.026c-0.003-0.036,0.47-0.115,1.329-0.228c0.859-0.115,2.106-0.251,3.649-0.396
					c3.086-0.291,7.361-0.583,12.091-0.712c4.729-0.125,9.013-0.062,12.109,0.063c1.548,0.062,2.801,0.132,3.665,0.2
					C227.916,235.733,228.393,235.787,228.391,235.823z"/>
			</g>
			<g>
				<path style="fill:#263238;" d="M227.989,255.67c-0.019,0.03-0.479-0.215-1.291-0.685c-0.81-0.474-1.99-1.146-3.457-1.955
					c-2.933-1.622-7.062-3.727-11.779-5.697c-4.721-1.965-9.122-3.417-12.339-4.359c-1.608-0.473-2.915-0.838-3.822-1.08
					c-0.905-0.247-1.403-0.4-1.395-0.436c0.008-0.035,0.521,0.052,1.442,0.238c0.923,0.182,2.248,0.494,3.874,0.923
					c3.252,0.854,7.695,2.259,12.44,4.233c4.74,1.981,8.864,4.148,11.76,5.858c1.449,0.854,2.603,1.575,3.382,2.103
					C227.586,255.336,228.009,255.64,227.989,255.67z"/>
			</g>
			<g>
				<path style="fill:#263238;" d="M149.133,249.883c0.017,0.032-0.377,0.291-1.104,0.732c-0.816,0.493-1.849,1.117-3.082,1.861
					c-2.599,1.575-6.159,3.798-9.996,6.397c-3.836,2.603-7.22,5.088-9.644,6.919c-1.148,0.869-2.11,1.598-2.87,2.174
					c-0.679,0.512-1.066,0.782-1.089,0.754c-0.023-0.028,0.32-0.351,0.961-0.912c0.639-0.563,1.585-1.353,2.771-2.307
					c2.371-1.91,5.731-4.449,9.578-7.06c3.848-2.607,7.45-4.788,10.102-6.284c1.326-0.749,2.409-1.335,3.169-1.721
					C148.688,250.05,149.115,249.851,149.133,249.883z"/>
			</g>
			<g>
				<path style="fill:#263238;" d="M148.416,246.351c0.007,0.017-0.138,0.098-0.421,0.237c-0.34,0.16-0.751,0.354-1.247,0.587
					c-1.164,0.53-2.72,1.238-4.61,2.099c-3.893,1.77-9.255,4.247-15.122,7.096c-5.868,2.853-11.13,5.537-14.927,7.504
					c-1.844,0.954-3.363,1.739-4.499,2.327c-0.49,0.245-0.896,0.449-1.232,0.617c-0.284,0.136-0.438,0.2-0.447,0.184
					c-0.009-0.016,0.128-0.11,0.396-0.276c0.323-0.192,0.714-0.424,1.185-0.703c1.034-0.603,2.545-1.449,4.423-2.474
					c3.756-2.051,8.997-4.791,14.872-7.647c5.874-2.853,11.267-5.28,15.201-6.964c1.967-0.843,3.566-1.508,4.679-1.948
					c0.511-0.198,0.935-0.362,1.286-0.497C148.25,246.384,148.409,246.335,148.416,246.351z"/>
			</g>
			<g>
				<path style="fill:#263238;" d="M142.871,244.864c0.008,0.035-0.562,0.199-1.597,0.464c-1.036,0.261-2.532,0.652-4.374,1.154
					c-3.684,1.003-8.735,2.53-14.193,4.562c-5.457,2.04-10.275,4.195-13.715,5.85c-1.721,0.826-3.107,1.51-4.061,1.992
					c-0.956,0.477-1.493,0.727-1.511,0.695c-0.017-0.031,0.487-0.341,1.415-0.874c0.925-0.538,2.289-1.273,3.993-2.144
					c3.407-1.744,8.219-3.961,13.696-6.008c5.477-2.04,10.565-3.517,14.282-4.43c1.858-0.459,3.37-0.796,4.422-0.996
					C142.279,244.926,142.863,244.829,142.871,244.864z"/>
			</g>
			<g>
				<path style="fill:#263238;" d="M196.522,184.897c0.032-0.004,0.11,0.366,0.205,1.047c0.095,0.681,0.197,1.674,0.257,2.913
					c0.125,2.475,0.024,5.951-0.7,9.768l-0.131,0.692l-0.349-0.613c-0.221-0.388-0.456-0.801-0.694-1.219
					c-1.294-2.299-2.51-4.46-3.568-6.342l0.42-0.06c-0.555,2.268-0.719,4.227-0.772,5.596c-0.05,1.372-0.012,2.162-0.067,2.166
					c-0.024,0.002-0.062-0.194-0.106-0.563c-0.041-0.369-0.083-0.913-0.096-1.606c-0.025-1.384,0.076-3.378,0.597-5.698l0.128-0.57
					l0.292,0.509c1.075,1.872,2.31,4.022,3.624,6.31c0.237,0.418,0.472,0.831,0.692,1.22l-0.48,0.08
					c0.727-3.77,0.89-7.202,0.858-9.661C196.604,186.405,196.442,184.906,196.522,184.897z"/>
			</g>
			<g>
				<path style="fill:#263238;" d="M130.983,207.206c-0.114,0.08-1.376-2.46-4.325-5.252l0.391-0.141
					c-0.182,1.694-0.388,3.602-0.606,5.623c-0.031,0.273-0.062,0.544-0.09,0.797l-0.106,0.936l-0.389-0.857
					c-1.352-2.982-2.536-5.661-3.368-7.601c-0.831-1.94-1.309-3.142-1.246-3.171c0.063-0.029,0.655,1.121,1.571,3.023
					c0.916,1.902,2.156,4.555,3.516,7.534l-0.495,0.078c0.028-0.253,0.059-0.524,0.089-0.797c0.238-2.019,0.463-3.924,0.662-5.617
					l0.055-0.471l0.336,0.329c1.475,1.446,2.496,2.859,3.132,3.889C130.748,206.541,131.022,207.185,130.983,207.206z"/>
			</g>
		</g>
	</g>
</g>
<g id="Hearts">
	<g>
		<g>
			<path style="fill:#FF725E;" d="M232.01,96.722c-1.832-4.379-5.257-7.984-9.28-10.503c-3.941-2.468-8.587-3.969-13.226-3.653
				c-4.928,0.335-9.678,2.783-12.81,6.603c-1.863,2.272-3.137,5.01-3.73,7.886c-1.934-1.838-4.263-3.261-6.796-4.1
				c-4.69-1.552-10.012-1.079-14.354,1.274c-4.089,2.216-7.212,5.968-9.221,10.162c-2.051,4.28-3.017,9.159-2.222,13.839
				c0.996,5.862,3.893,11.753,8.254,15.793c4.606,4.267,10.837,6.985,16.903,8.6c10.202,2.714,23.537,5.95,23.537,5.95
				s7.57-10.031,14.738-17.781c4.263-4.61,8.074-10.238,9.682-16.307C235.008,108.735,234.304,102.207,232.01,96.722z"/>
		</g>
	</g>
	<g>
		<g>
			<path style="fill:#FF725E;" d="M329.199,137.394c0.79-2.328,0.695-4.901-0.003-7.258c-0.684-2.309-1.974-4.484-3.883-5.951
				c-2.028-1.559-4.711-2.237-7.236-1.827c-1.502,0.243-2.935,0.87-4.151,1.783c-0.121-1.376-0.537-2.727-1.233-3.921
				c-1.289-2.21-3.517-3.85-6.009-4.425c-2.347-0.541-4.845-0.155-7.062,0.785c-2.263,0.959-4.31,2.521-5.606,4.611
				c-1.622,2.617-2.517,5.897-2.208,8.96c0.326,3.235,1.813,6.426,3.615,9.132c3.03,4.55,7.098,10.377,7.098,10.377
				s6.377-1.3,11.816-1.852c3.235-0.329,6.643-1.208,9.348-3.012C326.245,143.085,328.209,140.309,329.199,137.394z"/>
		</g>
	</g>
</g>
</svg>
