<?xml version="1.0" encoding="utf-8"?>
<!-- Generator: Adobe Illustrator 27.5.0, SVG Export Plug-In . SVG Version: 6.00 Build 0)  -->
<svg version="1.1" xmlns="http://www.w3.org/2000/svg" xmlns:xlink="http://www.w3.org/1999/xlink" x="0px" y="0px"
	 viewBox="0 0 500 500" style="enable-background:new 0 0 500 500;" xml:space="preserve">
<g id="Background_Complete">
	<g>
		<path style="fill:#F5F5F5;" d="M448.979,256.48c-0.686,1.518-1.675,2.813-2.917,3.919c-1.934,1.722-4.305,2.05-6.852,1.667
			c-2.351-0.354-4.379-1.41-6.144-2.98c-1.63-1.451-3.335-2.807-5.182-3.995c-2.008-1.292-4.211-2.042-6.537-2.421
			c-1.622-0.265-3.257-0.452-4.891-0.614c-2.225-0.221-4.283-0.887-6.1-2.209c-2.927-2.131-4.198-4.885-3.648-8.374
			c0.61-3.87,2.771-6.613,6.28-8.339c1.765-0.868,3.644-1.529,5.473-2.281c0.827-0.34,1.66-0.666,2.485-1.01
			c1.498-0.625,2.619-1.701,3.675-2.854c0.612-0.669,1.223-1.338,1.842-2c2.326-2.487,5.255-3.343,8.719-2.783
			c2.657,0.429,5.012,1.502,7.073,3.225c2.396,2.002,3.573,4.499,3.47,7.512c-0.03,0.892-0.06,1.786-0.156,2.671
			c-0.245,2.242,0.132,4.387,1.063,6.493c0.854,1.933,1.669,3.886,2.385,5.866c0.798,2.207,1.055,4.473,0.504,6.744
			C449.374,255.312,449.161,255.892,448.979,256.48z"/>
		<path style="fill:#F5F5F5;" d="M440.535,215.395c-0.757,1.683-1.885,3.233-3.833,4.245c-0.706,0.367-1.492,0.624-2.401,0.685
			c-1.977,0.132-3.673-0.575-5.107-1.977c-0.886-0.866-1.515-1.826-1.869-2.827c-1.714-4.848-0.79-8.87,2.827-11.994
			c0.54-0.467,1.284-0.812,2.039-1.073c2.468-0.854,5.212,0.028,7.02,2.215c1.327,1.604,1.886,3.292,2.11,5.003
			C441.576,211.614,441.307,213.549,440.535,215.395z"/>
		<path style="fill:#F5F5F5;" d="M458.338,221.037c-1.598,2.609-3.611,4.474-6.676,5.336c-0.809,0.227-1.722,0.342-2.633,0.327
			c-2.819-0.046-5.078-1.714-5.834-4.231c-0.515-1.716-0.358-3.288,0.165-4.754c1.056-2.964,3.083-5.193,6.219-6.55
			c1.146-0.496,2.412-0.775,3.839-0.714c2.748,0.118,4.967,1.733,5.728,4.17c0.527,1.689,0.38,3.234-0.098,4.694
			C458.826,219.994,458.507,220.632,458.338,221.037z"/>
		<path style="fill:#F5F5F5;" d="M409.853,215.203c0.594-1.354,1.326-2.424,2.41-3.26c2.68-2.065,6.264-1.523,8.651,1.315
			c1.536,1.826,2.224,3.856,2.369,5.982c0.19,2.792-0.453,5.311-2.395,7.351c-0.397,0.417-0.876,0.788-1.388,1.094
			c-2.283,1.368-5.113,0.958-7.256-1.024c-1.441-1.333-2.264-2.917-2.724-4.624C408.861,219.594,409.019,217.265,409.853,215.203z"
			/>
		<path style="fill:#F5F5F5;" d="M464.251,238.484c-1.349,2.767-3.68,4.973-7.351,5.893c-1.316,0.33-2.69,0.363-4.101-0.045
			c-2.02-0.584-3.338-1.812-4.002-3.588c-0.628-1.68-0.493-3.299,0.09-4.826c1.192-3.118,3.467-5.343,6.962-6.463
			c1.855-0.595,3.804-0.68,5.797,0.249c1.578,0.735,2.55,1.904,3.036,3.374C465.284,234.896,464.999,236.586,464.251,238.484z"/>
	</g>
	<g>
		<path style="fill:#EBEBEB;" d="M389.008,134.995c-1.692,2.365-3.827,4.246-6.33,5.716c-3.899,2.289-8.071,2.042-12.301,0.517
			c-3.905-1.408-7.018-3.907-9.503-7.199c-2.296-3.041-4.752-5.944-7.51-8.608c-2.998-2.896-6.514-4.932-10.368-6.375
			c-2.687-1.006-5.423-1.884-8.165-2.719c-3.733-1.137-7.031-2.979-9.691-5.863c-4.284-4.647-5.523-9.796-3.391-15.582
			c2.365-6.419,7-10.377,13.597-12.137c3.318-0.885,6.76-1.375,10.148-2.039c1.532-0.3,3.07-0.575,4.599-0.882
			c2.778-0.559,5.065-2.019,7.265-3.633c1.275-0.936,2.55-1.874,3.835-2.797c4.83-3.465,10.138-3.932,15.877-1.793
			c4.404,1.641,8.069,4.281,11.011,7.933c3.419,4.245,4.583,8.922,3.38,14.045c-0.356,1.517-0.712,3.038-1.179,4.519
			c-1.183,3.755-1.27,7.556-0.395,11.48c0.803,3.601,1.533,7.223,2.084,10.857c0.613,4.052,0.281,8.018-1.437,11.72
			C390.084,133.132,389.52,134.051,389.008,134.995z"/>
		<path style="fill:#EBEBEB;" d="M388.562,61.77c-1.87,2.624-4.331,4.892-8.011,5.962c-1.334,0.388-2.767,0.56-4.345,0.353
			c-3.43-0.449-6.093-2.236-8.07-5.127c-1.221-1.785-1.972-3.644-2.236-5.477c-1.282-8.886,1.673-15.456,8.931-19.572
			c1.085-0.615,2.476-0.953,3.857-1.143c4.518-0.621,8.914,1.826,11.265,6.187c1.725,3.199,2.106,6.279,1.908,9.286
			C391.633,55.652,390.513,58.872,388.562,61.77z"/>
		<path style="fill:#EBEBEB;" d="M417.12,77.501c-3.625,3.922-7.708,6.429-13.25,6.859c-1.462,0.114-3.064-0.001-4.62-0.337
			c-4.81-1.04-8.11-4.667-8.547-9.234c-0.297-3.114,0.509-5.752,1.903-8.084c2.818-4.715,7.05-7.841,12.882-9.095
			c2.131-0.458,4.394-0.504,6.817,0.087c4.665,1.139,7.914,4.661,8.386,9.094c0.327,3.072-0.453,5.667-1.769,8.004
			C418.312,75.882,417.548,76.865,417.12,77.501z"/>
		<path style="fill:#EBEBEB;" d="M336.092,50.978c1.479-2.115,3.097-3.699,5.238-4.76c5.292-2.622,11.245-0.472,14.363,5.202
			c2.007,3.651,2.493,7.36,2.016,11.05c-0.627,4.845-2.587,8.939-6.607,11.769c-0.822,0.579-1.769,1.05-2.75,1.401
			c-4.376,1.564-9.081-0.103-12.074-4.228c-2.013-2.774-2.881-5.766-3.088-8.846C332.896,58.159,333.961,54.224,336.092,50.978z"/>
		<path style="fill:#EBEBEB;" d="M421.295,109.391c-3.253,4.277-7.996,7.259-14.596,7.584c-2.366,0.116-4.729-0.296-7.007-1.475
			c-3.259-1.688-5.098-4.242-5.629-7.509c-0.503-3.091,0.281-5.818,1.801-8.232c3.104-4.932,7.758-7.966,14.125-8.692
			c3.379-0.385,6.744,0.133,9.841,2.403c2.451,1.796,3.716,4.13,4.048,6.813C424.288,103.601,423.223,106.396,421.295,109.391z"/>
	</g>
	<g>
		<path style="fill:#F5F5F5;" d="M261.786,109.54c0.712,1.829,0.988,3.73,0.896,5.687c-0.144,3.049-1.823,5.315-4.245,7.144
			c-2.236,1.688-4.797,2.526-7.575,2.717c-2.566,0.176-5.113,0.494-7.636,1.07c-2.743,0.626-5.191,1.863-7.428,3.509
			c-1.56,1.148-3.065,2.37-4.549,3.612c-2.02,1.691-4.277,2.876-6.889,3.315c-4.207,0.708-7.574-0.492-10.059-3.831
			c-2.756-3.704-3.284-7.785-1.845-12.163c0.723-2.202,1.716-4.329,2.591-6.488c0.395-0.976,0.807-1.947,1.198-2.925
			c0.709-1.777,0.727-3.608,0.626-5.447c-0.059-1.066-0.119-2.132-0.166-3.2c-0.177-4.008,1.517-7.181,4.843-9.636
			c2.552-1.884,5.396-2.982,8.546-3.297c3.661-0.367,6.734,0.701,9.186,3.27c0.726,0.761,1.455,1.523,2.12,2.333
			c1.686,2.054,3.802,3.505,6.344,4.458c2.332,0.874,4.648,1.798,6.906,2.827c2.517,1.148,4.636,2.799,6.095,5.135
			C261.129,108.245,261.441,108.903,261.786,109.54z"/>
		<path style="fill:#F5F5F5;" d="M220.23,82.782c0.793,2.025,1.168,4.253,0.415,6.727c-0.273,0.897-0.704,1.771-1.403,2.587
			c-1.519,1.773-3.512,2.619-5.875,2.671c-1.46,0.032-2.787-0.229-3.921-0.756c-5.496-2.553-8.12-6.647-7.769-12.268
			c0.052-0.84,0.375-1.751,0.777-2.602c1.315-2.783,4.32-4.365,7.653-4.085c2.445,0.205,4.326,1.126,5.952,2.347
			C217.904,78.788,219.312,80.609,220.23,82.782z"/>
		<path style="fill:#F5F5F5;" d="M239.656,72.442c0.88,3.496,0.791,6.729-1.01,10.02c-0.475,0.868-1.131,1.732-1.895,2.487
			c-2.362,2.335-5.63,2.863-8.372,1.425c-1.87-0.98-3.063-2.409-3.868-4.058c-1.626-3.332-1.831-6.877-0.389-10.637
			c0.527-1.374,1.336-2.67,2.564-3.821c2.365-2.217,5.554-2.754,8.234-1.386c1.857,0.948,3.036,2.346,3.872,3.952
			C239.181,71.171,239.455,71.965,239.656,72.442z"/>
		<path style="fill:#F5F5F5;" d="M194.775,108.46c-0.65-1.616-0.949-3.115-0.758-4.716c0.47-3.959,3.881-6.53,8.239-6.2
			c2.804,0.212,5.08,1.306,6.989,2.937c2.507,2.142,4.098,4.76,4.216,8.076c0.024,0.678-0.059,1.387-0.223,2.071
			c-0.73,3.051-3.408,5.095-6.844,5.265c-2.311,0.114-4.322-0.498-6.139-1.518C197.655,112.915,195.823,110.861,194.775,108.46z"/>
		<path style="fill:#F5F5F5;" d="M259.222,81.845c1.218,3.417,1.154,7.198-1.097,11.048c-0.807,1.38-1.911,2.564-3.418,3.416
			c-2.156,1.22-4.278,1.317-6.321,0.412c-1.933-0.856-3.185-2.305-3.989-4.055c-1.643-3.574-1.641-7.324,0.297-11.191
			c1.029-2.052,2.563-3.763,4.988-4.676c1.919-0.723,3.705-0.577,5.344,0.225C257.053,78.017,258.241,79.65,259.222,81.845z"/>
	</g>
	<g>
		<path style="fill:#F5F5F5;" d="M140.349,224.158c0.807,2.048,1.125,4.179,1.029,6.375c-0.149,3.42-2.021,5.97-4.73,8.032
			c-2.501,1.903-5.37,2.854-8.484,3.08c-2.877,0.209-5.733,0.576-8.56,1.233c-3.074,0.715-5.814,2.112-8.317,3.968
			c-1.745,1.294-3.428,2.672-5.087,4.072c-2.258,1.906-4.785,3.244-7.713,3.748c-4.716,0.812-8.498-0.519-11.299-4.253
			c-3.107-4.143-3.717-8.718-2.122-13.635c0.802-2.473,1.906-4.863,2.878-7.289c0.439-1.097,0.897-2.188,1.331-3.286
			c0.788-1.996,0.8-4.05,0.679-6.112c-0.07-1.196-0.143-2.391-0.2-3.588c-0.216-4.495,1.671-8.061,5.391-10.83
			c2.854-2.124,6.04-3.368,9.571-3.736c4.104-0.427,7.556,0.757,10.318,3.628c0.817,0.85,1.638,1.702,2.388,2.608
			c1.9,2.296,4.28,3.915,7.135,4.973c2.619,0.97,5.222,1.996,7.758,3.141c2.828,1.277,5.212,3.119,6.859,5.734
			C139.607,222.708,139.959,223.445,140.349,224.158z"/>
		<path style="fill:#F5F5F5;" d="M93.619,194.325c0.899,2.268,1.328,4.765,0.495,7.544c-0.302,1.007-0.782,1.989-1.563,2.908
			c-1.696,1.996-3.927,2.953-6.578,3.021c-1.637,0.042-3.127-0.245-4.401-0.831c-6.176-2.84-9.137-7.42-8.768-13.727
			c0.055-0.942,0.413-1.965,0.86-2.921c1.463-3.127,4.827-4.915,8.566-4.616c2.743,0.22,4.858,1.244,6.687,2.607
			C90.994,189.856,92.58,191.892,93.619,194.325z"/>
		<path style="fill:#F5F5F5;" d="M115.365,182.642c1.002,3.918,0.916,7.544-1.089,11.243c-0.529,0.976-1.261,1.948-2.115,2.798
			c-2.64,2.63-6.302,3.236-9.385,1.634c-2.101-1.092-3.447-2.689-4.356-4.535c-1.838-3.73-2.084-7.706-0.483-11.93
			c0.585-1.543,1.487-3.001,2.859-4.297c2.643-2.497,6.218-3.114,9.23-1.59c2.087,1.055,3.415,2.619,4.36,4.416
			C114.826,181.218,115.137,182.108,115.365,182.642z"/>
		<path style="fill:#F5F5F5;" d="M65.179,223.238c-0.736-1.81-1.078-3.49-0.871-5.287c0.51-4.442,4.325-7.342,9.215-6.99
			c3.146,0.226,5.704,1.442,7.853,3.263c2.822,2.391,4.618,5.321,4.764,9.04c0.03,0.761-0.06,1.557-0.241,2.324
			c-0.806,3.425-3.8,5.73-7.653,5.936c-2.591,0.138-4.851-0.54-6.893-1.676C68.429,228.223,66.366,225.927,65.179,223.238z"/>
		<path style="fill:#F5F5F5;" d="M137.352,193.104c1.381,3.827,1.326,8.069-1.183,12.397c-0.899,1.552-2.133,2.885-3.819,3.847
			c-2.414,1.378-4.793,1.496-7.088,0.49c-2.172-0.952-3.583-2.571-4.492-4.531c-1.858-4.002-1.873-8.208,0.284-12.554
			c1.145-2.306,2.859-4.232,5.575-5.267c2.149-0.819,4.153-0.664,5.996,0.229C134.903,188.82,136.242,190.647,137.352,193.104z"/>
	</g>
	<g>
		<path style="fill:#EBEBEB;" d="M135.906,135.995c-0.639,2.482-1.797,4.708-3.388,6.713c-2.478,3.122-5.987,4.245-9.95,4.336
			c-3.658,0.084-7.013-0.981-10.103-2.897c-2.855-1.77-5.798-3.376-8.912-4.69c-3.387-1.428-6.924-1.984-10.552-1.945
			c-2.529,0.027-5.058,0.175-7.578,0.36c-3.431,0.252-6.729-0.214-9.832-1.74c-5-2.459-7.656-6.299-7.743-11.734
			c-0.096-6.03,2.456-10.758,7.322-14.303c2.446-1.783,5.121-3.28,7.696-4.903c1.164-0.734,2.341-1.449,3.501-2.188
			c2.107-1.343,3.523-3.27,4.819-5.297c0.751-1.175,1.501-2.352,2.265-3.519c2.87-4.385,7.086-6.456,12.485-6.522
			c4.143-0.051,7.996,0.955,11.576,3.022c4.161,2.403,6.605,5.879,7.245,10.474c0.189,1.36,0.381,2.725,0.468,4.091
			c0.221,3.463,1.358,6.617,3.326,9.565c1.805,2.705,3.557,5.451,5.165,8.265c1.793,3.137,2.78,6.504,2.545,10.094
			C136.199,134.12,136.027,135.055,135.906,135.995z"/>
		<path style="fill:#EBEBEB;" d="M112.258,75.927c-0.703,2.752-2.006,5.399-4.691,7.449c-0.973,0.743-2.097,1.34-3.461,1.672
			c-2.963,0.722-5.721,0.098-8.266-1.65c-1.572-1.079-2.78-2.369-3.58-3.792c-3.88-6.899-3.539-13.241,1.121-18.933
			c0.696-0.85,1.733-1.571,2.808-2.166c3.517-1.947,7.91-1.333,11.23,1.506c2.435,2.082,3.729,4.494,4.521,7.029
			C112.838,69.919,112.941,72.923,112.258,75.927z"/>
		<path style="fill:#EBEBEB;" d="M140.741,79.782c-1.734,4.378-4.294,7.737-8.714,9.853c-1.166,0.558-2.52,0.974-3.906,1.192
			c-4.286,0.674-8.153-1.259-9.963-4.876c-1.234-2.466-1.41-4.891-1.006-7.252c0.818-4.772,3.304-8.689,7.701-11.574
			c1.606-1.055,3.453-1.812,5.633-2.096c4.198-0.547,7.989,1.316,9.787,4.811c1.246,2.422,1.429,4.803,1.09,7.144
			C141.206,78.071,140.891,79.122,140.741,79.782z"/>
		<path style="fill:#EBEBEB;" d="M65.683,83.736c0.544-2.21,1.37-4.026,2.793-5.579c3.518-3.838,9.096-3.963,13.465-0.289
			c2.811,2.364,4.39,5.259,5.171,8.445c1.025,4.183,0.715,8.172-1.69,11.778c-0.492,0.737-1.121,1.426-1.815,2.026
			c-3.101,2.678-7.5,2.803-11.272,0.362c-2.537-1.641-4.203-3.825-5.352-6.292C65.338,90.656,64.963,87.082,65.683,83.736z"/>
		<path style="fill:#EBEBEB;" d="M154.313,104.676c-1.315,4.551-4.267,8.512-9.591,10.877c-1.908,0.848-3.982,1.261-6.23,1.015
			c-3.217-0.352-5.54-1.867-7.016-4.384c-1.396-2.382-1.619-4.873-1.137-7.342c0.985-5.042,3.846-9.017,8.85-11.638
			c2.656-1.391,5.588-2.035,8.856-1.153c2.586,0.698,4.369,2.214,5.495,4.315C154.934,98.963,154.947,101.6,154.313,104.676z"/>
	</g>
</g>
<g id="Background_Simple" style="display:none;">
	<path style="display:inline;fill:#F5F5F5;" d="M58.559,223.351l1.752,1.881c14.773,15.853,36.945,22.656,57.651,16.972
		c2.662-0.731,5.272-1.653,7.803-2.771c18.229-8.045,31.834-25.917,34.878-45.822c1.79-11.706,0.324-24.452,6.212-34.671
		c7.663-13.3,24.557-17.175,39.571-19.807c15.014-2.632,31.91-6.554,39.515-19.888c4.763-8.351,4.659-18.798,2.194-28.146
		c-6.525-24.748-28.608-43.502-53.092-50.02c-24.484-6.517-50.8-2.092-74.054,7.839c-32.576,13.913-61.001,39.447-74.4,72.553
		C33.19,154.577,36.495,195.203,58.559,223.351z"/>
	<circle style="display:inline;fill:#F5F5F5;" cx="404.242" cy="88.454" r="35.951"/>
</g>
<g id="Desk">
	<g>
		<path style="fill:#263238;" d="M470.201,456.786c0,0.144-98.595,0.261-220.191,0.261c-121.638,0-220.212-0.117-220.212-0.261
			c0-0.144,98.574-0.26,220.212-0.26C371.606,456.526,470.201,456.643,470.201,456.786z"/>
	</g>
</g>
<g id="Paw_2">
	<g>
		<path style="fill:#455A64;" d="M218.452,357.322c-1.825-3.609-4.19-5.627-4.19-5.627s-0.778-9.095-4.384-14.462
			c-3.606-5.366-8.989-9.717-15.474-5.611l0.869-0.498c-3.274-2.516-8.536-2.781-12.422-1.393c-1.82,0.65-3.708,1.604-5.308,3.004
			c-4.929,4.314-7.495,8.813-7.495,8.813s-6.334,0.4-8.847,10.409c-1.913,7.619-3.202,18.861-3.202,18.861
			s0.751,18.352,1.843,23.886c1.092,5.534-2.478,17.209-2.678,19.552c-0.201,2.343-1.312,4.135-2.887,13.376
			c-1.575,9.241-4.348,28.909-4.348,28.909l56.418,0c0,0,1.417-25.572,1.273-28.37s0.652-13.558,2.204-20.029
			c1.552-6.471,7.592-26.874,7.592-26.874C219.625,371.743,220.276,360.931,218.452,357.322z"/>
		<g style="opacity:0.3;">
			<path d="M174.577,353.267l-7.143-0.358c-2.397,1.862-4.223,4.449-5.174,7.33c-0.362,1.097-0.584,2.357-0.014,3.362
				c0.738,1.3,2.451,1.618,3.945,1.663c2.267,0.068,4.593-0.189,6.632-1.18c2.04-0.991,3.763-2.8,4.252-5.014
				C177.565,356.857,176.601,354.291,174.577,353.267z"/>
		</g>
		<g style="opacity:0.3;">
			<path d="M208.142,347.055l-2.502-2.002c-2.863-0.405-5.727-0.809-8.59-1.214c-0.687-0.097-1.41-0.191-2.057,0.06
				c-0.817,0.315-1.347,1.122-1.633,1.949c-0.793,2.291-0.007,4.974,1.715,6.681c1.722,1.706,4.254,2.47,6.672,2.288
				c1.943-0.146,3.888-0.904,5.203-2.342C208.263,351.037,208.841,348.874,208.142,347.055z"/>
		</g>
		<path style="fill:#263238;" d="M201.209,333.538c1.159-0.158,2.338,0.145,3.342,0.746c1.832,1.096,4.935,3.427,4.87,6.611
			c-0.092,4.512-0.217,9.79-5.576,10.999c-5.359,1.21-11.953-2.511-9.103-10.216C196.957,335.686,198.934,333.849,201.209,333.538z"
			/>
		<g style="opacity:0.3;">
			<path d="M189.616,343.725l-3.69-4.436c-1.208-0.229-2.429-0.46-3.656-0.399c-1.228,0.061-2.481,0.442-3.371,1.289
				c-0.977,0.93-1.407,2.315-1.48,3.662c-0.142,2.609,1.027,5.31,3.173,6.799c2.147,1.489,5.235,1.591,7.349,0.056
				C190.055,349.159,190.887,346.008,189.616,343.725z"/>
		</g>
		<path style="fill:#263238;" d="M186.991,331.178c1.865-0.781,4.074-0.455,5.488,0.99c0.238,0.243,0.414,0.491,0.477,0.729
			c0.293,1.109-0.404,9.758-4.915,14.194c-4.51,4.436-10.505-1.109-10.023-5.652C178.411,337.743,182.686,332.982,186.991,331.178z"
			/>
		<path style="fill:#263238;" d="M171.654,345.341c0,0-3.023-3.085-5.975,2.386c-2.952,5.472-4.038,13.572-0.855,14.113
			c3.184,0.541,10.396-1.221,10.671-5.606C175.77,351.849,173.416,346.314,171.654,345.341z"/>
		<g style="opacity:0.3;">
			<path d="M211.573,363.14c-1.876-1.448-3.839-2.782-5.876-3.993c-0.482-0.287-0.994-0.574-1.554-0.593
				c-1.248-0.042-2.131,1.222-2.518,2.409c-0.752,2.305-0.548,4.938,0.692,7.021c1.239,2.084,3.533,3.543,5.956,3.629
				c2.423,0.085,4.878-1.279,5.953-3.452L211.573,363.14z"/>
		</g>
		<path style="fill:#263238;" d="M217.938,361.195c0.188-6.148-6.971-10.031-12.045-6.555c-0.214,0.147-0.422,0.307-0.622,0.482
			c-2.98,2.613-3.553,7.874-0.938,10.631c2.615,2.756,8.237,7.66,12.162,0.427C217.477,364.372,217.892,362.698,217.938,361.195z"/>
		<g style="opacity:0.3;">
			<path d="M187.696,378.734c-4.651-1.35-9.777-0.991-14.194,0.992c-1.303,0.585-2.602,1.362-3.318,2.597
				c-1.476,2.546,0.28,5.993,2.901,7.331c2.621,1.338,5.737,1.129,8.659,0.777c2.922-0.351,5.957-0.804,8.75,0.125
				c1.637,0.544,3.082,1.531,4.594,2.36c1.512,0.828,3.189,1.52,4.908,1.384c1.719-0.136,3.456-1.324,3.714-3.029L187.696,378.734z"
				/>
		</g>
		<path style="fill:#263238;" d="M207.245,378.452c-1.082-2.169-2.833-3.935-4.927-5.156c-1.999-1.165-5.058-3.266-6.636-5.954
			c-2.466-4.201-1.901-7.383-6.865-7.648c-4.965-0.265-4.629,4.061-10.684,6.042c-9.69,3.172-11.815,5.508-12.74,9.783
			c-0.924,4.275,0.074,6.371,2.486,9.189c2.412,2.818,10.466-1.499,16.907-1.272c6.441,0.226,11.322,6.932,15.236,8.849
			c3.913,1.917,7.699-2.031,8.316-8.126C208.564,381.913,208.013,379.991,207.245,378.452z"/>
		<path style="fill:#263238;" d="M183.575,441.288c2.193-0.368,4.695-0.952,5.708-2.931c0.755-1.474,0.394-3.308-0.425-4.748
			c-1.894-3.33-5.981-5.002-9.805-4.776c-1.944,0.115-3.9,0.678-5.45,1.857c-1.55,1.179-2.649,3.022-2.678,4.97
			c-0.021,1.413,0.613,2.919,1.873,3.557c1.081,0.547,2.364,0.368,3.575,0.358c2.132-0.017,4.265,0.546,6.111,1.614"/>
		<g>
			<path style="fill:#263238;" d="M170.787,409.217c-0.003-0.027,0.441-0.093,1.266-0.218c0.824-0.132,2.03-0.336,3.537-0.696
				c3.003-0.716,7.254-2.107,11.721-4.883l1.129-0.702l-0.827,1.043c-1.374,1.733-2.851,3.596-4.405,5.556
				c-0.167,0.234-0.311,0.498-0.347,0.74c-0.039,0.236,0.066,0.416,0.264,0.493c0.436,0.145,1.121-0.144,1.723-0.313
				c1.232-0.393,2.448-0.921,3.613-1.576c1.342-0.752,2.57-1.652,3.632-2.623l1.251-1.144l-0.854,1.464
				c-0.993,1.701-1.776,3.459-2.345,5.209c-0.286,0.874-0.521,1.746-0.709,2.607c-0.168,0.863-0.392,1.718-0.319,2.501
				c0.035,0.39,0.155,0.763,0.393,0.996c0.239,0.237,0.589,0.319,0.927,0.243c0.697-0.155,1.287-0.709,1.88-1.145
				c1.171-0.915,2.22-1.813,3.143-2.664c1.845-1.705,3.205-3.202,4.115-4.253c0.424-0.498,0.767-0.9,1.037-1.217
				c0.235-0.279,0.365-0.42,0.378-0.41c0.013,0.01-0.091,0.171-0.302,0.469c-0.212,0.298-0.533,0.732-0.97,1.277
				c-0.869,1.092-2.196,2.633-4.023,4.384c-0.914,0.874-1.958,1.794-3.127,2.733c-0.594,0.437-1.159,1.028-2.042,1.25
				c-0.436,0.107-0.974,0.003-1.326-0.347c-0.357-0.348-0.493-0.827-0.538-1.27c-0.085-0.914,0.147-1.772,0.307-2.647
				c0.186-0.878,0.42-1.767,0.706-2.659c0.57-1.785,1.361-3.58,2.37-5.317l0.397,0.32c-1.088,1-2.348,1.925-3.726,2.697
				c-1.197,0.672-2.445,1.213-3.711,1.614c-0.316,0.104-0.633,0.19-0.952,0.279c-0.331,0.078-0.697,0.162-1.107,0.022
				c-0.427-0.132-0.679-0.655-0.589-1.045c0.065-0.389,0.248-0.688,0.441-0.962c1.571-1.958,3.065-3.819,4.454-5.549l0.302,0.341
				c-4.545,2.773-8.862,4.113-11.904,4.757c-1.527,0.324-2.746,0.486-3.579,0.573c-0.417,0.045-0.738,0.061-0.954,0.075
				C170.9,409.229,170.788,409.229,170.787,409.217z"/>
		</g>
	</g>
</g>
<g id="Paw_1">
	<g>
		<path style="fill:#FF725E;" d="M110.948,312.071c0,0,3.187,1.98,6.054,6.023c2.868,4.043,4.262,17.425,3.565,29.553
			c0,0-3.031,26.256-3.565,34.508c-0.534,8.252,0.68,21.602,1.408,25c0.728,3.398,3.688,49.275,3.688,49.275H56.264
			c0,0-0.731-27.188-0.724-38.838c0.007-11.65,0.956-14.078,0.724-16.99c-0.232-2.913,1.636-17.961-0.754-24.514
			c-2.39-6.553-6.94-28.883-6.94-28.883s-2.929-14.502,0-23.777c2.929-9.275,4.55-6.077,4.55-6.077s5.9-14.563,10.838-20.873
			c1.603-2.048,3.633-3.61,5.645-4.785c4.295-2.508,9.615-2.487,13.971-0.085l0,0c6.81-6.38,14.013-2.169,19.327,3.657
			C108.216,301.088,110.948,312.071,110.948,312.071z"/>
		<g style="opacity:0.3;">
			<path d="M62.188,322.252c2.692,0.833,4.408,3.777,4.269,6.592c-0.139,2.815-1.874,5.39-4.167,7.028
				c-2.293,1.638-5.089,2.438-7.881,2.826c-1.84,0.256-4.006,0.222-5.18-1.218c-0.907-1.112-0.897-2.703-0.682-4.122
				c0.566-3.729,2.265-7.278,4.815-10.058"/>
		</g>
		<g style="opacity:0.3;">
			<path d="M102.022,307.659c1.234,2.083,0.976,4.853-0.335,6.889c-1.311,2.035-3.537,3.369-5.887,3.952
				c-2.925,0.725-6.186,0.317-8.652-1.416c-2.465-1.733-3.986-4.857-3.491-7.829c0.179-1.073,0.661-2.172,1.596-2.728
				c0.741-0.441,1.646-0.477,2.509-0.501c3.593-0.1,7.185-0.2,10.778-0.299"/>
		</g>
		<path style="fill:#263238;" d="M93.217,292.172c0,0,8.263,2.125,9.089,7.673c0.826,5.548,1.771,12.04-4.544,14.637
			c-6.315,2.597-15.168-0.59-13.279-10.624C86.371,293.825,89.204,292.29,93.217,292.172z"/>
		<g style="opacity:0.3;">
			<path d="M78.629,307.432c2.032,2.533,1.668,6.568-0.603,8.889c-2.271,2.321-6.076,2.839-9.017,1.46
				c-2.94-1.378-4.934-4.445-5.303-7.671c-0.19-1.665,0.049-3.452,1.052-4.794c0.914-1.224,2.371-1.951,3.863-2.281
				c1.492-0.33,3.036-0.301,4.563-0.271"/>
		</g>
		<path style="fill:#263238;" d="M76.22,291.11c0,0,3.659,1.062,4.249,2.361c0.59,1.298,1.535,12.04-3.069,18.414
			c-4.604,6.374-13.102,0.826-13.456-4.84C63.59,301.379,70.082,292.526,76.22,291.11z"/>
		<path style="fill:#263238;" d="M54.973,312.475c0,0-2.361-2.479-4.84,4.84c-2.479,7.318-2.125,17.47,1.889,17.47
			c4.013,0,12.484-3.659,11.908-9.089C63.354,320.266,57.334,313.301,54.973,312.475z"/>
		<g style="opacity:0.3;">
			<path d="M113.867,332.254c-0.866,2.886-3.59,5.068-6.576,5.468c-2.986,0.4-6.101-0.912-8.053-3.207
				c-1.952-2.295-2.75-5.478-2.308-8.459c0.228-1.535,1.046-3.267,2.584-3.476c0.691-0.094,1.378,0.152,2.028,0.403
				c2.747,1.06,5.431,2.286,8.03,3.67"/>
		</g>
		<path style="fill:#263238;" d="M110.097,314.128c1.062-0.118,9.443,5.548,6.138,15.227c-3.305,9.679-11.214,4.84-14.991,2.007
			c-3.777-2.833-4.485-9.679-1.062-13.22C103.605,314.6,110.097,314.128,110.097,314.128z"/>
		<g style="opacity:0.3;">
			<path d="M62.848,358.767c0.621-1.663,2.051-2.884,3.526-3.872c5-3.349,11.206-4.855,17.185-4.168l22.229,12.03
				c0.038,2.143-1.842,3.96-3.921,4.485c-2.078,0.525-4.276,0.026-6.301-0.675c-2.026-0.701-4.002-1.61-6.12-1.936
				c-3.615-0.556-7.24,0.629-10.747,1.667c-3.507,1.039-7.281,1.943-10.771,0.849C64.438,366.052,61.569,362.194,62.848,358.767z"/>
		</g>
		<path style="fill:#263238;" d="M102.901,341.867c0.59,0.708,6.606,4.216,7.078,11.214c0.512,7.596-3.305,13.22-8.499,11.686
			c-5.194-1.534-12.57-8.735-20.508-7.672c-7.939,1.062-16.91,8.027-20.451,5.076c-3.541-2.951-5.201-5.312-4.958-10.742
			c0.243-5.43,2.361-8.735,13.574-14.637c7.007-3.688,5.696-8.918,11.834-9.626c6.138-0.708,6.108,3.308,10.003,7.943
			C94.87,339.742,102.901,341.867,102.901,341.867z"/>
		<g>
			<path style="fill:#E0E0E0;" d="M111.294,313.658c0.736-2.309-0.161-5.848-1.588-8.212c-0.364-0.604-1.248-0.551-1.537,0.092
				c-1.05,2.333-1.569,5.791-1.196,8.323"/>
			<g>
				<path style="fill:#263238;" d="M106.973,313.862c-0.057,0.014-0.335-1.044-0.271-2.784c0.031-0.867,0.14-1.899,0.389-3.023
					c0.126-0.561,0.284-1.146,0.492-1.74c0.106-0.298,0.222-0.592,0.357-0.897c0.163-0.378,0.574-0.653,0.999-0.653
					c0.424-0.023,0.849,0.26,1.018,0.599c0.166,0.281,0.317,0.565,0.455,0.848c0.274,0.567,0.497,1.132,0.68,1.679
					c0.357,1.098,0.551,2.126,0.603,2.999c0.129,1.762-0.354,2.802-0.402,2.769c-0.086-0.021,0.253-1.05,0.035-2.735
					c-0.096-0.838-0.321-1.824-0.69-2.878c-0.19-0.525-0.414-1.066-0.684-1.609c-0.136-0.271-0.283-0.54-0.443-0.808
					c-0.124-0.23-0.325-0.344-0.563-0.344c-0.234,0.003-0.447,0.14-0.54,0.352c-0.125,0.278-0.242,0.567-0.346,0.85
					c-0.207,0.57-0.37,1.134-0.505,1.677c-0.267,1.088-0.412,2.091-0.488,2.937C106.913,312.795,107.057,313.85,106.973,313.862z"/>
			</g>
		</g>
		<g>
			<path style="fill:#263238;" d="M108.792,305.693c0.111-0.07,1.018,1.515,1.174,3.715c0.175,2.199-0.485,3.902-0.606,3.849
				c-0.153-0.038,0.255-1.722,0.086-3.81C109.302,307.357,108.647,305.754,108.792,305.693z"/>
		</g>
		<g>
			<path style="fill:#E0E0E0;" d="M91.937,292.659c0.736-2.309-0.161-5.848-1.588-8.212c-0.364-0.604-1.248-0.551-1.537,0.092
				c-1.05,2.333-1.569,5.791-1.196,8.323"/>
			<g>
				<path style="fill:#263238;" d="M87.616,292.863c-0.057,0.014-0.335-1.043-0.27-2.784c0.031-0.867,0.14-1.899,0.389-3.023
					c0.126-0.561,0.284-1.146,0.492-1.74c0.106-0.298,0.222-0.592,0.357-0.897c0.163-0.378,0.574-0.653,0.999-0.653
					c0.424-0.023,0.849,0.261,1.018,0.599c0.166,0.282,0.317,0.565,0.455,0.848c0.274,0.567,0.496,1.132,0.68,1.679
					c0.357,1.098,0.551,2.126,0.603,2.999c0.129,1.762-0.354,2.802-0.402,2.769c-0.086-0.021,0.253-1.05,0.035-2.735
					c-0.096-0.838-0.32-1.824-0.69-2.877c-0.19-0.525-0.414-1.066-0.684-1.609c-0.136-0.271-0.283-0.54-0.443-0.808
					c-0.124-0.23-0.325-0.344-0.563-0.344c-0.234,0.003-0.447,0.141-0.54,0.352c-0.125,0.278-0.242,0.567-0.346,0.85
					c-0.207,0.57-0.37,1.134-0.505,1.677c-0.267,1.088-0.412,2.091-0.488,2.937C87.556,291.796,87.7,292.851,87.616,292.863z"/>
			</g>
		</g>
		<g>
			<path style="fill:#263238;" d="M89.436,284.694c0.111-0.07,1.018,1.515,1.175,3.715c0.175,2.199-0.485,3.902-0.606,3.849
				c-0.153-0.038,0.255-1.722,0.086-3.81C89.946,286.359,89.29,284.755,89.436,284.694z"/>
		</g>
		<g>
			<path style="fill:#E0E0E0;" d="M79.985,291.883c0.736-2.309-0.161-5.848-1.588-8.212c-0.364-0.604-1.248-0.551-1.537,0.092
				c-1.05,2.333-1.569,5.791-1.196,8.323"/>
			<g>
				<path style="fill:#263238;" d="M75.664,292.087c-0.057,0.014-0.335-1.044-0.271-2.784c0.031-0.867,0.14-1.899,0.389-3.023
					c0.126-0.561,0.284-1.146,0.492-1.74c0.106-0.298,0.222-0.592,0.357-0.897c0.163-0.378,0.574-0.653,0.999-0.653
					c0.424-0.023,0.849,0.261,1.018,0.599c0.165,0.282,0.317,0.565,0.455,0.848c0.274,0.567,0.497,1.132,0.68,1.679
					c0.357,1.098,0.551,2.126,0.603,2.999c0.129,1.762-0.354,2.802-0.402,2.769c-0.086-0.021,0.253-1.05,0.035-2.735
					c-0.096-0.838-0.321-1.824-0.69-2.878c-0.19-0.525-0.414-1.066-0.684-1.609c-0.136-0.271-0.283-0.54-0.443-0.808
					c-0.124-0.23-0.325-0.344-0.563-0.343c-0.234,0.003-0.447,0.14-0.54,0.352c-0.125,0.278-0.242,0.567-0.346,0.85
					c-0.207,0.57-0.37,1.134-0.505,1.677c-0.267,1.088-0.412,2.091-0.488,2.937C75.604,291.02,75.748,292.075,75.664,292.087z"/>
			</g>
		</g>
		<g>
			<path style="fill:#263238;" d="M77.483,283.918c0.111-0.07,1.018,1.515,1.175,3.715c0.175,2.199-0.486,3.902-0.606,3.849
				c-0.153-0.038,0.255-1.722,0.086-3.81C77.993,285.582,77.338,283.979,77.483,283.918z"/>
		</g>
		<g>
			<path style="fill:#E0E0E0;" d="M59.951,313.031c0.736-2.309-0.161-5.848-1.588-8.212c-0.364-0.604-1.248-0.551-1.537,0.092
				c-1.05,2.333-1.569,5.791-1.196,8.323"/>
			<g>
				<path style="fill:#263238;" d="M55.63,313.234c-0.057,0.014-0.335-1.044-0.27-2.784c0.031-0.867,0.14-1.899,0.389-3.023
					c0.126-0.561,0.284-1.146,0.492-1.74c0.106-0.298,0.222-0.592,0.357-0.897c0.163-0.378,0.574-0.653,0.999-0.653
					c0.424-0.023,0.849,0.261,1.018,0.599c0.166,0.281,0.317,0.565,0.455,0.848c0.274,0.567,0.497,1.132,0.68,1.679
					c0.357,1.098,0.551,2.126,0.603,2.999c0.129,1.762-0.354,2.802-0.402,2.769c-0.086-0.021,0.252-1.05,0.035-2.735
					c-0.096-0.838-0.32-1.824-0.69-2.878c-0.19-0.525-0.414-1.066-0.684-1.609c-0.136-0.271-0.283-0.54-0.443-0.808
					c-0.125-0.23-0.325-0.344-0.563-0.344c-0.234,0.003-0.447,0.14-0.54,0.352c-0.125,0.278-0.242,0.567-0.346,0.85
					c-0.207,0.57-0.37,1.134-0.505,1.677c-0.267,1.088-0.412,2.091-0.488,2.937C55.57,312.168,55.715,313.223,55.63,313.234z"/>
			</g>
		</g>
		<g>
			<path style="fill:#263238;" d="M57.45,305.065c0.111-0.07,1.018,1.515,1.175,3.715c0.175,2.199-0.485,3.902-0.606,3.849
				c-0.153-0.038,0.255-1.722,0.086-3.81C57.96,306.73,57.305,305.126,57.45,305.065z"/>
		</g>
		<path style="fill:#263238;" d="M91.522,428.23c2.61-0.907,5.554-2.143,6.384-4.778c0.618-1.964-0.206-4.135-1.509-5.729
			c-3.013-3.686-8.369-4.885-13.008-3.812c-2.358,0.545-4.638,1.642-6.292,3.409c-1.654,1.768-2.616,4.254-2.247,6.646
			c0.268,1.735,1.358,3.449,3.035,3.968c1.438,0.445,2.973-0.041,4.455-0.305c2.608-0.464,5.34-0.218,7.823,0.707"/>
		<g>
			<path style="fill:#263238;" d="M69.182,391.595c-0.003-0.012,0.127-0.062,0.382-0.148c0.294-0.095,0.666-0.216,1.129-0.366
				c0.984-0.327,2.422-0.824,4.196-1.575c3.537-1.494,8.465-4.077,13.37-8.409l0.996-0.879l-0.641,1.165
				c-1.324,2.407-2.749,4.999-4.248,7.725c-0.159,0.327-0.283,0.685-0.278,1.007c-0.002,0.317,0.188,0.554,0.476,0.609
				c0.614,0.088,1.379-0.416,2.087-0.748c1.432-0.739,2.815-1.641,4.111-2.689c1.492-1.204,2.813-2.566,3.915-3.98l1.042-1.337
				l-0.597,1.587c-0.864,2.296-1.458,4.617-1.79,6.883c-0.168,1.133-0.275,2.252-0.326,3.348c-0.025,1.093-0.123,2.189,0.133,3.148
				c0.126,0.476,0.354,0.921,0.712,1.168c0.357,0.252,0.826,0.279,1.236,0.109c0.843-0.347,1.446-1.152,2.083-1.809
				c1.243-1.368,2.341-2.688,3.294-3.926c1.903-2.478,3.253-4.6,4.143-6.081c0.42-0.713,0.755-1.282,1.008-1.712
				c0.227-0.393,0.353-0.594,0.367-0.587c0.015,0.008-0.083,0.224-0.283,0.632c-0.2,0.408-0.508,1.004-0.932,1.76
				c-0.843,1.515-2.153,3.674-4.031,6.195c-0.94,1.259-2.028,2.6-3.266,3.991c-0.637,0.659-1.21,1.496-2.225,1.94
				c-0.501,0.217-1.159,0.2-1.647-0.145c-0.493-0.34-0.755-0.887-0.901-1.414c-0.291-1.086-0.185-2.186-0.17-3.29
				c0.046-1.112,0.148-2.248,0.314-3.398c0.327-2.302,0.923-4.66,1.796-6.994l0.445,0.249c-1.123,1.447-2.471,2.839-3.995,4.069
				c-1.323,1.07-2.737,1.99-4.2,2.743c-0.365,0.192-0.734,0.364-1.105,0.539c-0.384,0.164-0.809,0.336-1.315,0.253
				c-0.522-0.071-0.915-0.622-0.889-1.099c-0.001-0.472,0.156-0.872,0.333-1.242c1.516-2.726,2.958-5.318,4.297-7.726l0.355,0.285
				c-4.982,4.342-9.985,6.887-13.571,8.316c-1.8,0.718-3.257,1.176-4.258,1.46c-0.5,0.144-0.89,0.233-1.151,0.298
				C69.322,391.58,69.185,391.607,69.182,391.595z"/>
		</g>
	</g>
</g>
<g id="Dog">
	<g>
		<g>
			<path style="fill:#FF725E;" d="M453.407,415.721l-28.186-73.182l-6.079,17.363l-51.061-111.086l-26.313-54.714l-48.085-20.961
				l-54.714,19.323c0,0-13.813,37.009-15.471,45.852c-1.658,8.843,4.422,38.134,4.422,38.134l15.474,37.029l9.83,53.265
				c0,0-3.753,29.088-3.224,44.036c0.529,14.948,7.529,45.762,7.529,45.762H462.25L453.407,415.721z"/>
			<g style="opacity:0.5;">
				<path style="fill:#FFFFFF;" d="M386.076,436.445c0.308-29.161-5.929-50.905-14.089-72.645c-0.888-2.365-3.158-4.201-5.591-4.879
					c-4.602-1.281-8.622,3.077-11.757,6.681c-3.136,3.604-8.486,7.079-12.258,4.147c-4.191-3.258-1.121-9.894,2.147-14.077
					c6.318-8.085,12.68-16.347,16.414-25.904c3.734-9.557,7.52-20.752,2.774-29.849c-10.111,13.238-24.676,24.767-49.282,32.553
					c-20.886,6.743-44.792,5.06-62.563,0.026c12.961,7.41,25.055,18.354,35.956,28.556c4.243,3.971,8.65,9.664,6.388,15.017
					c-1.691,4.004-6.443,5.724-10.764,6.191c-4.321,0.467-8.86,0.16-12.818,1.956c-6.958,3.157-9.72,11.732-9.679,19.373
					c0.095,17.597,6.257,40.353,19.16,52.948h105.262C386.63,450.06,386.033,440.526,386.076,436.445z"/>
			</g>
			<g>
				<path style="fill:#263238;" d="M362.635,309.303c0.007,0.016-0.134,0.102-0.41,0.249c-0.332,0.17-0.733,0.375-1.215,0.622
					c-0.532,0.259-1.18,0.583-1.912,0.995c-0.735,0.407-1.59,0.837-2.489,1.394c-1.833,1.053-3.943,2.429-6.205,4.066
					c-2.241,1.665-4.622,3.609-6.965,5.822c-2.326,2.232-4.385,4.515-6.159,6.672c-1.747,2.179-3.224,4.22-4.366,5.998
					c-0.601,0.871-1.072,1.703-1.514,2.418c-0.448,0.712-0.803,1.342-1.087,1.861c-0.27,0.469-0.495,0.859-0.68,1.183
					c-0.161,0.268-0.253,0.405-0.269,0.397c-0.016-0.008,0.045-0.161,0.176-0.444c0.163-0.336,0.359-0.742,0.595-1.231
					c0.258-0.535,0.589-1.182,1.014-1.911c0.42-0.732,0.872-1.582,1.456-2.47c1.108-1.814,2.564-3.89,4.303-6.101
					c1.765-2.189,3.829-4.499,6.173-6.749c2.361-2.23,4.769-4.178,7.042-5.833c2.293-1.628,4.438-2.98,6.304-3.998
					c0.916-0.54,1.787-0.949,2.539-1.333c0.749-0.389,1.412-0.688,1.959-0.919c0.5-0.212,0.915-0.388,1.259-0.534
					C362.472,309.34,362.628,309.286,362.635,309.303z"/>
			</g>
		</g>
		<g>
			<path style="fill:#FF725E;" d="M381.33,235.863c-8.156-24.288-29.407-33.592-29.407-33.592s-3.702-5.569-15.501-16.557
				c-11.798-10.989-33.467-18.597-49.259-20.114c-0.629-0.06-1.274-0.098-1.933-0.116c-15.892-0.418-39.903,11.201-39.903,11.201
				c-15.264,4.225-35.183,33.074-39,44.459c-3.818,11.385-1.406,32.69-1.406,32.69s-8.279,18.875-3.094,37.283
				c9.134,32.432,65.145,58.442,119.946,37.532S389.486,260.151,381.33,235.863z"/>
			<g style="opacity:0.5;">
				<path style="fill:#FFFFFF;" d="M321.353,330.228c21.377-7.961,43.335-26.485,52.624-43.542c3.3-12.49,6.997-26.564,6.997-26.564
					l-15.452-48.429c-2.475-2.28-4.86-4.11-6.927-5.527c-5.338,0.83-10.322,4.567-13.448,9.158
					c-4.132,6.071-5.821,13.415-7.95,20.443c-2.129,7.028-5.007,14.24-10.71,18.868c-6.121,4.968-16.3,3.823-24.156,3.168
					c0.762,7.174,3.269,16.65,4.031,23.824c-4.865,1.478-9.73,2.956-14.595,4.434c-4.869-6.627-8.576-14.106-10.903-21.993
					c-3.06,3.666-6.162,7.372-10.017,10.19c-3.856,2.818-8.604,4.703-13.356,4.221c-6.657-0.675-11.925-5.664-17.768-8.924
					c-8.504-4.744-18.952-5.868-28.27-3.042c-4.125,1.251-8.002,3.273-11.43,5.886c-0.234,5.151,0.287,11.353,1.801,18.716
					c3.61,17.556,22.638,33.089,44.706,39.806C266.861,337.11,294.922,340.071,321.353,330.228z"/>
			</g>
			<path style="fill:#263238;" d="M305.742,277.649c-3.764,0.141-7.561,0.72-11.006,2.243c-3.445,1.523-6.53,4.057-8.227,7.42
				c-0.825,1.635-1.313,3.523-0.902,5.307c0.799,3.467,4.501,5.303,7.788,6.668c3.401,1.413,7.099,2.853,10.672,1.958
				c2.692-0.674,4.89-2.588,6.793-4.608c2.56-2.717,4.892-5.992,5.056-9.722C316.082,283.186,314.353,277.581,305.742,277.649"/>
			<g>
				<path style="fill:#263238;" d="M304.536,298.641c0.033-0.01,0.255,0.557,0.607,1.603c0.343,1.046,0.847,2.571,1.166,4.535
					c0.308,1.943,0.378,4.431-0.656,6.913c-0.513,1.227-1.336,2.431-2.5,3.329c-1.156,0.905-2.585,1.488-4.079,1.807
					c-3.007,0.618-5.958,0.351-8.512-0.25c-2.56-0.631-4.727-1.656-6.398-2.726c-1.682-1.06-2.877-2.151-3.64-2.949
					c-0.395-0.388-0.659-0.729-0.845-0.952c-0.184-0.226-0.273-0.35-0.259-0.361c0.092-0.103,1.582,1.915,4.938,3.949
					c1.667,1.011,3.807,1.98,6.316,2.572c2.498,0.564,5.394,0.805,8.29,0.208c1.438-0.307,2.792-0.859,3.877-1.701
					c1.09-0.833,1.871-1.951,2.371-3.114c1.01-2.353,0.991-4.757,0.733-6.672c-0.267-1.934-0.712-3.467-0.995-4.529
					C304.657,299.241,304.5,298.652,304.536,298.641z"/>
			</g>
			<g>
				<path style="fill:#263238;" d="M305.56,302.474c0.036-0.101,0.569,0.216,1.435,0.827c0.878,0.603,2.126,1.517,3.777,2.442
					c1.628,0.957,3.815,1.61,6.302,1.768c2.46,0.155,5.292-0.347,7.589-2.063c2.306-1.696,3.785-4.125,4.69-6.425
					c0.896-2.327,1.248-4.579,1.457-6.461c0.202-1.889,0.26-3.431,0.319-4.495c0.055-1.065,0.096-1.655,0.133-1.654
					c0.035,0.001,0.062,0.591,0.07,1.659c0.003,1.068,0.001,2.615-0.155,4.526c-0.165,1.905-0.48,4.196-1.376,6.598
					c-0.905,2.37-2.414,4.894-4.831,6.673c-2.414,1.805-5.396,2.311-7.926,2.122c-2.548-0.184-4.812-0.907-6.454-1.927
					c-1.656-0.983-2.873-1.946-3.716-2.599C306.038,302.799,305.576,302.445,305.56,302.474z"/>
			</g>
			<path style="fill:#263238;" d="M264.465,252.45c-1.594-1.979-4.109-3.132-6.642-3.206c-1.586-0.046-3.114,0.617-4.285,1.689l0,0
				c-2.625,1.573-4.239,4.693-4.006,7.744c0.268,3.513,3.011,6.688,6.442,7.488c3.431,0.8,7.282-0.821,9.13-3.821
				C266.952,259.345,266.676,255.194,264.465,252.45z"/>
			<path style="fill:#263238;" d="M324.608,237.638c-1.553-1.928-3.942-2.86-6.386-2.86c-1.6,0-3.154,0.543-4.541,1.343l0,0
				c-2.625,1.573-4.238,4.693-4.006,7.744c0.268,3.513,3.011,6.688,6.442,7.488c3.431,0.8,7.282-0.821,9.129-3.821
				C327.094,244.534,326.817,240.382,324.608,237.638z"/>
			<g style="opacity:0.5;">
				<path style="fill:#FFFFFF;" d="M257.562,213.106l-1.964-1.02c-6.724-1.907-13.639,4.762-17.696,10.055
					c-1.216,1.587-2.325,3.407-2.341,5.407c-0.023,2.702,1.986,5.053,4.317,6.422c4.659,2.735,10.573,2.433,15.698,0.726
					c2.133-0.71,4.312-1.748,5.503-3.655c0.904-1.447,1.121-3.219,1.108-4.925C262.151,221.428,260.494,216.766,257.562,213.106z"/>
			</g>
			<g style="opacity:0.5;">
				<path style="fill:#FFFFFF;" d="M303.281,200.981l1.964-1.02c6.724-1.907,13.639,4.762,17.695,10.055
					c1.216,1.587,2.325,3.407,2.342,5.407c0.023,2.702-1.986,5.053-4.317,6.422c-4.658,2.735-10.573,2.433-15.698,0.726
					c-2.133-0.71-4.312-1.748-5.503-3.655c-0.904-1.447-1.121-3.219-1.108-4.925C298.692,209.303,300.349,204.641,303.281,200.981z"
					/>
			</g>
			<g>
				<path style="fill:#263238;" d="M274.28,297.603c-0.026,0.021-0.418-0.389-1.084-1.169c-0.66-0.784-1.616-1.926-2.618-3.475
					c-0.985-1.542-2.073-3.537-2.411-6.007c-0.165-1.227-0.096-2.553,0.214-3.859c0.306-1.308,0.811-2.598,1.371-3.882
					c2.219-5.172,5.124-9.383,7.214-12.378c1.018-1.436,1.861-2.627,2.507-3.538c0.596-0.832,0.937-1.285,0.967-1.265
					c0.029,0.019-0.254,0.511-0.799,1.378c-0.545,0.868-1.36,2.106-2.37,3.632c-2.013,3.05-4.844,7.257-7.04,12.378
					c-0.556,1.274-1.051,2.534-1.352,3.792c-0.305,1.256-0.379,2.506-0.235,3.682c0.295,2.362,1.314,4.328,2.247,5.872
					c0.947,1.552,1.855,2.724,2.464,3.544C273.969,297.125,274.31,297.579,274.28,297.603z"/>
			</g>
			<g>
				<path style="fill:#263238;" d="M331.997,275.935c-0.039-0.001-0.041-0.596-0.059-1.666c-0.033-1.065-0.038-2.63-0.48-4.47
					c-0.235-0.91-0.579-1.898-1.207-2.798c-0.613-0.907-1.5-1.701-2.59-2.294c-1.084-0.604-2.336-1.032-3.647-1.44
					c-1.319-0.407-2.683-0.828-4.081-1.26c-5.592-1.733-10.646-3.33-14.297-4.51c-1.757-0.58-3.211-1.06-4.315-1.424
					c-1.015-0.347-1.572-0.556-1.561-0.59c0.011-0.034,0.587,0.109,1.621,0.396c1.116,0.324,2.587,0.75,4.364,1.266
					c3.678,1.091,8.749,2.632,14.342,4.365c1.397,0.435,2.76,0.86,4.079,1.271c1.318,0.419,2.599,0.865,3.729,1.509
					c1.134,0.63,2.08,1.497,2.714,2.472c0.651,0.968,0.988,2.009,1.207,2.954c0.408,1.909,0.353,3.486,0.324,4.557
					c-0.02,0.538-0.05,0.954-0.076,1.236C332.038,275.788,332.015,275.935,331.997,275.935z"/>
			</g>
			<g>
				<path style="fill:#FF725E;" d="M201.575,162.361c-6.313-1.641-13.963-1.891-18.363,2.925
					c-4.306,4.713-3.521,12.053-1.973,18.246c4.251,17.003,12.279,33.051,23.337,46.649l32.815-49.424
					C226.143,173.317,214.628,165.754,201.575,162.361z"/>
				<g style="opacity:0.5;">
					<path style="fill:#FFFFFF;" d="M199.701,169.878c-3.83-1.359-8.804-1.848-11.309,1.352c-2.273,2.903-1.154,7.123,0.29,10.517
						c5.097,11.975,12.091,25.191,22.087,33.526c4.847-9.959,10.501-18.951,17.562-26.258
						C220.174,181.645,210.06,173.554,199.701,169.878z"/>
				</g>
				<g>
					<path style="fill:#263238;" d="M217.558,203.183c-0.027,0.023-0.362-0.312-0.943-0.939c-0.649-0.703-1.471-1.595-2.452-2.658
						c-2.155-2.311-4.997-5.359-8.138-8.728c-3.184-3.407-6.033-6.526-8.033-8.839c-1.002-1.155-1.798-2.103-2.331-2.771
						c-0.535-0.668-0.817-1.048-0.79-1.071c0.027-0.023,0.362,0.312,0.943,0.939c0.649,0.703,1.471,1.595,2.452,2.658
						c2.155,2.311,4.997,5.359,8.14,8.729c3.183,3.406,6.032,6.525,8.032,8.838c1.002,1.154,1.798,2.103,2.331,2.771
						C217.303,202.779,217.585,203.16,217.558,203.183z"/>
				</g>
			</g>
			<g>
				<path style="fill:#FF725E;" d="M331.062,138.07c-2.618-5.822-6.546-12.072-12.846-13.108
					c-6.437-1.059-12.289,3.874-16.232,9.071c-8.15,10.746-12.511,23.814-16.737,36.621l53.443,18.072
					C337.248,170.272,338.251,154.055,331.062,138.07z"/>
				<g style="opacity:0.5;">
					<path style="fill:#FFFFFF;" d="M308.11,138.776c2.166-3.438,5.77-6.901,9.719-5.939c3.583,0.873,5.316,4.879,6.283,8.438
						c3.411,12.56,6.071,26.734,3.381,39.468c-8.477-4.948-18.363-8.584-29.046-11.478
						C300.289,158.429,302.251,148.076,308.11,138.776z"/>
				</g>
				<g>
					<path style="fill:#263238;" d="M314.8,174.628c-0.036-0.001-0.05-0.456-0.046-1.277c0.002-0.821,0.038-2.008,0.105-3.474
						c0.13-2.932,0.422-6.976,0.802-11.433c0.368-4.403,0.701-8.384,0.954-11.414c0.107-1.379,0.198-2.538,0.27-3.46
						c0.067-0.817,0.121-1.269,0.157-1.267c0.036,0.001,0.05,0.456,0.046,1.277c-0.002,0.821-0.038,2.008-0.105,3.474
						c-0.13,2.932-0.422,6.976-0.802,11.435c-0.368,4.401-0.701,8.382-0.954,11.412c-0.107,1.379-0.198,2.538-0.27,3.461
						C314.89,174.178,314.836,174.63,314.8,174.628z"/>
				</g>
			</g>
			<g>
				<path style="fill:#263238;" d="M362.635,301.522c0,0-0.175,0.416-0.664,1.111c-0.477,0.705-1.279,1.673-2.396,2.836
					c-1.115,1.165-2.548,2.522-4.274,4.025c-0.864,0.75-1.798,1.541-2.811,2.353c-0.991,0.837-2.037,1.72-3.135,2.647
					c-4.451,3.656-10.142,7.563-16.915,11.069c-6.764,3.517-14.66,6.508-23.22,8.55c-8.572,2.017-16.963,2.855-24.582,2.938
					c-7.625,0.057-14.48-0.626-20.159-1.595c-5.68-0.981-10.193-2.197-13.256-3.191c-1.527-0.514-2.71-0.917-3.495-1.237
					c-0.373-0.147-0.669-0.264-0.897-0.354c-0.201-0.082-0.302-0.129-0.299-0.137c0.003-0.008,0.111,0.021,0.318,0.087
					c0.232,0.078,0.534,0.178,0.914,0.305c0.796,0.287,1.988,0.659,3.52,1.142c3.074,0.932,7.587,2.089,13.256,3.021
					c5.667,0.919,12.499,1.561,20.093,1.478c7.587-0.109,15.937-0.958,24.467-2.965c8.518-2.032,16.377-4.994,23.12-8.47
					c6.753-3.466,12.438-7.322,16.904-10.929c2.215-1.825,4.22-3.478,5.987-4.934c1.739-1.477,3.188-2.807,4.319-3.946
					c1.134-1.136,1.956-2.076,2.456-2.755C362.398,301.901,362.606,301.505,362.635,301.522z"/>
			</g>
			<g style="opacity:0.5;">
				<path style="fill:#FFFFFF;" d="M305.729,280.201c-5.449-0.302-10.967,2.463-13.986,7.009c-0.352,0.53-0.682,1.186-0.446,1.776
					c0.218,0.544,0.864,0.813,1.449,0.777c0.585-0.037,1.124-0.313,1.643-0.584c3.514-1.831,7.027-3.662,10.541-5.493
					c0.677-0.353,1.396-0.747,1.744-1.427c0.347-0.68,0.081-1.716-0.669-1.858"/>
			</g>
			<g>
				<path style="fill:#263238;" d="M331.346,183.044c-0.019,0.031-0.504-0.225-1.364-0.713c-0.857-0.493-2.106-1.19-3.659-2.028
					c-3.105-1.68-7.479-3.85-12.475-5.861c-5.001-2.004-9.661-3.462-13.066-4.396c-1.702-0.469-3.086-0.829-4.046-1.066
					c-0.958-0.242-1.486-0.393-1.478-0.428c0.007-0.035,0.549,0.048,1.522,0.23c0.975,0.176,2.375,0.483,4.095,0.908
					c3.44,0.846,8.142,2.256,13.167,4.269c5.02,2.02,9.391,4.254,12.46,6.022c1.536,0.882,2.76,1.63,3.586,2.177
					C330.917,182.7,331.365,183.014,331.346,183.044z"/>
			</g>
			<g>
				<path style="fill:#263238;" d="M318.576,311.154c0.042,0.053-0.517,0.585-1.506,1.34c-0.988,0.755-2.419,1.717-4.089,2.623
					c-1.672,0.904-3.26,1.576-4.432,1.991c-1.173,0.416-1.923,0.592-1.945,0.528c-0.052-0.149,2.83-1.18,6.129-2.977
					C316.04,312.879,318.479,311.029,318.576,311.154z"/>
			</g>
			<g>
				<path style="fill:#263238;" d="M232.241,185.851c0.025,0.026-0.373,0.464-1.114,1.233c-0.746,0.763-1.803,1.889-3.082,3.302
					c-2.561,2.823-5.929,6.883-9.2,11.691c-3.264,4.815-5.797,9.443-7.477,12.865c-0.842,1.71-1.499,3.108-1.933,4.082
					c-0.442,0.972-0.702,1.503-0.736,1.49c-0.033-0.013,0.164-0.571,0.549-1.569c0.378-1.001,0.985-2.426,1.788-4.162
					c1.601-3.474,4.097-8.157,7.379-12.998c3.289-4.833,6.721-8.88,9.36-11.649c1.318-1.387,2.419-2.476,3.21-3.197
					C231.77,186.214,232.216,185.825,232.241,185.851z"/>
			</g>
		</g>
		<g>
			<g>
				<path style="fill:#263238;" d="M440.625,436.113c0,0-0.2-0.033-0.58-0.13c-0.406-0.109-0.962-0.258-1.674-0.449
					c-1.462-0.413-3.6-1.049-6.291-1.972c-5.375-1.844-12.983-4.865-21.558-9.684l0.26-0.345
					c4.838,4.736,9.775,10.596,14.125,17.499l0.488,0.774l-0.817-0.414c-4.746-2.402-9.524-5.446-14.023-9.097
					c-4.254-3.444-8.035-7.238-11.279-11.17l0.43-0.261c2.797,6.643,5.421,12.873,7.795,18.509l0.308,0.732l-0.646-0.461
					c-8.8-6.279-14.509-13.431-17.908-18.67c-3.404-5.283-4.717-8.644-4.717-8.644c0.005-0.003,0.035,0.045,0.089,0.141
					c0.062,0.116,0.138,0.257,0.232,0.433c0.213,0.41,0.508,0.975,0.884,1.698c0.794,1.476,1.995,3.624,3.73,6.226
					c3.451,5.178,9.181,12.247,17.949,18.448l-0.337,0.271c-2.39-5.63-5.031-11.852-7.848-18.487l-0.68-1.602l1.11,1.341
					c3.229,3.902,6.988,7.667,11.215,11.089c4.47,3.627,9.214,6.655,13.925,9.05l-0.329,0.361
					c-4.315-6.874-9.208-12.72-14.002-17.457l-1.174-1.16l1.434,0.815c8.523,4.844,16.086,7.915,21.427,9.827
					c2.674,0.956,4.797,1.63,6.246,2.083c0.704,0.217,1.254,0.387,1.655,0.51C440.437,436.036,440.625,436.113,440.625,436.113z"/>
			</g>
			<g>
				<path style="fill:#FF725E;" d="M364.043,291.63c-0.808,6.979-3.043,16.653-3.345,23.619c1.303-1.982,2.607-3.964,3.91-5.946
					c1.171,18.179,3.999,40.647,6.588,58.678"/>
				<g>
					<path style="fill:#263238;" d="M371.196,367.981c-0.009,0.001-0.029-0.075-0.059-0.226c-0.033-0.182-0.073-0.403-0.122-0.672
						c-0.103-0.636-0.242-1.5-0.418-2.591c-0.345-2.252-0.831-5.514-1.387-9.55c-1.112-8.072-2.55-19.24-3.73-31.62
						c-0.463-4.896-0.844-9.614-1.119-14.004l0.454,0.12c-1.373,2.076-2.685,4.061-3.925,5.936l-0.466,0.704l0.044-0.84
						c0.189-3.579,0.712-6.821,1.176-9.69c0.499-2.851,0.936-5.347,1.3-7.424c0.363-2.06,0.636-3.683,0.808-4.793
						c0.082-0.524,0.148-0.943,0.2-1.268c0.048-0.287,0.079-0.435,0.091-0.433c0.012,0.001,0.006,0.152-0.018,0.442
						c-0.027,0.29-0.06,0.72-0.13,1.279c-0.127,1.118-0.358,2.75-0.682,4.818c-0.334,2.081-0.735,4.583-1.194,7.439
						c-0.432,2.868-0.926,6.108-1.09,9.65l-0.421-0.136c1.231-1.882,2.533-3.873,3.895-5.956l0.405-0.619l0.049,0.739
						c0.291,4.382,0.681,9.095,1.144,13.986c1.179,12.37,2.559,23.539,3.577,31.621c0.512,4.006,0.928,7.263,1.223,9.57
						c0.135,1.096,0.242,1.965,0.321,2.604c0.028,0.272,0.051,0.495,0.07,0.679C371.203,367.901,371.205,367.98,371.196,367.981z"/>
				</g>
			</g>
			<g style="opacity:0.3;">
				<path d="M384.992,412.915c-2.858-7.319-4.029-14.283-6.886-21.602c0.955,13.947,7.307,26.895,13.917,39.213
					c2.186,4.074,4.44,8.164,7.504,11.626c3.064,3.462,7.045,6.29,11.584,7.165c0.828,0.16,1.749,0.236,2.453-0.227
					c1.447-0.953,0.866-3.189,0.025-4.703c-0.841-1.514-2.456-7.745-2.456-7.745c7.401,5.177,17.96,11.366,26.942,12.31
					c-2.371-3.814-4.742-7.627-7.113-11.44c5.182,2.745,11.536,3.179,17.044,1.163c-11.346-4.392-24.845-9.404-36.191-13.795
					c4.681,4.519,9.503,10.723,12.876,16.287c-8.682-4.022-19.564-11.303-25.221-20.203c3.328,7.441,6.858,15.483,7.57,18.523
					c-10.371-7.956-17.904-15.503-22.503-27.738"/>
			</g>
			<g>
				<path style="fill:#FF725E;" d="M355.052,242.705c0,5.622,0.614,11.215,1.838,16.712c5.859,26.318,16.047,106.015,16.875,107.019
					c0.99,1.202,64.833,3.332,64.833,3.332l-10.442-13.385l9.167,3.009c0,0-1.688-2.594-9.167-9.247
					c-10.006-8.902-24.145-117.669-24.145-117.669l0,0c1.82-14.846,3.642-29.739,3.499-44.687
					c-0.143-14.948-2.31-30.038-8.204-43.873c-1.89-4.435-4.196-8.782-7.567-12.315c-3.37-3.533-7.473-3.385-12.214-4.89
					c-8.495-2.698-13.924,1.178-18.292,6.101c-2.973,3.351-3.221,7.275-4.964,11.367c0,0-2.556,1.661-4.126,5.829
					c-2.581,6.854-4.621,13.986-4.914,21.27c-0.293,7.284,1.424,14.846,6.042,20.63c-1.45-0.799-2.899-1.598-4.349-2.396
					c2.642,2.899,5.285,5.799,7.927,8.698l-2.018,3.807c-1.22,2.227-1.719,4.811-1.413,7.31c1.093-1.157,2.187-2.315,3.28-3.472
					c-2.038,4.169-2.239,8.164-2.916,14.462c-0.303,2.821-0.47,5.662-0.508,8.498l-0.134,9.865l1.909-1.595V242.705z"/>
				<g style="opacity:0.5;">
					<path style="fill:#FFFFFF;" d="M379.697,251.299c6.664-0.145,13.799,2.778,17.724,8.011c2.143,2.857,2.863,6.461,3.527,9.936
						c3.203,16.759,6.405,33.518,9.607,50.277c3.203,16.761,6.408,33.535,8.526,50.458c1.055,8.431,1.762,17.372-1.965,25.055
						c-1.429,2.947-3.709,5.763-6.929,6.671c-3.569,1.006-7.487-0.63-10.079-3.216c-2.592-2.587-4.112-5.987-5.512-9.331
						c-7.063-16.877-12.441-34.382-16.957-52.064c-7.172-28.082-6.613-42.575-9.424-71.38
						C368.216,265.716,367.844,251.556,379.697,251.299z"/>
				</g>
				<path style="fill:#263238;" d="M374.017,133.461c-1.888-1.72-5.056-1.549-7.173-0.102c-2.117,1.447-3.317,3.875-3.921,6.32
					c-0.489,1.981-0.641,4.079-0.107,6.049c0.534,1.97,1.813,3.801,3.671,4.747c1.857,0.946,4.3,0.873,5.924-0.415
					c1.483-1.176,2.084-3.09,2.485-4.908C375.685,141.585,376.781,135.857,374.017,133.461"/>
				<path style="fill:#263238;" d="M357.381,151.115c-0.324,0.01-4.315,0.697-5.753,5.887c-1.438,5.189-2.055,11.675,2.055,12.174
					c4.109,0.499,7.807,0.299,8.321-5.089C362.517,158.698,360.668,151.016,357.381,151.115z"/>
				<path style="fill:#263238;" d="M386.669,135.327c-0.243,0-4.064-0.766-5.823,2.652c-1.759,3.418-4.246,9.361-2.305,13.136
					s6.491,8.136,10.069,2.891c3.579-5.244,4.125-10.724,3.397-13.435C391.279,137.861,386.669,135.327,386.669,135.327z"/>
				<path style="fill:#263238;" d="M396.828,158.997c-0.516,0.088-10.078,4.989-11.768,9.68c-1.689,4.69-0.457,5.488,3.344,7.883
					c3.801,2.395,8.321,1.197,10.889-2.395C401.861,170.572,403.3,157.899,396.828,158.997z"/>
				<g style="opacity:0.5;">
					<path style="fill:#FFFFFF;" d="M381.004,188.144c-0.715-1.308-2.153-1.836-3.473-2.266c-2.801-0.913-5.601-1.825-8.401-2.738
						c-1.677-0.547-3.693-1.019-5.005,0.268l-2.036,0.554c0.211,3.115,0.428,6.261,1.252,9.248c0.824,2.986,2.321,5.842,4.629,7.617
						c2.308,1.775,5.508,2.28,7.956,0.755c2.593-1.615,3.807-4.974,4.825-8.082C381.321,191.758,381.868,189.727,381.004,188.144z"
						/>
				</g>
				<path style="fill:#263238;" d="M370.714,167.848c-1.647,2.05-4.368,2.914-6.903,3.749c-2.535,0.835-5.235,1.893-6.612,4.122
					c-1.209,1.957-1.123,4.458-0.391,6.627c0.521,1.546,1.412,3.059,2.854,3.887c2.652,1.522,6.069,0.258,9.088,0.85
					c4.384,0.859,7.176,5.428,11.528,6.426c3.746,0.859,7.748-1.338,9.722-4.547c1.019-1.657,1.598-3.68,1.048-5.535
					c-0.707-2.383-3.039-3.916-5.26-5.139c-2.221-1.223-4.64-2.477-5.792-4.69c-0.635-1.219-0.812-2.606-1.197-3.92
					c-0.386-1.314-1.074-2.658-2.328-3.275c-1.855-0.912-4.131,0.142-5.594,1.576"/>
				<g style="opacity:0.3;">
					<path d="M382.941,238.182c-1.763-2.061-3.596-4.066-5.493-6.011l-8.734,4.784c1.264,2.289,2.892,4.454,5.104,5.914
						c2.212,1.46,5.078,2.135,7.625,1.344c1.515-0.471,2.987-1.688,2.948-3.233C384.366,239.915,383.642,239.001,382.941,238.182z"
						/>
				</g>
				<path style="fill:#263238;" d="M376.747,231.94c-1.817-0.711-3.99-0.637-5.646,0.378c-1.656,1.016-2.679,3.013-2.313,4.882
					c0.307,1.572,1.492,2.863,2.844,3.777c2.546,1.722,5.845,2.352,8.873,1.695c1.57-0.341,3.257-1.243,3.527-2.784
					c0.184-1.05-0.594-2.737-1.232-3.603C381.417,234.41,378.951,232.801,376.747,231.94"/>
				<g>
					<path style="fill:#263238;" d="M381.69,224.485c-0.012,0.013-0.127-0.07-0.335-0.241c-0.204-0.174-0.516-0.422-0.886-0.775
						c-0.754-0.69-1.797-1.744-2.969-3.151c-2.349-2.792-5.125-7.154-6.76-12.532l0.509-0.069l-0.001,0.029
						c-0.038,1.392-0.075,2.75-0.111,4.064c-0.019,0.656-0.038,1.3-0.056,1.932c-0.009,0.315-0.019,0.628-0.028,0.937
						c-0.003,0.309-0.036,0.665-0.174,0.984c-0.07,0.161-0.169,0.327-0.334,0.457c-0.167,0.135-0.403,0.179-0.604,0.145
						c-0.433-0.096-0.629-0.422-0.792-0.655c-0.312-0.487-0.606-0.966-0.857-1.448c-0.511-0.958-0.906-1.891-1.2-2.764
						c-0.593-1.748-0.803-3.234-0.884-4.255c-0.039-0.512-0.049-0.91-0.04-1.18c0.007-0.27,0.019-0.411,0.036-0.412
						c0.119-0.019,0.009,2.304,1.236,5.724c0.311,0.848,0.716,1.754,1.232,2.681c0.253,0.466,0.548,0.929,0.858,1.4
						c0.294,0.502,0.714,0.639,0.907,0.121c0.191-0.464,0.107-1.12,0.147-1.747c0.014-0.632,0.029-1.277,0.044-1.933
						c0.032-1.314,0.066-2.672,0.1-4.064l0.001-0.029l0.042-1.608l0.468,1.539c1.61,5.299,4.294,9.627,6.548,12.452
						c1.125,1.423,2.118,2.508,2.825,3.238C381.318,224.056,381.718,224.455,381.69,224.485z"/>
				</g>
				<g>
					<path style="fill:#263238;" d="M382.528,162.851c-0.033,0.024-0.464-0.513-1.205-1.493c-0.789-1.067-1.827-2.469-3.069-4.149
						l0.366-0.111c-0.033,1.465-0.07,3.088-0.11,4.836l-0.014,0.603l-0.407-0.45c-1.004-1.112-1.878-2.537-2.397-4.167l0.482,0.028
						c-0.325,0.728-0.666,1.494-1.013,2.272c-0.311,0.693-0.617,1.377-0.918,2.048l-0.171,0.38l-0.264-0.321
						c-1.193-1.446-1.405-3.443-0.767-4.975l0.372,0.28c-1.88,1.46-3.735,2.542-5.34,3.322l-0.466,0.227l0.215-0.466
						c0.741-1.609,1.67-2.721,2.357-3.415c0.346-0.348,0.636-0.594,0.838-0.754c0.204-0.157,0.318-0.231,0.33-0.217
						c0.028,0.033-0.381,0.385-1.019,1.11c-0.631,0.725-1.492,1.846-2.168,3.425l-0.251-0.239c1.564-0.813,3.372-1.914,5.207-3.371
						l0.717-0.57l-0.345,0.85c-0.558,1.373-0.349,3.183,0.718,4.463l-0.435,0.06c0.3-0.672,0.605-1.356,0.915-2.05
						c0.349-0.777,0.692-1.543,1.018-2.27l0.278-0.621l0.204,0.648c0.489,1.556,1.314,2.925,2.264,4.001l-0.42,0.153
						c0.068-1.748,0.131-3.37,0.188-4.834l0.024-0.609l0.343,0.498c1.185,1.721,2.173,3.159,2.926,4.252
						C382.193,162.246,382.561,162.828,382.528,162.851z"/>
				</g>
				<path style="fill:#E0E0E0;" d="M373.758,127.741c-0.536-0.497-1.439-0.447-2.055-0.048c-0.616,0.398-0.896,0.734-1.141,1.578
					c-0.097,0.305,0.013,0.682,0.259,0.911c0.327,0.305,0.816,0.39,1.269,0.362c0.702-0.043,1.414-0.35,1.804-0.919
					C374.284,129.055,374.267,128.213,373.758,127.741z"/>
				<path style="fill:#E0E0E0;" d="M389.704,132.897c-0.305-0.776-0.876-1.451-1.6-1.892c-0.173-0.105-0.384-0.201-0.576-0.134
					c-0.159,0.055-0.516,0.18-0.604,0.32c-0.288,0.456-0.328,0.723-0.233,1.391c0.344,0.926,1.391,1.553,2.397,1.436
					c0.236-0.028,0.488-0.104,0.623-0.295C389.877,133.486,389.809,133.165,389.704,132.897z"/>
				<g style="opacity:0.3;">
					<path d="M365.277,316.82c-1.907,16.566-0.174,32.598,5.936,48.175c-1.158-16.588-4.04-32.163-5.403-49.217"/>
				</g>
				<g style="opacity:0.3;">
					<path d="M380.367,223.617c-3.792-4.649-7.287-9.749-9.392-15.317c0.297,1.978-0.051,4.345-0.331,6.326
						c-0.061,0.431-0.013,1.315-0.453,1.395c-0.415,0.075-0.965-0.67-1.194-1.015c-1.568-2.373-2.564-5.1-2.887-7.903l-0.209,0.921
						c-0.479,3.341,0.605,6.864,2.892,9.402c0.495,0.549,1.142,1.091,1.891,1.034c0.728-0.056,1.296-0.69,1.492-1.373
						s0.099-1.409,0-2.111C373.357,218.865,376.474,222.153,380.367,223.617z"/>
				</g>
				<g>
					<path style="fill:#263238;" d="M395.781,310.271c-0.011,0.013-0.161-0.103-0.438-0.337c-0.272-0.238-0.69-0.574-1.188-1.053
						c-1.013-0.938-2.423-2.37-4.002-4.298c-3.162-3.823-6.9-9.864-8.881-17.432l0.509-0.089c0.068,0.85,0.141,1.755,0.215,2.669
						c0.286,4.181,0.321,8.178,0.184,11.806l-0.027,0.711l-0.409-0.58c-3.158-4.483-4.852-8.892-5.709-12.044
						c-0.433-1.581-0.677-2.857-0.815-3.733c-0.072-0.438-0.106-0.778-0.133-1.006c-0.024-0.229-0.031-0.348-0.017-0.35
						c0.03-0.004,0.123,0.464,0.303,1.328c0.185,0.864,0.473,2.122,0.942,3.68c0.93,3.106,2.669,7.441,5.82,11.846l-0.435,0.131
						c0.11-3.613,0.06-7.592-0.224-11.754c-0.073-0.91-0.145-1.811-0.212-2.657l0.509-0.089c1.946,7.482,5.587,13.488,8.654,17.342
						c1.531,1.943,2.893,3.404,3.861,4.381c0.475,0.498,0.87,0.856,1.121,1.117C395.665,310.117,395.793,310.258,395.781,310.271z"
						/>
				</g>
			</g>
			<g>
				<path style="fill:#263238;" d="M437.903,390.593c0.036-0.004,0.109,0.459,0.212,1.301c0.11,0.841,0.209,2.065,0.277,3.58
					c0.142,3.029,0.053,7.239-0.609,11.829c-0.671,4.59-1.784,8.651-2.782,11.515c-0.497,1.433-0.94,2.578-1.285,3.353
					c-0.338,0.778-0.54,1.2-0.573,1.187c-0.033-0.014,0.106-0.462,0.384-1.26c0.285-0.795,0.674-1.954,1.124-3.394
					c0.903-2.878,1.95-6.921,2.617-11.475c0.657-4.554,0.803-8.728,0.756-11.743c-0.021-1.508-0.064-2.73-0.111-3.574
					C437.873,391.066,437.868,390.597,437.903,390.593z"/>
			</g>
		</g>
	</g>
</g>
</svg>
