<?xml version="1.0" encoding="utf-8"?>
<!-- Generator: Adobe Illustrator 27.5.0, SVG Export Plug-In . SVG Version: 6.00 Build 0)  -->
<svg version="1.1" xmlns="http://www.w3.org/2000/svg" xmlns:xlink="http://www.w3.org/1999/xlink" x="0px" y="0px"
	 viewBox="0 0 500 500" style="enable-background:new 0 0 500 500;" xml:space="preserve">
<g id="BACKGROUND">
	<rect style="fill:#76BFBF;" width="500" height="500"/>
</g>
<g id="OBJECTS">
	<g>
		<path style="fill:#81D1D1;" d="M125.383,392.185C76.507,245.347,77.054,153.31,137.662,142.911
			c60.608-10.399,76.032,57.518,76.032,57.518S210.329,60.265,329.717,76.501c119.388,16.235,131.069,212.573,45.676,287.715
			C290,439.358,125.383,392.185,125.383,392.185"/>
		<path style="fill:#124F4A;" d="M451.313,330.278c-39.473,11.364-59.209,53.229-59.209,53.229
			c-2.99-40.669-25.016-80.142-25.016-80.142c11.467,44.856-7.878,100.477-7.878,100.477s-16.923-24.399-5.863-57.081l-2.16,6.382
			c1.286-4.049,2.16-6.382,2.16-6.382c-25.173,13.215-29.578,47.198-29.578,47.198c-16.362-58.526-52.863-84.329-52.863-84.329
			c20.138,31.466,27.061,76.8,27.061,76.8c-6.923-18.227-40.276-29.601-40.276-29.601s28.319,20.768,28.319,59.202l43.898-0.011
			l-0.004,0.013h116.106C431.136,381.574,451.313,330.278,451.313,330.278z"/>
		<path style="fill:#124F4A;" d="M77.981,416.032c0-23.252-17.133-35.816-17.133-35.816s20.178,6.881,24.366,17.908
			c0,0-4.188-27.426-16.371-46.462c0,0,22.082,15.61,31.981,51.017c0,0,2.665-20.559,17.894-28.554c0,0-7.735,20.599-7.735,41.9
			L77.981,416.032z"/>
		<path style="fill:#124F4A;" d="M125.383,416.032C50.207,316.755,60.849,277.27,83.681,266.765
			c34.231-15.75,57.939,44.86,57.939,44.86s-14.458-78.355,0-82.086c14.458-3.731,23.386,33.114,23.386,33.114
			s4.131-90.972,74.09-89.094c69.959,1.878,70.426,106.721,35.913,156.906c0,0,53.169-55.28,74.623-41.025
			c21.454,14.255-61.107,126.592-61.107,126.592L125.383,416.032z"/>
		<path style="fill:#175E5A;" d="M178.374,416.032H71.716c0,0-1.895-16.171,20.843-13.483c0,0-14.211-43.261,40.265-48.472
			c0,0-19.012-11.369-11.638-19.422s22.939,0,32.21,21.79c0,0-26.45-70.917,43.992-86.382s125.865,25.274,109.285,84.013
			c0,0,38.844-42.595,80.056-13.955c41.212,28.64-9.948,57.063-9.948,57.063s32.149-14.211,35.97-3.79
			c3.821,10.422-19.39,15.618-19.39,15.618l8.053,7.02H178.374z"/>
		<path style="fill:#124F4A;" d="M167.08,327.208c39.768,34.289,42.924,60.046,42.924,60.046s3.338-57.052-8.431-79.365
			c0,0,26.589,0.295,40.855,47.927c0,0,9.416-28.075,0-45.966c0,0,8.833,4.796,15.033,31.548c0,0,6.714-8.081,4.648-17.748
			c0,0,19.109,15.284,23.241,46.191c0,0,26.517-38.073,26.17-46.191c0,0,7.577,51.275,0,74.516
			c-7.577,23.241,1.242-4.639,1.242-4.639l-37.742,18.995l-92.3-9.974L167.08,327.208z"/>
		<path style="fill:#269C9C;" d="M371.995,416.032c0-23.252-17.133-35.816-17.133-35.816s20.178,6.881,24.366,17.908
			c0,0-4.188-27.426-16.371-46.462c0,0,22.082,15.61,31.981,51.017c0,0,2.665-20.559,17.894-28.554c0,0-7.735,20.599-7.735,41.9
			L371.995,416.032z"/>
		<path style="fill:#1D7775;" d="M346.89,345.718c-32.366,9.318-48.549,43.645-48.549,43.645
			c-2.452-33.347-20.512-65.713-20.512-65.713c9.402,36.78-6.46,82.387-6.46,82.387s-13.876-20.006-4.808-46.804l-1.771,5.233
			c1.054-3.32,1.771-5.233,1.771-5.233c-20.64,10.836-24.253,38.701-24.253,38.701c-13.416-47.989-43.345-69.146-43.345-69.146
			c16.513,25.801,22.189,62.973,22.189,62.973c-5.676-14.945-33.025-24.272-33.025-24.272s23.221,17.029,23.221,48.543l35.995-0.009
			l-0.004,0.011h95.202C330.345,387.778,346.89,345.718,346.89,345.718z"/>
		<path style="fill:#269C9C;" d="M136.812,379.73c-16.71,4.811-25.066,22.534-25.066,22.534
			c-1.266-17.217-10.59-33.927-10.59-33.927c4.854,18.989-3.335,42.536-3.335,42.536s-7.164-10.329-2.482-24.165l-0.914,2.702
			c0.544-1.714,0.914-2.702,0.914-2.702c-10.657,5.594-12.521,19.981-12.521,19.981c-6.927-24.777-22.379-35.7-22.379-35.7
			c8.525,13.321,11.456,32.512,11.456,32.512c-2.931-7.716-17.051-12.531-17.051-12.531s11.989,8.792,11.989,25.063l18.584-0.005
			l-0.002,0.005h49.152C128.27,401.445,136.812,379.73,136.812,379.73z"/>
		<path style="fill:#269C9C;" d="M186.796,416.032c0-23.252-17.133-35.816-17.133-35.816s20.178,6.881,24.366,17.908
			c0,0-4.188-27.426-16.371-46.462c0,0,22.082,15.61,31.981,51.017c0,0,2.665-20.559,17.894-28.554c0,0-7.735,20.599-7.735,41.9
			L186.796,416.032z"/>
	</g>
	<g>
		<path style="fill:#C44D4D;" d="M269.568,112.977h-65.192c-5.659,0-10.247,4.588-10.247,10.247v45.437
			c0,5.659,4.588,10.247,10.247,10.247h24.314l-0.138,17.115l16.702-17.115h24.314c5.659,0,10.247-4.588,10.247-10.247v-45.437
			C279.815,117.565,275.227,112.977,269.568,112.977z"/>
		<path style="fill:#FFFEFF;" d="M248.589,128.534c-9.871-1.528-11.617,7.837-11.617,7.837s-1.746-9.365-11.617-7.837
			c-14.869,2.302-6.738,26.469,11.617,34.985C255.326,155.003,263.458,130.835,248.589,128.534z"/>
	</g>
	<g>
		<path style="fill:#563939;" d="M121.281,116.866c-2.731-14.564-10.923-20.224-13.654-18.911
			c-2.731,1.313-0.303,23.159-5.158,27.104L121.281,116.866z"/>
		<path style="fill:#563939;" d="M390.64,208.787v0.01c-0.629,14.828-8.961,27.975-38.273,24.605l-7.439-6.81l-15.211-13.934
			c52.04,16.999,52.718-39.099,52.718-39.099S391.348,192.219,390.64,208.787z"/>
		<path style="opacity:0.4;fill:#191C21;" d="M390.64,208.796c-0.629,14.828-8.961,27.975-38.273,24.605l-7.439-6.81l-0.776-0.914
			C374.299,229.599,388.577,222.966,390.64,208.796z"/>
		<path style="fill:#563939;" d="M164.681,298.965c5.063-37.803-39.862-60.58-39.862-60.58
			c-7.919,69.506,21.047,144.072,30.743,169.047h-7.41c-4.75,0-8.6,3.85-8.6,8.6h19.391h7.244h7.198
			C173.385,416.032,159.618,336.768,164.681,298.965z"/>
		<path style="fill:none;stroke:#422A2A;stroke-miterlimit:10;" d="M158.694,409.311c-9.538-2.004-10.27,6.722-10.27,6.722"/>
		<path style="fill:#563939;" d="M350.372,377.799l-26.03,38.234h-25.941c0-4.815,3.901-8.726,8.716-8.726h5.355
			c6.181-6.102,13.01-14.769,13.855-23.888c1.592-17.107-16.705-29.037-27.042-36.2c-8.627-5.964-19.475-21.637-21.215-53.71
			c-0.01-0.039-0.01-0.079-0.01-0.118c-0.334-6.338-0.324-13.305,0.137-20.969l46.94-2.359l12.057,26.217l5.345,11.615
			c-3.115,7.596-4.245,15.31-4.078,22.571c0.315,14.582,5.857,27.278,11.055,33.262C352.966,367.698,353.33,373.465,350.372,377.799
			z"/>
		<path style="opacity:0.4;fill:#191C21;" d="M338.463,330.466c-12.155-12.882-35.227-33.616-60.392-36.957
			c-0.079-0.02-0.157-0.03-0.236-0.039l0.226-0.079l26.826-8.863l32.309,11.752l5.345,11.615
			C339.426,315.49,338.296,323.204,338.463,330.466z"/>
		<path style="fill:#7F5959;" d="M428.708,416.033H400.85c0-4.815,3.911-8.726,8.726-8.726h3.901
			c2.397-12.912,4.687-36.986-7.9-50.035c-17.481-18.129-43.481-36.072-44.287-36.632c-0.01,0-0.01-0.01-0.02-0.01
			c0,0-41.31-17.835-72.744-25.077c-3.734-0.865-7.32-1.572-10.691-2.083c-30.462-4.648-43.531,32.515-99.511,23.839
			c-2.358-0.364-4.795-0.806-7.321-1.346c-23.151-4.933-43.157-29.705-46.36-56.334c-0.039-0.275-0.069-0.56-0.098-0.835
			c-0.236-2.172-0.354-4.353-0.354-6.534c0-29.273,8.608-52.512,8.608-52.512h57.572c0,0-0.314,1.395,3.223,3.93
			c3.056,2.191,8.971,5.247,20.448,8.981c3.41,1.11,6.996,1.602,10.79,1.66c23.74,0.383,55.715-16.036,104.886-1.66
			c4.55,1.327,8.805,3.125,12.794,5.316l0.029,0.02c45.997,25.253,56.649,102.606,75.947,118.947
			c9.797,8.293,12.676,26.089,12.961,42.705C431.763,398.611,428.708,416.033,428.708,416.033z"/>
		<path style="fill:#7F5959;" d="M179.423,298.965c5.063-37.803-54.04-34.692-54.04-34.692
			c7.509,44.541,35.225,118.184,44.922,143.159h-5.444c-4.75,0-8.6,3.85-8.6,8.6h17.424h7.244h7.198
			C188.127,416.032,174.361,336.768,179.423,298.965z"/>
		<path style="fill:#EDD7BC;" d="M288.525,295.553c-3.734-0.865-7.32-1.572-10.691-2.083c-30.462-4.648-43.531,32.515-99.511,23.839
			l-0.01-0.01c-1.523-14.966,3.125-27.857,3.125-27.857s23.525,9.338,46.803,3.609C251.53,287.322,265.807,289.195,288.525,295.553z
			"/>
		<path style="fill:none;stroke:#422A2A;stroke-miterlimit:10;" d="M316.655,409.311c-9.538-2.004-10.27,6.722-10.27,6.722"/>
		<path style="fill:none;stroke:#422A2A;stroke-miterlimit:10;" d="M175.276,409.311c-9.538-2.004-10.27,6.722-10.27,6.722"/>
		<path style="fill:none;stroke:#422A2A;stroke-miterlimit:10;" d="M419.17,409.311c-9.538-2.004-10.27,6.722-10.27,6.722"/>
		<path style="fill:#7F5959;" d="M201.573,208.001l-67.801,92.347c-6.721-20.999-9.925-37.36-11.389-50.36
			c-2.103-18.778-0.55-30.53-0.658-39.069c-0.03-2.113-0.157-4.038-0.462-5.817c-0.049-0.226-0.089-0.452-0.138-0.678
			c-0.079-0.403-0.177-0.796-0.285-1.179c-0.157-0.619-0.354-1.219-0.58-1.808c-3.075-8.009-5.797-11.959-8.441-14.061
			c-1.906-1.533-3.773-2.103-5.689-2.545c0,0-38.273,16.322-39.639-19.358c-0.128-3.331,0.069-7.114,0.648-11.408
			c0,0-4.943-6.771,0.177-8.962c1.71-0.727,4.304-1.277,7.006-1.867c5.404-1.199,11.222-2.575,11.104-5.994
			c-0.187-5.119,8.952-19.201,20.478-20.478c11.517-1.277,16.823-16.636,19.564-18.65c2.742-2.014,22.856,15.545,19.741,32.181
			c0,0,1.592,0.01,4.844,2.26c2.692,1.857,6.525,5.257,11.516,11.458c3.134,3.901,6.259,10.091,9.541,17.157
			c1.779,3.842,3.606,7.93,5.523,12.047c0.884,1.916,1.788,3.852,2.712,5.758c0.599,1.238,1.209,2.476,1.828,3.695
			C186.981,194.145,193.574,204.365,201.573,208.001z"/>
		<path style="fill:#191818;" d="M67.139,154.064c0,0-4.943-6.771,0.177-8.962c1.71-0.727,4.304-1.277,7.006-1.867
			C80.562,151.607,71.64,161.247,67.139,154.064z"/>
		<path style="opacity:0.5;fill:#3A262F;" d="M121.724,210.919c-0.039-3.645-0.393-6.702-1.464-9.482
			c-5.296-13.777-9.541-15.545-14.13-16.607C122.225,176.753,122.166,191.777,121.724,210.919z"/>
		<path style="fill:#191818;" d="M108.514,141.895c0,2.867-2.324,5.191-5.191,5.191c-2.867,0-5.191-2.324-5.191-5.191
			c0-2.867,2.324-5.191,5.191-5.191C106.19,136.704,108.514,139.028,108.514,141.895z"/>
		<path style="fill:#EDD7BC;" d="M122.393,249.998l-0.01-0.01c-2.103-18.778-0.55-30.53-0.658-39.069
			c-0.039-3.645-0.393-6.702-1.464-9.482c-5.296-13.777-9.541-15.545-14.13-16.607c0,0-13.57,5.788-24.841,2.938
			c-4.324-1.1-8.303-3.459-11.045-7.91c-1.612-2.604-2.801-5.915-3.381-10.111c0.472,2.564,1.553,5.876,3.95,8.814
			c2.29,2.8,5.788,5.257,11.104,6.436c1.101,0.236,2.28,0.423,3.547,0.55c16.999,1.661,36.259-27.356,43.904,0.413
			C137.014,213.739,119.081,217.896,122.393,249.998z"/>
		<path style="fill:#563939;" d="M183.583,187.258l-62.533,16.81c-0.137-0.678,0.125,0.582,0.076,0.356
			c-0.079-0.403-0.177-0.796-0.285-1.179l55.794-30.029c0.884,1.916,1.788,3.852,2.712,5.758
			C179.945,180.212,182.964,186.039,183.583,187.258z"/>
		<path style="fill:#C44D4D;" d="M81.918,184.997c-0.206,0.56-0.364,1.15-0.472,1.788c-0.069,0.314-0.118,0.649-0.157,0.983
			c-0.993,7.724,2.398,19.25-5.139,16.331c-0.295-0.118-0.59-0.236-0.865-0.383c-7.144-3.38-8.529-12.46-6.132-20.753
			c0.305-1.051,0.668-2.093,1.091-3.105c0.177-0.442,0.363-0.875,0.57-1.297c0.884,1.081,1.946,2.112,3.223,3.036
			C76.071,183.071,78.656,184.27,81.918,184.997z"/>
		<path style="fill:#C44D4D;" d="M180.659,180.932l-50.099,19.446l-12.308,4.775c-2.36,0.916-5.007-0.251-5.923-2.611l-1.987-5.117
			c-0.916-2.36,0.251-5.007,2.612-5.923l42.062-16.321l20.345-7.9c2.36-0.916,5.007,0.261,5.923,2.611l1.987,5.117
			C184.186,177.369,183.018,180.026,180.659,180.932z"/>
		<ellipse style="fill:#C1AB8E;" cx="108.514" cy="129.864" rx="8.288" ry="2.912"/>
		<g style="opacity:0.6;">
			<path style="fill:#3A262F;" d="M77.897,165.116c0,0.965-0.782,1.747-1.747,1.747c-0.965,0-1.747-0.782-1.747-1.747
				c0-0.965,0.782-1.747,1.747-1.747C77.115,163.369,77.897,164.152,77.897,165.116z"/>
			<circle style="fill:#3A262F;" cx="84.235" cy="160.453" r="1.747"/>
			<path style="fill:#3A262F;" d="M86.646,174.949c0,0.965-0.782,1.747-1.747,1.747c-0.965,0-1.747-0.782-1.747-1.747
				c0-0.965,0.782-1.747,1.747-1.747C85.864,173.202,86.646,173.984,86.646,174.949z"/>
			<circle style="fill:#3A262F;" cx="83.681" cy="167.701" r="1.747"/>
			<circle style="fill:#3A262F;" cx="93.12" cy="167.131" r="1.747"/>
		</g>
		<path style="opacity:0.7;fill:#A33A3A;" d="M81.918,184.997c-0.206,0.56-0.364,1.15-0.472,1.788
			c-3.646-0.314-8.205-1.277-12.293-3.822c0.305-1.051,0.668-2.093,1.091-3.105c0.177-0.442,0.363-0.875,0.57-1.297
			C73.104,181.361,76.602,183.818,81.918,184.997z"/>
		<path style="opacity:0.2;fill:#A33A3A;" d="M75.285,203.716c-7.144-3.38-8.529-12.46-6.132-20.753
			c0.305-1.051,0.668-2.093,1.091-3.105c0.177-0.442,0.363-0.875,0.57-1.297c0.884,1.081,1.946,2.112,3.223,3.036
			C71.561,189.576,72.848,197.899,75.285,203.716z"/>
		<path style="opacity:0.2;fill:#191C21;" d="M428.708,416.033H400.85c0-4.815,3.911-8.726,8.726-8.726h3.901
			c2.397-12.912,4.687-36.986-7.9-50.035c-17.481-18.129-43.481-36.072-44.287-36.632c37.9,14.847,60.677,41.015,70.16,59.007
			C431.763,398.611,428.708,416.033,428.708,416.033z"/>
		<path style="opacity:0.6;fill:#3A262F;" d="M150.053,132.554c-3.066,5.955-11.782,10.072-12.391,10.357
			c0.521-0.432,5.965-5.031,7.547-12.617C145.209,130.294,146.801,130.304,150.053,132.554z"/>
		<path style="opacity:0.2;fill:#A33A3A;" d="M180.659,180.932l-50.099,19.446l-0.467,0.051
			c16.096-6.168,22.436-17.551,24.922-25.249l20.345-7.9c2.36-0.916,5.007,0.261,5.923,2.611l1.987,5.117
			C184.186,177.369,183.018,180.026,180.659,180.932z"/>
	</g>
	<g>
		<polygon style="fill:#FFFFFF;" points="93.831,238.166 105.868,236.217 93.831,234.269 91.883,222.232 89.934,234.269 
			77.897,236.217 89.934,238.166 91.883,250.203 		"/>
		<polygon style="fill:#FFFFFF;" points="177.225,99.719 189.262,97.771 177.225,95.822 175.276,83.785 173.328,95.822 
			161.291,97.771 173.328,99.719 175.276,111.756 		"/>
		<polygon style="fill:#FFFFFF;" points="403.999,254.727 416.036,252.779 403.999,250.831 402.051,238.794 400.102,250.831 
			388.065,252.779 400.102,254.727 402.051,266.765 		"/>
	</g>
</g>
</svg>
