<?xml version="1.0" encoding="utf-8"?>
<!-- Generator: Adobe Illustrator 27.5.0, SVG Export Plug-In . SVG Version: 6.00 Build 0)  -->
<svg version="1.1" xmlns="http://www.w3.org/2000/svg" xmlns:xlink="http://www.w3.org/1999/xlink" x="0px" y="0px"
	 viewBox="0 0 500 500" style="enable-background:new 0 0 500 500;" xml:space="preserve">
<g id="Background_Complete">
	<g>
		<g>
			<path style="fill:#EBEBEB;" d="M336.334,59.18c-0.762-2.034-1.539-4.096-2.82-5.849c-1.281-1.753-3.154-3.19-5.309-3.454
				c-2.155-0.264-4.544,0.9-5.246,2.955c-0.309-4.631-0.965-9.382-3.284-13.403c-2.318-4.021-6.643-7.179-11.275-6.896
				c-4.368,0.267-8.107,3.512-10.185,7.363c-2.078,3.851-2.792,8.269-3.474,12.591c-1.656-2.032-5.152-1.393-6.88,0.578
				c-1.728,1.97-2.166,4.725-2.533,7.32h52.116L336.334,59.18z"/>
		</g>
	</g>
	<g>
		<g>
			<path style="fill:#EBEBEB;" d="M209.533,78.617c-0.488-1.302-0.985-2.622-1.805-3.744c-0.82-1.122-2.019-2.042-3.398-2.211
				c-1.38-0.169-2.909,0.576-3.358,1.891c-0.198-2.964-0.618-6.005-2.102-8.579c-1.484-2.574-4.252-4.595-7.217-4.414
				c-2.796,0.171-5.189,2.248-6.52,4.713c-1.33,2.465-1.787,5.293-2.223,8.06c-1.06-1.3-3.298-0.892-4.404,0.37
				c-1.106,1.261-1.386,3.024-1.622,4.685h33.359L209.533,78.617z"/>
		</g>
	</g>
	<g>
		<g>
			<path style="fill:#F5F5F5;" d="M88.373,66.035c-0.488-1.302-0.985-2.622-1.805-3.744c-0.82-1.122-2.019-2.042-3.398-2.211
				c-1.38-0.169-2.909,0.576-3.358,1.891c-0.198-2.964-0.618-6.005-2.102-8.579c-1.484-2.574-4.252-4.595-7.217-4.414
				c-2.796,0.171-5.189,2.248-6.52,4.713c-1.33,2.465-1.787,5.293-2.223,8.06c-1.06-1.3-3.297-0.892-4.404,0.37
				c-1.106,1.261-1.386,3.024-1.622,4.685h33.359L88.373,66.035z"/>
		</g>
	</g>
	<g>
		<g>
			<path style="fill:#F5F5F5;" d="M430.858,59.981c-0.692-1.846-1.397-3.719-2.561-5.311c-1.163-1.592-2.863-2.896-4.82-3.136
				c-1.957-0.24-4.125,0.817-4.763,2.682c-0.281-4.204-0.877-8.518-2.981-12.168c-2.104-3.651-6.031-6.518-10.237-6.261
				c-3.966,0.243-7.361,3.188-9.248,6.685c-1.887,3.496-2.534,7.507-3.154,11.432c-1.503-1.844-4.677-1.265-6.246,0.524
				c-1.569,1.789-1.966,4.29-2.3,6.646h47.318L430.858,59.981z"/>
		</g>
	</g>
	<g>
		<g>
			<path style="fill:#EBEBEB;" d="M380.025,81.652c-0.488-1.302-0.985-2.622-1.805-3.744c-0.82-1.122-2.019-2.042-3.398-2.211
				c-1.38-0.169-2.908,0.576-3.358,1.891c-0.198-2.964-0.618-6.005-2.102-8.579c-1.484-2.574-4.252-4.595-7.217-4.414
				c-2.796,0.171-5.19,2.248-6.52,4.713c-1.33,2.465-1.787,5.293-2.223,8.06c-1.06-1.3-3.297-0.892-4.404,0.37
				c-1.106,1.261-1.386,3.024-1.621,4.685h33.359L380.025,81.652z"/>
		</g>
	</g>
	<g>
		<g>
			<g>
				<path style="fill:#E0E0E0;" d="M379.96,418.47c-0.12,0.08-2.224-2.878-4.7-6.605c-2.477-3.729-4.386-6.815-4.267-6.894
					c0.12-0.08,2.224,2.878,4.7,6.606C378.169,415.304,380.079,418.391,379.96,418.47z"/>
			</g>
		</g>
		<g>
			<g>
				<path style="fill:#E0E0E0;" d="M384.16,417.82c-0.063,0.023-0.428-0.765-0.893-2.086c-0.466-1.321-1.015-3.182-1.451-5.276
					c-0.434-2.096-0.671-4.022-0.77-5.419c-0.099-1.398-0.079-2.265-0.011-2.269c0.157-0.01,0.419,3.431,1.291,7.582
					C383.179,414.505,384.309,417.767,384.16,417.82z"/>
			</g>
		</g>
		<g>
			<g>
				<path style="fill:#E0E0E0;" d="M391.001,404.38c0.14,0.035-0.507,3.143-1.444,6.942c-0.937,3.8-1.81,6.852-1.95,6.818
					c-0.139-0.035,0.507-3.142,1.444-6.942C389.988,407.399,390.861,404.346,391.001,404.38z"/>
			</g>
		</g>
	</g>
	<g>
		<g>
			<g>
				<path style="fill:#E0E0E0;" d="M396.852,328.008c-0.12,0.08-2.224-2.878-4.7-6.605c-2.477-3.728-4.386-6.815-4.267-6.894
					c0.12-0.079,2.224,2.878,4.7,6.606C395.062,324.842,396.972,327.929,396.852,328.008z"/>
			</g>
		</g>
		<g>
			<g>
				<path style="fill:#E0E0E0;" d="M401.053,327.358c-0.063,0.023-0.428-0.765-0.893-2.086c-0.466-1.321-1.015-3.181-1.451-5.276
					c-0.434-2.096-0.671-4.022-0.77-5.419c-0.099-1.398-0.079-2.265-0.011-2.269c0.157-0.01,0.419,3.431,1.291,7.582
					C400.072,324.043,401.201,327.305,401.053,327.358z"/>
			</g>
		</g>
		<g>
			<g>
				<path style="fill:#E0E0E0;" d="M407.893,313.918c0.14,0.035-0.507,3.143-1.444,6.942c-0.937,3.8-1.81,6.852-1.95,6.818
					c-0.139-0.034,0.507-3.142,1.444-6.942C406.881,316.936,407.754,313.884,407.893,313.918z"/>
			</g>
		</g>
	</g>
	<g>
		<g>
			<g>
				<path style="fill:#E0E0E0;" d="M251.282,408.379c-0.12,0.08-2.224-2.878-4.7-6.605c-2.477-3.729-4.387-6.815-4.267-6.894
					c0.12-0.08,2.224,2.878,4.701,6.606C249.492,405.212,251.402,408.299,251.282,408.379z"/>
			</g>
		</g>
		<g>
			<g>
				<path style="fill:#E0E0E0;" d="M255.483,407.728c-0.063,0.023-0.428-0.765-0.893-2.086c-0.466-1.321-1.015-3.181-1.451-5.276
					c-0.434-2.096-0.671-4.022-0.77-5.419c-0.099-1.398-0.079-2.265-0.011-2.269c0.157-0.01,0.419,3.431,1.291,7.582
					C254.502,404.413,255.631,407.675,255.483,407.728z"/>
			</g>
		</g>
		<g>
			<g>
				<path style="fill:#E0E0E0;" d="M262.323,394.289c0.14,0.034-0.507,3.143-1.444,6.942c-0.937,3.8-1.81,6.852-1.95,6.818
					c-0.14-0.034,0.507-3.142,1.444-6.942C261.311,397.307,262.184,394.254,262.323,394.289z"/>
			</g>
		</g>
	</g>
	<g>
		<g>
			<g>
				<path style="fill:#E0E0E0;" d="M39.729,370.924c-0.12,0.08-2.224-2.878-4.7-6.605c-2.477-3.729-4.387-6.815-4.267-6.894
					c0.12-0.08,2.224,2.878,4.701,6.606C37.938,367.757,39.848,370.844,39.729,370.924z"/>
			</g>
		</g>
		<g>
			<g>
				<path style="fill:#E0E0E0;" d="M43.93,370.273c-0.063,0.023-0.428-0.765-0.893-2.086c-0.466-1.321-1.015-3.182-1.451-5.276
					c-0.434-2.096-0.671-4.022-0.77-5.419c-0.099-1.398-0.079-2.265-0.011-2.269c0.157-0.01,0.419,3.431,1.291,7.582
					C42.948,366.958,44.078,370.22,43.93,370.273z"/>
			</g>
		</g>
		<g>
			<g>
				<path style="fill:#E0E0E0;" d="M50.77,356.834c0.14,0.034-0.507,3.143-1.444,6.942c-0.937,3.8-1.81,6.852-1.95,6.818
					c-0.14-0.034,0.507-3.142,1.444-6.942C49.757,359.852,50.63,356.799,50.77,356.834z"/>
			</g>
		</g>
	</g>
	<g>
		<g>
			<g>
				<g>
					<g>
						<g>
							<rect x="238.482" y="101.425" style="fill:#EBEBEB;" width="70.103" height="183.492"/>
						</g>
					</g>
					<g>
						<g>
							<rect x="273.533" y="101.425" style="fill:#E0E0E0;" width="35.051" height="183.492"/>
						</g>
					</g>
					<g>
						<g>
							<rect x="246.486" y="79.614" style="fill:#EBEBEB;" width="24.755" height="21.811"/>
						</g>
					</g>
					<g>
						<g>
							<rect x="265.341" y="79.614" style="fill:#E0E0E0;" width="5.9" height="21.811"/>
						</g>
					</g>
					<g>
						<g>
							<rect x="232.639" y="100.153" style="fill:#E0E0E0;" width="77.997" height="1.272"/>
						</g>
					</g>
					<g>
						<g>
							<rect x="252.319" y="110.938" style="fill:#FFFFFF;" width="5.934" height="12.512"/>
						</g>
					</g>
					<g>
						<g>
							<g>
								<path style="fill:#E0E0E0;" d="M273.533,128.361c0,0.132-7.847,0.239-17.525,0.239c-9.681,0-17.526-0.107-17.526-0.239
									c0-0.132,7.845-0.239,17.526-0.239C265.686,128.122,273.533,128.229,273.533,128.361z"/>
							</g>
						</g>
					</g>
					<g>
						<g>
							<g>
								<rect x="287.676" y="110.938" style="fill:#F5F5F5;" width="5.934" height="12.512"/>
							</g>
						</g>
						<g>
							<g>
								<g>
									<path style="fill:#EBEBEB;" d="M308.889,128.361c0,0.132-7.847,0.239-17.525,0.239c-9.681,0-17.527-0.107-17.527-0.239
										c0-0.132,7.845-0.239,17.527-0.239C301.042,128.122,308.889,128.229,308.889,128.361z"/>
								</g>
							</g>
						</g>
					</g>
					<g>
						<g>
							<g>
								<rect x="287.676" y="135.779" style="fill:#F5F5F5;" width="5.934" height="12.512"/>
							</g>
						</g>
						<g>
							<g>
								<g>
									<path style="fill:#EBEBEB;" d="M308.889,153.202c0,0.132-7.847,0.239-17.525,0.239c-9.681,0-17.527-0.107-17.527-0.239
										c0-0.132,7.845-0.239,17.527-0.239C301.042,152.963,308.889,153.07,308.889,153.202z"/>
								</g>
							</g>
						</g>
					</g>
					<g>
						<g>
							<g>
								<rect x="287.676" y="161.37" style="fill:#F5F5F5;" width="5.934" height="12.512"/>
							</g>
						</g>
						<g>
							<g>
								<g>
									<path style="fill:#EBEBEB;" d="M308.889,178.793c0,0.132-7.847,0.239-17.525,0.239c-9.681,0-17.527-0.107-17.527-0.239
										c0-0.132,7.845-0.239,17.527-0.239C301.042,178.555,308.889,178.661,308.889,178.793z"/>
								</g>
							</g>
						</g>
					</g>
					<g>
						<g>
							<g>
								<rect x="287.676" y="186.962" style="fill:#F5F5F5;" width="5.934" height="12.512"/>
							</g>
						</g>
						<g>
							<g>
								<g>
									<path style="fill:#EBEBEB;" d="M308.889,204.385c0,0.132-7.847,0.239-17.525,0.239c-9.681,0-17.527-0.107-17.527-0.239
										c0-0.132,7.845-0.239,17.527-0.239C301.042,204.145,308.889,204.253,308.889,204.385z"/>
								</g>
							</g>
						</g>
					</g>
					<g>
						<g>
							<g>
								<rect x="287.676" y="211.821" style="fill:#F5F5F5;" width="5.934" height="12.512"/>
							</g>
						</g>
						<g>
							<g>
								<g>
									<path style="fill:#EBEBEB;" d="M308.889,229.244c0,0.132-7.847,0.239-17.525,0.239c-9.681,0-17.527-0.107-17.527-0.239
										c0-0.132,7.845-0.239,17.527-0.239C301.042,229.005,308.889,229.112,308.889,229.244z"/>
								</g>
							</g>
						</g>
					</g>
					<g>
						<g>
							<g>
								<rect x="287.676" y="236.781" style="fill:#F5F5F5;" width="5.934" height="12.512"/>
							</g>
						</g>
						<g>
							<g>
								<rect x="287.676" y="262.067" style="fill:#F5F5F5;" width="5.934" height="12.512"/>
							</g>
						</g>
						<g>
							<g>
								<g>
									<path style="fill:#EBEBEB;" d="M308.889,254.203c0,0.132-7.847,0.239-17.525,0.239c-9.681,0-17.527-0.107-17.527-0.239
										c0-0.132,7.845-0.239,17.527-0.239C301.042,253.965,308.889,254.072,308.889,254.203z"/>
								</g>
							</g>
						</g>
					</g>
					<g>
						<g>
							<rect x="252.319" y="136.159" style="fill:#FFFFFF;" width="5.934" height="12.512"/>
						</g>
					</g>
					<g>
						<g>
							<g>
								<path style="fill:#E0E0E0;" d="M273.533,153.581c0,0.132-7.847,0.239-17.525,0.239c-9.681,0-17.526-0.107-17.526-0.239
									c0-0.132,7.845-0.239,17.526-0.239C265.686,153.342,273.533,153.449,273.533,153.581z"/>
							</g>
						</g>
					</g>
					<g>
						<g>
							<rect x="252.319" y="161.379" style="fill:#FFFFFF;" width="5.934" height="12.512"/>
						</g>
					</g>
					<g>
						<g>
							<g>
								<path style="fill:#E0E0E0;" d="M273.533,178.802c0,0.132-7.847,0.239-17.525,0.239c-9.681,0-17.526-0.107-17.526-0.239
									c0-0.132,7.845-0.239,17.526-0.239C265.686,178.563,273.533,178.67,273.533,178.802z"/>
							</g>
						</g>
					</g>
					<g>
						<g>
							<rect x="252.319" y="186.6" style="fill:#FFFFFF;" width="5.934" height="12.512"/>
						</g>
					</g>
					<g>
						<g>
							<g>
								<path style="fill:#E0E0E0;" d="M273.533,204.023c0,0.132-7.847,0.239-17.525,0.239c-9.681,0-17.526-0.107-17.526-0.239
									c0-0.132,7.845-0.239,17.526-0.239C265.686,203.784,273.533,203.891,273.533,204.023z"/>
							</g>
						</g>
					</g>
					<g>
						<g>
							<rect x="252.319" y="211.821" style="fill:#FFFFFF;" width="5.934" height="12.512"/>
						</g>
					</g>
					<g>
						<g>
							<g>
								<path style="fill:#E0E0E0;" d="M273.533,229.244c0,0.132-7.847,0.239-17.525,0.239c-9.681,0-17.526-0.107-17.526-0.239
									c0-0.132,7.845-0.239,17.526-0.239C265.686,229.005,273.533,229.112,273.533,229.244z"/>
							</g>
						</g>
					</g>
					<g>
						<g>
							<rect x="252.319" y="237.042" style="fill:#FFFFFF;" width="5.934" height="12.512"/>
						</g>
					</g>
					<g>
						<g>
							<g>
								<path style="fill:#E0E0E0;" d="M273.533,254.465c0,0.132-7.847,0.239-17.525,0.239c-9.681,0-17.526-0.107-17.526-0.239
									c0-0.132,7.845-0.239,17.526-0.239C265.686,254.226,273.533,254.333,273.533,254.465z"/>
							</g>
						</g>
					</g>
					<g>
						<g>
							<g>
								<rect x="252.319" y="262.263" style="fill:#FFFFFF;" width="5.934" height="12.512"/>
							</g>
						</g>
					</g>
				</g>
			</g>
			<g>
				<g>
					<g>
						<g>
							<rect x="88.299" y="81.501" style="fill:#EBEBEB;" width="70.103" height="203.416"/>
						</g>
					</g>
					<g>
						<g>
							<rect x="123.351" y="81.501" style="fill:#E0E0E0;" width="35.051" height="203.416"/>
						</g>
					</g>
					<g>
						<g>
							<rect x="96.304" y="57.469" style="fill:#EBEBEB;" width="24.755" height="24.031"/>
						</g>
					</g>
					<g>
						<g>
							<rect x="115.159" y="57.469" style="fill:#E0E0E0;" width="5.9" height="24.031"/>
						</g>
					</g>
					<g>
						<g>
							<rect x="82.457" y="80.099" style="fill:#E0E0E0;" width="77.997" height="1.402"/>
						</g>
					</g>
					<g>
						<g>
							<rect x="102.137" y="91.982" style="fill:#FFFFFF;" width="5.934" height="13.785"/>
						</g>
					</g>
					<g>
						<g>
							<g>
								<path style="fill:#E0E0E0;" d="M123.351,111.178c0,0.146-7.847,0.263-17.525,0.263c-9.681,0-17.527-0.118-17.527-0.263
									c0-0.146,7.845-0.263,17.527-0.263C115.503,110.915,123.351,111.032,123.351,111.178z"/>
							</g>
						</g>
					</g>
					<g>
						<g>
							<g>
								<rect x="137.493" y="91.982" style="fill:#F5F5F5;" width="5.934" height="13.785"/>
							</g>
						</g>
						<g>
							<g>
								<g>
									<path style="fill:#EBEBEB;" d="M158.707,111.178c0,0.146-7.847,0.263-17.525,0.263c-9.681,0-17.527-0.118-17.527-0.263
										c0-0.146,7.845-0.263,17.527-0.263C150.86,110.915,158.707,111.032,158.707,111.178z"/>
								</g>
							</g>
						</g>
					</g>
					<g>
						<g>
							<g>
								<rect x="137.493" y="119.352" style="fill:#F5F5F5;" width="5.934" height="13.785"/>
							</g>
						</g>
						<g>
							<g>
								<g>
									<path style="fill:#EBEBEB;" d="M158.707,138.548c0,0.146-7.847,0.263-17.525,0.263c-9.681,0-17.527-0.118-17.527-0.263
										c0-0.145,7.845-0.263,17.527-0.263C150.86,138.284,158.707,138.402,158.707,138.548z"/>
								</g>
							</g>
						</g>
					</g>
					<g>
						<g>
							<g>
								<rect x="137.493" y="147.547" style="fill:#F5F5F5;" width="5.934" height="13.786"/>
							</g>
						</g>
						<g>
							<g>
								<g>
									<path style="fill:#EBEBEB;" d="M158.707,166.743c0,0.145-7.847,0.263-17.525,0.263c-9.681,0-17.527-0.118-17.527-0.263
										s7.845-0.263,17.527-0.263C150.86,166.48,158.707,166.598,158.707,166.743z"/>
								</g>
							</g>
						</g>
					</g>
					<g>
						<g>
							<g>
								<rect x="137.493" y="175.743" style="fill:#F5F5F5;" width="5.934" height="13.786"/>
							</g>
						</g>
						<g>
							<g>
								<g>
									<path style="fill:#EBEBEB;" d="M158.707,194.939c0,0.145-7.847,0.263-17.525,0.263c-9.681,0-17.527-0.118-17.527-0.263
										c0-0.145,7.845-0.263,17.527-0.263C150.86,194.676,158.707,194.794,158.707,194.939z"/>
								</g>
							</g>
						</g>
					</g>
					<g>
						<g>
							<g>
								<rect x="137.493" y="203.133" style="fill:#F5F5F5;" width="5.934" height="13.786"/>
							</g>
						</g>
						<g>
							<g>
								<g>
									<path style="fill:#EBEBEB;" d="M158.707,222.329c0,0.145-7.847,0.263-17.525,0.263c-9.681,0-17.527-0.118-17.527-0.263
										c0-0.145,7.845-0.263,17.527-0.263C150.86,222.065,158.707,222.184,158.707,222.329z"/>
								</g>
							</g>
						</g>
					</g>
					<g>
						<g>
							<g>
								<rect x="137.493" y="230.633" style="fill:#F5F5F5;" width="5.934" height="13.785"/>
							</g>
						</g>
						<g>
							<g>
								<rect x="137.493" y="258.493" style="fill:#F5F5F5;" width="5.934" height="13.786"/>
							</g>
						</g>
						<g>
							<g>
								<g>
									<path style="fill:#EBEBEB;" d="M158.707,249.829c0,0.145-7.847,0.263-17.525,0.263c-9.681,0-17.527-0.118-17.527-0.263
										c0-0.145,7.845-0.263,17.527-0.263C150.86,249.566,158.707,249.683,158.707,249.829z"/>
								</g>
							</g>
						</g>
					</g>
					<g>
						<g>
							<rect x="102.137" y="119.769" style="fill:#FFFFFF;" width="5.934" height="13.785"/>
						</g>
					</g>
					<g>
						<g>
							<g>
								<path style="fill:#E0E0E0;" d="M123.351,138.965c0,0.146-7.847,0.264-17.525,0.264c-9.681,0-17.527-0.118-17.527-0.264
									c0-0.145,7.845-0.263,17.527-0.263C115.503,138.702,123.351,138.82,123.351,138.965z"/>
							</g>
						</g>
					</g>
					<g>
						<g>
							<rect x="102.137" y="147.557" style="fill:#FFFFFF;" width="5.934" height="13.785"/>
						</g>
					</g>
					<g>
						<g>
							<g>
								<path style="fill:#E0E0E0;" d="M123.351,166.753c0,0.146-7.847,0.264-17.525,0.264c-9.681,0-17.527-0.118-17.527-0.264
									c0-0.145,7.845-0.263,17.527-0.263C115.503,166.49,123.351,166.608,123.351,166.753z"/>
							</g>
						</g>
					</g>
					<g>
						<g>
							<rect x="102.137" y="175.345" style="fill:#FFFFFF;" width="5.934" height="13.785"/>
						</g>
					</g>
					<g>
						<g>
							<g>
								<path style="fill:#E0E0E0;" d="M123.351,194.541c0,0.145-7.847,0.263-17.525,0.263c-9.681,0-17.527-0.118-17.527-0.263
									c0-0.146,7.845-0.263,17.527-0.263C115.503,194.278,123.351,194.395,123.351,194.541z"/>
							</g>
						</g>
					</g>
					<g>
						<g>
							<rect x="102.137" y="203.133" style="fill:#FFFFFF;" width="5.934" height="13.786"/>
						</g>
					</g>
					<g>
						<g>
							<g>
								<path style="fill:#E0E0E0;" d="M123.351,222.329c0,0.145-7.847,0.263-17.525,0.263c-9.681,0-17.527-0.118-17.527-0.263
									c0-0.145,7.845-0.263,17.527-0.263C115.503,222.065,123.351,222.184,123.351,222.329z"/>
							</g>
						</g>
					</g>
					<g>
						<g>
							<rect x="102.137" y="230.92" style="fill:#FFFFFF;" width="5.934" height="13.785"/>
						</g>
					</g>
					<g>
						<g>
							<g>
								<path style="fill:#E0E0E0;" d="M123.351,250.117c0,0.145-7.847,0.263-17.525,0.263c-9.681,0-17.527-0.118-17.527-0.263
									c0-0.145,7.845-0.263,17.527-0.263C115.503,249.853,123.351,249.971,123.351,250.117z"/>
							</g>
						</g>
					</g>
					<g>
						<g>
							<g>
								<rect x="102.137" y="258.708" style="fill:#FFFFFF;" width="5.934" height="13.786"/>
							</g>
						</g>
					</g>
				</g>
			</g>
			<g>
				<g>
					<g>
						<g>
							<rect x="173.677" y="148.214" style="fill:#E0E0E0;" width="72.03" height="136.703"/>
						</g>
					</g>
					<g>
						<g>
							<rect x="211.934" y="148.214" style="fill:#EBEBEB;" width="33.773" height="136.703"/>
						</g>
					</g>
				</g>
				<g>
					<g>
						<g>
							<rect x="188.78" y="161.076" style="fill:#F5F5F5;" width="6.476" height="15.735"/>
						</g>
					</g>
					<g>
						<g>
							<rect x="188.78" y="222.66" style="fill:#F5F5F5;" width="6.476" height="15.735"/>
						</g>
					</g>
					<g>
						<g>
							<g>
								<path style="fill:#F5F5F5;" d="M211.934,182.987c0,0.136-8.565,0.245-19.128,0.245c-10.566,0-19.129-0.109-19.129-0.245
									c0-0.135,8.563-0.245,19.129-0.245C203.369,182.742,211.934,182.852,211.934,182.987z"/>
							</g>
						</g>
					</g>
				</g>
				<g>
					<g>
						<g>
							<rect x="188.78" y="192.102" style="fill:#F5F5F5;" width="6.476" height="15.735"/>
						</g>
					</g>
					<g>
						<g>
							<g>
								<path style="fill:#F5F5F5;" d="M211.934,214.012c0,0.136-8.565,0.245-19.128,0.245c-10.566,0-19.129-0.11-19.129-0.245
									c0-0.135,8.563-0.245,19.129-0.245C203.369,213.767,211.934,213.877,211.934,214.012z"/>
							</g>
						</g>
					</g>
				</g>
				<g>
					<g>
						<rect x="219.106" y="161.076" style="fill:#E0E0E0;" width="6.477" height="15.735"/>
					</g>
				</g>
				<g>
					<g>
						<rect x="233.157" y="161.076" style="fill:#E0E0E0;" width="6.477" height="15.735"/>
					</g>
				</g>
				<g>
					<g>
						<rect x="219.106" y="190.934" style="fill:#E0E0E0;" width="6.477" height="15.735"/>
					</g>
				</g>
				<g>
					<g>
						<rect x="233.157" y="190.934" style="fill:#E0E0E0;" width="6.477" height="15.735"/>
					</g>
				</g>
				<g>
					<g>
						<rect x="219.106" y="220.792" style="fill:#E0E0E0;" width="6.477" height="15.735"/>
					</g>
				</g>
				<g>
					<g>
						<rect x="233.157" y="220.792" style="fill:#E0E0E0;" width="6.477" height="15.735"/>
					</g>
				</g>
				<g>
					<g>
						<rect x="168.263" y="144.907" style="fill:#E0E0E0;" width="82.86" height="3.426"/>
					</g>
				</g>
				<g>
					<g>
						<g>
							<path style="fill:#EBEBEB;" d="M246.211,148.655c0,0.135-16.099,0.245-35.954,0.245c-19.862,0-35.958-0.11-35.958-0.245
								s16.096-0.245,35.958-0.245C230.111,148.41,246.211,148.52,246.211,148.655z"/>
						</g>
					</g>
				</g>
			</g>
			<g>
				<g>
					<g>
						<rect x="411.467" y="99.687" style="fill:#F5F5F5;" width="58.453" height="185.25"/>
					</g>
				</g>
				<g>
					<g>
						<rect x="440.694" y="99.687" style="fill:#EBEBEB;" width="29.226" height="184.74"/>
					</g>
				</g>
				<g>
					<g>
						<rect x="418.142" y="81.501" style="fill:#F5F5F5;" width="20.641" height="18.187"/>
					</g>
				</g>
				<g>
					<g>
						<rect x="433.863" y="81.501" style="fill:#EBEBEB;" width="4.92" height="18.187"/>
					</g>
				</g>
				<g>
					<g>
						<polyline style="fill:#E0E0E0;" points="406.596,99.687 406.596,98.627 471.63,98.627 471.63,99.687 						"/>
					</g>
				</g>
				<g>
					<g>
						<rect x="423.005" y="107.619" style="fill:#FAFAFA;" width="4.948" height="10.433"/>
					</g>
				</g>
				<g>
					<g>
						<g>
							<path style="fill:#E0E0E0;" d="M440.694,122.146c0,0.11-6.543,0.199-14.613,0.199c-8.072,0-14.614-0.089-14.614-0.199
								s6.542-0.199,14.614-0.199C434.15,121.947,440.694,122.036,440.694,122.146z"/>
						</g>
					</g>
				</g>
				<g>
					<g>
						<g>
							<rect x="452.486" y="107.619" style="fill:#E0E0E0;" width="4.948" height="10.433"/>
						</g>
					</g>
					<g>
						<g>
							<g>
								<path style="fill:#E0E0E0;" d="M470.174,122.146c0,0.11-6.543,0.199-14.612,0.199c-8.072,0-14.614-0.089-14.614-0.199
									s6.542-0.199,14.614-0.199C463.631,121.947,470.174,122.036,470.174,122.146z"/>
							</g>
						</g>
					</g>
				</g>
				<g>
					<g>
						<g>
							<rect x="452.486" y="128.332" style="fill:#E0E0E0;" width="4.948" height="10.433"/>
						</g>
					</g>
					<g>
						<g>
							<g>
								<path style="fill:#E0E0E0;" d="M470.174,142.86c0,0.11-6.543,0.199-14.612,0.199c-8.072,0-14.614-0.089-14.614-0.199
									c0-0.11,6.542-0.199,14.614-0.199C463.631,142.661,470.174,142.75,470.174,142.86z"/>
							</g>
						</g>
					</g>
				</g>
				<g>
					<g>
						<g>
							<rect x="452.486" y="149.67" style="fill:#E0E0E0;" width="4.948" height="10.433"/>
						</g>
					</g>
					<g>
						<g>
							<g>
								<path style="fill:#E0E0E0;" d="M470.174,164.198c0,0.11-6.543,0.199-14.612,0.199c-8.072,0-14.614-0.089-14.614-0.199
									c0-0.11,6.542-0.199,14.614-0.199C463.631,163.999,470.174,164.088,470.174,164.198z"/>
							</g>
						</g>
					</g>
				</g>
				<g>
					<g>
						<g>
							<rect x="452.486" y="171.009" style="fill:#E0E0E0;" width="4.948" height="10.433"/>
						</g>
					</g>
					<g>
						<g>
							<g>
								<path style="fill:#E0E0E0;" d="M470.174,185.536c0,0.11-6.543,0.199-14.612,0.199c-8.072,0-14.614-0.089-14.614-0.199
									c0-0.11,6.542-0.199,14.614-0.199C463.631,185.337,470.174,185.426,470.174,185.536z"/>
							</g>
						</g>
					</g>
				</g>
				<g>
					<g>
						<g>
							<rect x="452.486" y="191.737" style="fill:#E0E0E0;" width="4.948" height="10.433"/>
						</g>
					</g>
					<g>
						<g>
							<g>
								<path style="fill:#E0E0E0;" d="M470.174,206.264c0,0.11-6.543,0.199-14.612,0.199c-8.072,0-14.614-0.089-14.614-0.199
									c0-0.11,6.542-0.199,14.614-0.199C463.631,206.065,470.174,206.154,470.174,206.264z"/>
							</g>
						</g>
					</g>
				</g>
				<g>
					<g>
						<g>
							<rect x="452.486" y="212.548" style="fill:#E0E0E0;" width="4.948" height="10.433"/>
						</g>
					</g>
					<g>
						<g>
							<rect x="452.486" y="233.632" style="fill:#E0E0E0;" width="4.948" height="10.433"/>
						</g>
					</g>
					<g>
						<g>
							<g>
								<path style="fill:#E0E0E0;" d="M470.174,227.076c0,0.11-6.543,0.199-14.612,0.199c-8.072,0-14.614-0.089-14.614-0.199
									c0-0.11,6.542-0.199,14.614-0.199C463.631,226.876,470.174,226.966,470.174,227.076z"/>
							</g>
						</g>
					</g>
				</g>
				<g>
					<g>
						<rect x="423.005" y="128.648" style="fill:#FAFAFA;" width="4.948" height="10.433"/>
					</g>
				</g>
				<g>
					<g>
						<g>
							<path style="fill:#E0E0E0;" d="M440.694,143.176c0,0.11-6.543,0.199-14.613,0.199c-8.072,0-14.614-0.089-14.614-0.199
								c0-0.11,6.542-0.199,14.614-0.199C434.15,142.977,440.694,143.066,440.694,143.176z"/>
						</g>
					</g>
				</g>
				<g>
					<g>
						<rect x="423.005" y="149.678" style="fill:#FAFAFA;" width="4.948" height="10.433"/>
					</g>
				</g>
				<g>
					<g>
						<g>
							<path style="fill:#E0E0E0;" d="M440.694,164.205c0,0.11-6.543,0.199-14.613,0.199c-8.072,0-14.614-0.089-14.614-0.199
								c0-0.11,6.542-0.199,14.614-0.199C434.15,164.006,440.694,164.095,440.694,164.205z"/>
						</g>
					</g>
				</g>
				<g>
					<g>
						<rect x="423.005" y="170.707" style="fill:#FAFAFA;" width="4.948" height="10.433"/>
					</g>
				</g>
				<g>
					<g>
						<g>
							<path style="fill:#E0E0E0;" d="M440.694,185.235c0,0.11-6.543,0.199-14.613,0.199c-8.072,0-14.614-0.089-14.614-0.199
								c0-0.11,6.542-0.199,14.614-0.199C434.15,185.036,440.694,185.125,440.694,185.235z"/>
						</g>
					</g>
				</g>
				<g>
					<g>
						<rect x="423.005" y="191.737" style="fill:#FAFAFA;" width="4.948" height="10.433"/>
					</g>
				</g>
				<g>
					<g>
						<g>
							<path style="fill:#E0E0E0;" d="M440.694,206.264c0,0.11-6.543,0.199-14.613,0.199c-8.072,0-14.614-0.089-14.614-0.199
								c0-0.11,6.542-0.199,14.614-0.199C434.15,206.065,440.694,206.154,440.694,206.264z"/>
						</g>
					</g>
				</g>
				<g>
					<g>
						<rect x="423.005" y="212.766" style="fill:#FAFAFA;" width="4.948" height="10.433"/>
					</g>
				</g>
				<g>
					<g>
						<g>
							<path style="fill:#E0E0E0;" d="M440.694,227.293c0,0.11-6.543,0.199-14.613,0.199c-8.072,0-14.614-0.089-14.614-0.199
								c0-0.11,6.542-0.199,14.614-0.199C434.15,227.094,440.694,227.183,440.694,227.293z"/>
						</g>
					</g>
				</g>
				<g>
					<g>
						<g>
							<rect x="423.005" y="233.795" style="fill:#FAFAFA;" width="4.948" height="10.433"/>
						</g>
					</g>
				</g>
			</g>
			<g>
				<g>
					<g>
						<rect x="45.726" y="117.829" style="fill:#F5F5F5;" width="52.722" height="167.088"/>
					</g>
				</g>
				<g>
					<g>
						<rect x="72.087" y="117.829" style="fill:#EBEBEB;" width="26.361" height="166.628"/>
					</g>
				</g>
				<g>
					<g>
						<rect x="51.746" y="101.425" style="fill:#F5F5F5;" width="18.618" height="16.404"/>
					</g>
				</g>
				<g>
					<g>
						<rect x="65.926" y="101.425" style="fill:#EBEBEB;" width="4.437" height="16.404"/>
					</g>
				</g>
				<g>
					<g>
						<polyline style="fill:#E0E0E0;" points="41.332,117.829 41.332,116.872 99.991,116.872 99.991,117.829 						"/>
					</g>
				</g>
				<g>
					<g>
						<rect x="56.133" y="124.983" style="fill:#FAFAFA;" width="4.463" height="9.41"/>
					</g>
				</g>
				<g>
					<g>
						<g>
							<path style="fill:#E0E0E0;" d="M72.087,138.086c0,0.099-5.902,0.18-13.18,0.18c-7.281,0-13.181-0.08-13.181-0.18
								c0-0.099,5.9-0.18,13.181-0.18C66.185,137.906,72.087,137.987,72.087,138.086z"/>
						</g>
					</g>
				</g>
				<g>
					<g>
						<g>
							<rect x="82.723" y="124.983" style="fill:#E0E0E0;" width="4.463" height="9.41"/>
						</g>
					</g>
					<g>
						<g>
							<g>
								<path style="fill:#E0E0E0;" d="M98.677,138.086c0,0.099-5.902,0.18-13.18,0.18c-7.281,0-13.181-0.08-13.181-0.18
									c0-0.099,5.9-0.18,13.181-0.18C92.776,137.906,98.677,137.987,98.677,138.086z"/>
							</g>
						</g>
					</g>
				</g>
				<g>
					<g>
						<g>
							<rect x="82.723" y="143.665" style="fill:#E0E0E0;" width="4.463" height="9.41"/>
						</g>
					</g>
					<g>
						<g>
							<g>
								<path style="fill:#E0E0E0;" d="M98.677,156.769c0,0.099-5.902,0.18-13.18,0.18c-7.281,0-13.181-0.08-13.181-0.18
									c0-0.099,5.9-0.18,13.181-0.18C92.776,156.589,98.677,156.669,98.677,156.769z"/>
							</g>
						</g>
					</g>
				</g>
				<g>
					<g>
						<g>
							<rect x="82.723" y="162.912" style="fill:#E0E0E0;" width="4.463" height="9.41"/>
						</g>
					</g>
					<g>
						<g>
							<g>
								<path style="fill:#E0E0E0;" d="M98.677,176.015c0,0.099-5.902,0.18-13.18,0.18c-7.281,0-13.181-0.08-13.181-0.18
									c0-0.099,5.9-0.18,13.181-0.18C92.776,175.835,98.677,175.915,98.677,176.015z"/>
							</g>
						</g>
					</g>
				</g>
				<g>
					<g>
						<g>
							<rect x="82.723" y="182.158" style="fill:#E0E0E0;" width="4.463" height="9.41"/>
						</g>
					</g>
					<g>
						<g>
							<g>
								<path style="fill:#E0E0E0;" d="M98.677,195.261c0,0.099-5.902,0.18-13.18,0.18c-7.281,0-13.181-0.08-13.181-0.18
									c0-0.099,5.9-0.18,13.181-0.18C92.776,195.081,98.677,195.162,98.677,195.261z"/>
							</g>
						</g>
					</g>
				</g>
				<g>
					<g>
						<g>
							<rect x="82.723" y="200.854" style="fill:#E0E0E0;" width="4.463" height="9.41"/>
						</g>
					</g>
					<g>
						<g>
							<g>
								<path style="fill:#E0E0E0;" d="M98.677,213.957c0,0.099-5.902,0.18-13.18,0.18c-7.281,0-13.181-0.08-13.181-0.18
									c0-0.099,5.9-0.18,13.181-0.18C92.776,213.777,98.677,213.858,98.677,213.957z"/>
							</g>
						</g>
					</g>
				</g>
				<g>
					<g>
						<g>
							<rect x="82.723" y="219.625" style="fill:#E0E0E0;" width="4.463" height="9.41"/>
						</g>
					</g>
					<g>
						<g>
							<rect x="82.723" y="238.642" style="fill:#E0E0E0;" width="4.463" height="9.41"/>
						</g>
					</g>
					<g>
						<g>
							<g>
								<path style="fill:#E0E0E0;" d="M98.677,232.728c0,0.099-5.902,0.18-13.18,0.18c-7.281,0-13.181-0.081-13.181-0.18
									c0-0.099,5.9-0.18,13.181-0.18C92.776,232.549,98.677,232.629,98.677,232.728z"/>
							</g>
						</g>
					</g>
				</g>
				<g>
					<g>
						<rect x="56.133" y="143.951" style="fill:#FAFAFA;" width="4.463" height="9.41"/>
					</g>
				</g>
				<g>
					<g>
						<g>
							<path style="fill:#E0E0E0;" d="M72.087,157.054c0,0.099-5.902,0.18-13.18,0.18c-7.281,0-13.181-0.08-13.181-0.18
								c0-0.099,5.9-0.18,13.181-0.18C66.185,156.874,72.087,156.954,72.087,157.054z"/>
						</g>
					</g>
				</g>
				<g>
					<g>
						<rect x="56.133" y="162.918" style="fill:#FAFAFA;" width="4.463" height="9.41"/>
					</g>
				</g>
				<g>
					<g>
						<g>
							<path style="fill:#E0E0E0;" d="M72.087,176.021c0,0.1-5.902,0.18-13.18,0.18c-7.281,0-13.181-0.08-13.181-0.18
								c0-0.099,5.9-0.18,13.181-0.18C66.185,175.842,72.087,175.922,72.087,176.021z"/>
						</g>
					</g>
				</g>
				<g>
					<g>
						<rect x="56.133" y="181.886" style="fill:#FAFAFA;" width="4.463" height="9.41"/>
					</g>
				</g>
				<g>
					<g>
						<g>
							<path style="fill:#E0E0E0;" d="M72.087,194.989c0,0.099-5.902,0.18-13.18,0.18c-7.281,0-13.181-0.08-13.181-0.18
								c0-0.099,5.9-0.18,13.181-0.18C66.185,194.809,72.087,194.89,72.087,194.989z"/>
						</g>
					</g>
				</g>
				<g>
					<g>
						<rect x="56.133" y="200.854" style="fill:#FAFAFA;" width="4.463" height="9.41"/>
					</g>
				</g>
				<g>
					<g>
						<g>
							<path style="fill:#E0E0E0;" d="M72.087,213.957c0,0.099-5.902,0.18-13.18,0.18c-7.281,0-13.181-0.08-13.181-0.18
								c0-0.099,5.9-0.18,13.181-0.18C66.185,213.777,72.087,213.858,72.087,213.957z"/>
						</g>
					</g>
				</g>
				<g>
					<g>
						<rect x="56.133" y="219.822" style="fill:#FAFAFA;" width="4.463" height="9.41"/>
					</g>
				</g>
				<g>
					<g>
						<g>
							<path style="fill:#E0E0E0;" d="M72.087,232.924c0,0.099-5.902,0.18-13.18,0.18c-7.281,0-13.181-0.081-13.181-0.18
								c0-0.099,5.9-0.18,13.181-0.18C66.185,232.745,72.087,232.826,72.087,232.924z"/>
						</g>
					</g>
				</g>
				<g>
					<g>
						<g>
							<rect x="56.133" y="238.789" style="fill:#FAFAFA;" width="4.463" height="9.41"/>
						</g>
					</g>
				</g>
			</g>
			<g>
				<g>
					<g>
						<g>
							<polygon style="fill:#EBEBEB;" points="425.869,285.14 348.459,285.14 348.122,162.798 425.533,162.798 							"/>
						</g>
					</g>
					<g>
						<g>
							<rect x="386.827" y="162.798" style="fill:#E0E0E0;" width="38.705" height="122.343"/>
						</g>
					</g>
					<g>
						<g>
							<rect x="356.961" y="138.712" style="fill:#EBEBEB;" width="27.336" height="24.085"/>
						</g>
					</g>
					<g>
						<g>
							<rect x="377.782" y="138.712" style="fill:#E0E0E0;" width="6.515" height="24.085"/>
						</g>
					</g>
					<g>
						<g>
							<rect x="341.671" y="161.393" style="fill:#E0E0E0;" width="86.127" height="1.405"/>
						</g>
					</g>
					<g>
						<g>
							<rect x="363.402" y="173.302" style="fill:#FFFFFF;" width="6.552" height="13.816"/>
						</g>
					</g>
					<g>
						<g>
							<g>
								<path style="fill:#E0E0E0;" d="M386.827,192.541c0,0.146-8.665,0.264-19.352,0.264c-10.69,0-19.353-0.118-19.353-0.264
									c0-0.146,8.663-0.264,19.353-0.264C378.162,192.277,386.827,192.395,386.827,192.541z"/>
							</g>
						</g>
					</g>
					<g>
						<g>
							<g>
								<rect x="402.444" y="173.302" style="fill:#F5F5F5;" width="6.552" height="13.816"/>
							</g>
						</g>
						<g>
							<g>
								<g>
									<path style="fill:#EBEBEB;" d="M425.869,192.541c0,0.146-8.665,0.264-19.352,0.264c-10.69,0-19.354-0.118-19.354-0.264
										c0-0.146,8.663-0.264,19.354-0.264C417.204,192.277,425.869,192.395,425.869,192.541z"/>
								</g>
							</g>
						</g>
					</g>
					<g>
						<g>
							<g>
								<rect x="402.444" y="200.733" style="fill:#F5F5F5;" width="6.552" height="13.816"/>
							</g>
						</g>
						<g>
							<g>
								<g>
									<path style="fill:#EBEBEB;" d="M425.869,219.972c0,0.146-8.665,0.264-19.352,0.264c-10.69,0-19.354-0.118-19.354-0.264
										c0-0.145,8.663-0.264,19.354-0.264C417.204,219.708,425.869,219.827,425.869,219.972z"/>
								</g>
							</g>
						</g>
					</g>
					<g>
						<g>
							<g>
								<rect x="402.444" y="228.992" style="fill:#F5F5F5;" width="6.552" height="13.816"/>
							</g>
						</g>
						<g>
							<g>
								<g>
									<path style="fill:#EBEBEB;" d="M425.869,248.231c0,0.146-8.665,0.264-19.352,0.264c-10.69,0-19.354-0.118-19.354-0.264
										c0-0.146,8.663-0.264,19.354-0.264C417.204,247.967,425.869,248.085,425.869,248.231z"/>
								</g>
							</g>
						</g>
					</g>
					<g>
						<g>
							<g>
								<rect x="402.444" y="257.251" style="fill:#F5F5F5;" width="6.552" height="13.816"/>
							</g>
						</g>
						<g>
							<g>
								<g>
									<path style="fill:#EBEBEB;" d="M425.869,276.49c0,0.146-8.665,0.264-19.352,0.264c-10.69,0-19.354-0.118-19.354-0.264
										c0-0.146,8.663-0.264,19.354-0.264C417.204,276.226,425.869,276.344,425.869,276.49z"/>
								</g>
							</g>
						</g>
					</g>
					<g>
						<g>
							<rect x="363.402" y="201.152" style="fill:#FFFFFF;" width="6.552" height="13.816"/>
						</g>
					</g>
					<g>
						<g>
							<g>
								<path style="fill:#E0E0E0;" d="M386.827,220.391c0,0.146-8.665,0.264-19.352,0.264c-10.69,0-19.353-0.118-19.353-0.264
									c0-0.145,8.663-0.263,19.353-0.263C378.162,220.127,386.827,220.245,386.827,220.391z"/>
							</g>
						</g>
					</g>
					<g>
						<g>
							<rect x="363.402" y="229.002" style="fill:#FFFFFF;" width="6.552" height="13.816"/>
						</g>
					</g>
					<g>
						<g>
							<g>
								<path style="fill:#E0E0E0;" d="M386.827,248.241c0,0.146-8.665,0.264-19.352,0.264c-10.69,0-19.353-0.118-19.353-0.264
									c0-0.146,8.663-0.264,19.353-0.264C378.162,247.977,386.827,248.095,386.827,248.241z"/>
							</g>
						</g>
					</g>
					<g>
						<g>
							<rect x="363.402" y="256.852" style="fill:#FFFFFF;" width="6.552" height="13.816"/>
						</g>
					</g>
					<g>
						<g>
							<g>
								<path style="fill:#E0E0E0;" d="M386.827,276.091c0,0.146-8.665,0.264-19.352,0.264c-10.69,0-19.353-0.118-19.353-0.264
									c0-0.146,8.663-0.264,19.353-0.264C378.162,275.827,386.827,275.945,386.827,276.091z"/>
							</g>
						</g>
					</g>
				</g>
			</g>
		</g>
	</g>
</g>
<g id="Background_Simple" style="display:none;">
	<g style="display:inline;">
		<path style="fill:#F5F5F5;" d="M291.155,107.042l0.981,2.479c8.268,20.899,4.762,44.695-9.785,61.557
			c-1.87,2.168-3.897,4.201-6.071,6.075c-15.655,13.49-38.455,18.271-58.454,12.255c-11.762-3.538-23.046-10.589-35.24-9.626
			c-15.87,1.253-27.025,15.35-36.179,28.239c-9.153,12.89-20.353,26.968-36.229,28.151c-9.943,0.741-19.682-4.01-27.339-10.483
			c-20.272-17.136-28.001-46.173-23.199-72.009c4.803-25.836,20.669-48.512,40.33-65.868c27.542-24.314,64.12-39.562,101.096-37.365
			C238.041,52.646,274.62,73.838,291.155,107.042z"/>
	</g>
	<g style="display:inline;">
		
			<ellipse transform="matrix(0.1454 -0.9894 0.9894 0.1454 211.951 464.5019)" style="fill:#F5F5F5;" cx="374.854" cy="109.563" rx="33.681" ry="33.681"/>
	</g>
</g>
<g id="Floor">
	<g>
		<g>
			<path style="fill:#263238;" d="M29.413,284.917c0-0.144,96.977-0.26,216.577-0.26c119.641,0,216.598,0.117,216.598,0.26
				c0,0.144-96.956,0.26-216.598,0.26C126.39,285.177,29.413,285.061,29.413,284.917z"/>
		</g>
	</g>
</g>
<g id="Plants">
	<g>
		<g>
			<g>
				<path style="fill:#263238;" d="M425.722,376.095c-0.12,0.08-2.224-2.878-4.7-6.606c-2.477-3.728-4.386-6.815-4.267-6.894
					c0.12-0.079,2.224,2.878,4.701,6.606C423.932,372.929,425.842,376.016,425.722,376.095z"/>
			</g>
		</g>
		<g>
			<g>
				<path style="fill:#263238;" d="M429.923,375.445c-0.063,0.023-0.428-0.765-0.893-2.086c-0.466-1.321-1.015-3.182-1.451-5.276
					c-0.434-2.096-0.671-4.022-0.77-5.419c-0.099-1.398-0.079-2.265-0.011-2.269c0.157-0.01,0.419,3.431,1.291,7.582
					C428.942,372.13,430.072,375.392,429.923,375.445z"/>
			</g>
		</g>
		<g>
			<g>
				<path style="fill:#263238;" d="M436.763,362.005c0.14,0.034-0.507,3.143-1.444,6.942c-0.937,3.8-1.81,6.852-1.95,6.818
					c-0.14-0.035,0.507-3.142,1.444-6.942C435.751,365.023,436.624,361.971,436.763,362.005z"/>
			</g>
		</g>
	</g>
	<g>
		<g>
			<g>
				<path style="fill:#263238;" d="M207.973,447.885c-0.12,0.079-1.87-2.36-3.909-5.447c-2.039-3.088-3.595-5.655-3.475-5.734
					c0.12-0.079,1.87,2.359,3.909,5.448C206.537,445.238,208.093,447.806,207.973,447.885z"/>
			</g>
		</g>
		<g>
			<g>
				<path style="fill:#263238;" d="M212.083,446.455c-0.155,0.013-0.447-2.906-1.268-6.412c-0.806-3.511-1.828-6.259-1.683-6.316
					c0.12-0.055,1.373,2.64,2.19,6.199C212.154,443.48,212.215,446.452,212.083,446.455z"/>
			</g>
		</g>
		<g>
			<g>
				<path style="fill:#263238;" d="M223.279,431.142c0.062,0.017-0.146,1.046-0.655,2.663c-0.507,1.616-1.343,3.813-2.501,6.129
					c-1.162,2.316-2.42,4.301-3.41,5.675c-0.99,1.376-1.689,2.159-1.74,2.119c-0.063-0.048,0.53-0.908,1.435-2.326
					c0.906-1.417,2.1-3.41,3.25-5.702c1.146-2.293,2.026-4.442,2.619-6.017C222.87,432.11,223.203,431.12,223.279,431.142z"/>
			</g>
		</g>
	</g>
	<g>
		<g>
			<g>
				<path style="fill:#263238;" d="M67.121,324.578c0.045,0.008,0.031,0.332-0.036,0.923l-0.034,0.301l-0.195-0.253
					c-0.724-0.939-2.061-2.845-3.545-5.068c-2.178-3.261-3.846-5.969-3.726-6.049c0.12-0.08,1.981,2.498,4.159,5.759
					c1.484,2.222,2.732,4.188,3.322,5.217l-0.229,0.048C66.977,324.879,67.076,324.57,67.121,324.578z"/>
			</g>
		</g>
		<g>
			<g>
				<path style="fill:#263238;" d="M72.49,308.248c0.144-0.009,0.501,4.076,0.799,9.122c0.298,5.048,0.423,9.145,0.279,9.153
					c-0.144,0.009-0.501-4.075-0.799-9.123C72.471,312.355,72.347,308.257,72.49,308.248z"/>
			</g>
		</g>
		<g>
			<g>
				<path style="fill:#263238;" d="M85.048,315.428c0.125,0.04-0.761,2.842-2.574,5.96c-1.8,3.127-3.787,5.292-3.884,5.203
					c-0.122-0.098,1.66-2.382,3.433-5.464C83.811,318.055,84.903,315.372,85.048,315.428z"/>
			</g>
		</g>
	</g>
</g>
<g id="Speech_Bubble">
	<g>
		<g>
			<polygon style="fill:#FFFFFF;" points="290.818,208.523 276.879,184.677 251.997,194.397 260.382,169.507 240.169,158.841 
				261.046,148.971 253.46,127.016 277.679,135.574 286.295,112.454 298.399,134.173 321.96,123.638 317.359,149.736 
				338.324,157.829 317.266,174.453 329.839,197.728 305.381,185.823 			"/>
			<g>
				<path style="fill:#263238;" d="M290.818,208.523c0.627-0.964,5.388-8.29,14.698-22.613l-0.205,0.057
					c6.751,3.304,15.01,7.346,24.432,11.958l0.612,0.3l-0.323-0.6c-3.753-6.971-7.985-14.834-12.539-23.293l-0.067,0.324
					c6.538-5.151,13.627-10.735,21.075-16.602l0.393-0.309l-0.467-0.181c-6.637-2.568-13.688-5.296-20.959-8.109l0.188,0.334
					c1.469-8.305,3.02-17.081,4.615-26.095l0.103-0.584l-0.542,0.242c-7.513,3.357-15.46,6.908-23.564,10.529l0.413,0.137
					c-3.32-5.957-6.839-12.273-10.402-18.667l-1.701-3.052l-0.342-0.613l-0.245,0.657c-2.919,7.835-5.794,15.553-8.613,23.12
					l0.407-0.19c-8.265-2.917-16.352-5.772-24.221-8.549l-0.611-0.216l0.212,0.613c2.608,7.535,5.142,14.856,7.597,21.95
					l0.155-0.369c-7.215,3.418-14.183,6.719-20.869,9.886l-0.51,0.241l0.499,0.263c7.117,3.746,13.85,7.29,20.224,10.645
					l-0.124-0.31c-3.039,9.065-5.82,17.359-8.349,24.903l-0.15,0.446l0.437-0.172c9.677-3.805,17.953-7.059,24.86-9.774
					l-0.197-0.069C285.732,199.937,290.229,207.528,290.818,208.523c-0.577-1.001-4.985-8.644-13.8-23.927l-0.068-0.119l-0.129,0.05
					c-6.919,2.686-15.209,5.903-24.903,9.666l0.287,0.274c2.551-7.536,5.356-15.822,8.422-24.878l0.07-0.207l-0.194-0.103
					c-6.367-3.368-13.093-6.927-20.202-10.687l-0.011,0.504c6.69-3.157,13.664-6.447,20.884-9.854l0.243-0.115l-0.088-0.255
					c-2.448-7.097-4.974-14.42-7.573-21.958l-0.399,0.397c7.867,2.783,15.952,5.642,24.215,8.565l0.297,0.105l0.11-0.296
					c2.821-7.567,5.698-15.284,8.619-23.118l-0.586,0.045l1.701,3.052c3.564,6.394,7.084,12.709,10.405,18.666l0.144,0.258
					l0.269-0.12c8.102-3.625,16.047-7.181,23.558-10.542l-0.438-0.342c-1.585,9.016-3.128,17.793-4.589,26.1l-0.043,0.245
					l0.232,0.089c7.276,2.803,14.331,5.52,20.971,8.078l-0.074-0.489c-7.436,5.882-14.513,11.481-21.041,16.645l-0.17,0.135
					l0.103,0.19c4.578,8.446,8.834,16.297,12.607,23.257l0.289-0.301c-9.442-4.571-17.719-8.577-24.484-11.852l-0.129-0.063
					l-0.076,0.12C296.107,200.17,291.433,207.552,290.818,208.523z"/>
			</g>
		</g>
		<path style="fill:#FF725E;" d="M292.28,179.051c-2.743,0.049-4.742-2.001-4.779-4.562c-0.038-2.561,1.901-4.621,4.643-4.67
			c2.802-0.049,4.859,1.939,4.897,4.5C297.079,176.879,295.083,179.002,292.28,179.051z M294.616,164.862l-5.409,0.102
			l-1.657-21.567l8.084-0.153L294.616,164.862z"/>
	</g>
</g>
<g id="Dog">
	<g>
		<g>
			<path style="fill:#263238;" d="M224.022,362.994c0,0-0.131,5.034,3.636,7.077c3.767,2.043,16.197,7.693,33.147,7.317
				c16.95-0.377,29.488,1.466,30.699-2.26c1.211-3.726,2.825-5.223,2.072-4.871C292.822,370.608,224.022,362.994,224.022,362.994z"
				/>
		</g>
		<g>
			<g>
				<path style="fill:#FF725E;" d="M346.309,340.503c0,0,5.111,29.562,2.246,38.343c-2.865,8.781-32.914,26.285-32.914,26.285
					l-5.108-53.791l28.453-21.902L346.309,340.503z"/>
			</g>
			<g style="opacity:0.4;">
				<path d="M346.309,340.503c0,0,5.111,29.562,2.246,38.343c-2.865,8.781-32.914,26.285-32.914,26.285l-5.108-53.791l28.453-21.902
					L346.309,340.503z"/>
			</g>
		</g>
		<g>
			<g>
				<path style="fill:#FF725E;" d="M114.614,316.556c-8.721,2.983-14.449,11.497-17.4,20.229c-2.95,8.732-3.756,18.046-6.271,26.913
					c-2.514,8.868-7.246,17.765-15.429,22.007c-3.399,1.762-7.186,2.611-10.773,3.949c-0.795,0.297-1.599,0.629-2.229,1.198
					c-0.641,0.578-1.056,1.36-1.457,2.125c-4.836,9.224-9.58,18.654-11.763,28.838c-2.183,10.184-1.569,21.349,3.811,30.267
					c0.717,1.189,1.561,2.374,2.788,3.026c1.364,0.725,2.991,0.686,4.535,0.628c8.071-0.301,16.143-0.602,24.214-0.903
					c-1.458-4.785-5.188-8.823-9.843-10.654c-2.79-1.097-6.009-1.522-8.13-3.641c-2.583-2.581-2.6-6.713-2.222-10.345
					c0.516-4.97,1.536-10.099,4.556-14.08c1.621-2.137,3.746-3.838,5.95-5.367c9.286-6.439,20.181-10.106,30.076-15.565
					c9.894-5.458,19.307-13.536,21.96-24.52L114.614,316.556z"/>
			</g>
			<g style="opacity:0.3;">
				<path d="M114.614,316.556c-8.721,2.983-14.449,11.497-17.4,20.229c-2.95,8.732-3.756,18.046-6.271,26.913
					c-2.514,8.868-7.246,17.765-15.429,22.007c-3.399,1.762-7.186,2.611-10.773,3.949c-0.795,0.297-1.599,0.629-2.229,1.198
					c-0.641,0.578-1.056,1.36-1.457,2.125c-4.836,9.224-9.58,18.654-11.763,28.838c-2.183,10.184-1.569,21.349,3.811,30.267
					c0.717,1.189,1.561,2.374,2.788,3.026c1.364,0.725,2.991,0.686,4.535,0.628c8.071-0.301,16.143-0.602,24.214-0.903
					c-1.458-4.785-5.188-8.823-9.843-10.654c-2.79-1.097-6.009-1.522-8.13-3.641c-2.583-2.581-2.6-6.713-2.222-10.345
					c0.516-4.97,1.536-10.099,4.556-14.08c1.621-2.137,3.746-3.838,5.95-5.367c9.286-6.439,20.181-10.106,30.076-15.565
					c9.894-5.458,19.307-13.536,21.96-24.52L114.614,316.556z"/>
			</g>
			<g>
				<path style="fill:#FF725E;" d="M114.614,316.556c-8.721,2.983-14.449,11.497-17.4,20.229c-2.95,8.732-3.756,18.046-6.271,26.913
					c-2.514,8.868-7.246,17.765-15.429,22.007c-3.399,1.762-7.186,2.611-10.773,3.949c-0.795,0.297-1.599,0.629-2.229,1.198
					c-0.641,0.578-1.056,1.36-1.457,2.125c-4.836,9.224-9.58,18.654-11.763,28.838c-2.183,10.184-1.569,21.349,3.811,30.267
					c0.717,1.189,1.561,2.374,2.788,3.026c1.364,0.725,2.991,0.686,4.535,0.628c8.071-0.301,16.143-0.602,24.214-0.903
					c-1.458-4.785-5.188-8.823-9.843-10.654c-2.79-1.097-6.009-1.522-8.13-3.641c-2.583-2.581-2.6-6.713-2.222-10.345
					c0.516-4.97,1.536-10.099,4.556-14.08c1.621-2.137,3.746-3.838,5.95-5.367c9.286-6.439,20.181-10.106,30.076-15.565
					c9.894-5.458,19.307-13.536,21.96-24.52L114.614,316.556z"/>
			</g>
			<g style="opacity:0.4;">
				<path d="M114.614,316.556c-8.721,2.983-14.449,11.497-17.4,20.229c-2.95,8.732-3.756,18.046-6.271,26.913
					c-2.514,8.868-7.246,17.765-15.429,22.007c-3.399,1.762-7.186,2.611-10.773,3.949c-0.795,0.297-1.599,0.629-2.229,1.198
					c-0.641,0.578-1.056,1.36-1.457,2.125c-4.836,9.224-9.58,18.654-11.763,28.838c-2.183,10.184-1.569,21.349,3.811,30.267
					c0.717,1.189,1.561,2.374,2.788,3.026c1.364,0.725,2.991,0.686,4.535,0.628c8.071-0.301,16.143-0.602,24.214-0.903
					c-1.458-4.785-5.188-8.823-9.843-10.654c-2.79-1.097-6.009-1.522-8.13-3.641c-2.583-2.581-2.6-6.713-2.222-10.345
					c0.516-4.97,1.536-10.099,4.556-14.08c1.621-2.137,3.746-3.838,5.95-5.367c9.286-6.439,20.181-10.106,30.076-15.565
					c9.894-5.458,19.307-13.536,21.96-24.52L114.614,316.556z"/>
			</g>
		</g>
		<g>
			<g>
				<path style="fill:#FF725E;" d="M125.287,304.185c-9.452,2.96-16.354,11.436-19.949,20.665
					c-3.596,9.229-4.389,19.27-5.251,29.137c-0.862,9.867-1.877,19.92-5.862,28.988c-4.811,10.949-13.839,19.832-24.518,25.213
					c-10.68,5.381-22.92,7.359-34.845,6.456c5.446,7.249,13.602,12.41,22.484,14.228c8.882,1.818,18.411,0.277,26.267-4.249
					c0.406,2.56,0.811,5.121,1.217,7.681c2.987-1.793,5.368-4.577,6.677-7.806c1.41,1.962,2.31,4.286,2.589,6.686
					c4.294-3.896,7.808-8.647,10.276-13.893c0,0,13.646,0.455,20.915-19.363C132.556,378.11,125.287,304.185,125.287,304.185z"/>
			</g>
			<g style="opacity:0.2;">
				<g>
					<path d="M125.287,304.185c-9.452,2.96-16.354,11.436-19.949,20.665c-3.596,9.229-4.389,19.27-5.251,29.137
						c-0.862,9.867-1.877,19.92-5.862,28.988c-4.811,10.949-13.839,19.832-24.518,25.213c-10.68,5.381-22.92,7.359-34.845,6.456
						c5.446,7.249,13.602,12.41,22.484,14.228c8.882,1.818,18.411,0.277,26.267-4.249c0.406,2.56,0.811,5.121,1.217,7.681
						c2.987-1.793,5.368-4.577,6.677-7.806c1.41,1.962,2.31,4.286,2.589,6.686c4.294-3.896,7.808-8.647,10.276-13.893
						c0,0,13.646,0.455,20.915-19.363C132.556,378.11,125.287,304.185,125.287,304.185z"/>
				</g>
			</g>
			<g style="opacity:0.5;">
				<g>
					<path d="M105.337,324.85c-3.596,9.229-4.389,19.27-5.251,29.137c-0.862,9.867-1.877,19.92-5.862,28.988
						c-4.811,10.948-13.839,19.832-24.518,25.213c-10.68,5.382-22.92,7.36-34.845,6.456c0.17,0.226,0.35,0.444,0.525,0.666
						c14.333,5.679,31.357,4.195,44.43-4.008c-0.167,1.251-0.334,2.503-0.502,3.754c3.105,1.373,10.727-4.205,12.817-6.881
						c11.006-14.097,16.784-27.511,17.414-45.385c0.322-9.136-1.898-18.172-2.277-27.305c-0.379-9.134,1.507-19.098,8.332-25.18
						c-0.237,0.014-0.465,0.051-0.697,0.081C110.686,314.316,107.442,319.449,105.337,324.85z"/>
				</g>
			</g>
		</g>
		<g style="opacity:0.2;">
			<g>
				<path d="M286.204,374.278c2.136-2.6,4.272-5.201,6.408-7.801c-1.418,1.681-3.376,2.899-5.511,3.428
					c2.907-5.505,5.844-11.087,7.241-17.154c-3.604,5.622-8.967,10.099-15.142,12.639c-5.953,2.449-12.501,3.096-18.937,3.055
					c-14.987-0.095-30.129-3.918-42.634-12.178c18.436,17.328,46.228,24.029,70.536,17.008"/>
			</g>
		</g>
		<g>
			<g>
				<path style="fill:#FF725E;" d="M303.028,334.338c-0.148-0.092,2.213-3.116,3.589-7.548c1.424-4.419,1.23-8.25,1.404-8.24
					c0.06-0.003,0.188,0.943,0.135,2.482c-0.05,1.537-0.335,3.666-1.043,5.915c-0.714,2.246-1.705,4.152-2.548,5.438
					C303.724,333.674,303.075,334.375,303.028,334.338z"/>
			</g>
		</g>
		<g>
			<g>
				<path style="fill:#FF725E;" d="M120.039,309.366c-2.023,0.936-13.397,13.791-9.063,37.432c4.334,23.641-3.152,28.37-3.152,28.37
					h6.107l-3.349,8.668l6.698-3.94c0,0,1.576,16.155-3.349,24.035c-4.925,7.881-11.23,9.851-11.23,9.851
					s-1.576,42.16,15.367,47.283h27.187c0,0,2.364-3.546,2.364-4.728c0-1.182-14.973-7.88-14.973-7.88s-10.639-5.122-10.639-14.579
					c0-9.457,9.063-19.307,13.791-20.095c4.728-0.788,31.522-11.427,39.008-17.731c7.486-6.304,17.731-27.581,17.731-27.581
					l2.364-25.611C194.903,342.858,167.716,287.301,120.039,309.366z"/>
			</g>
			<g>
				<g>
					<path style="fill:#263238;" d="M157.766,373.168c0.021,0.01-0.104,0.332-0.388,0.909c-0.289,0.573-0.754,1.394-1.453,2.358
						c-1.382,1.915-3.813,4.433-7.452,6.143l-0.315,0.148l-0.023-0.35c-0.178-2.737-0.376-5.759-0.583-8.938l-0.009-0.149
						l0.484,0.115c-2.29,3.91-5.681,6.659-8.811,8.177l-0.607,0.294l0.317-0.592c1.433-2.679,2.023-5.173,2.287-6.909
						c0.26-1.746,0.244-2.76,0.303-2.759c0.021,0,0.045,0.252,0.055,0.728c0.005,0.476-0.012,1.176-0.109,2.064
						c-0.193,1.767-0.729,4.32-2.151,7.08l-0.29-0.297c3.04-1.534,6.325-4.24,8.556-8.05l0.431-0.736l0.054,0.852l0.009,0.149
						c0.192,3.179,0.374,6.203,0.539,8.94l-0.338-0.202c3.563-1.63,5.993-4.044,7.421-5.883
						C157.134,374.404,157.697,373.13,157.766,373.168z"/>
				</g>
			</g>
		</g>
		<g>
			<g>
				<path style="fill:#FF725E;" d="M369.274,187.644c0,0,0.032-0.209,0.104-0.585c0.271-1.415,1.106-5.204,2.922-9.218
					c2.3-5.083,2.905-8.956,2.663-11.135c0,0,0.847-0.847,1.815,0.726c0.968,1.573,3.026,5.34,2.663,9.629
					c-0.363,4.289-0.605,11.673-0.605,11.673s2.542,0.363,2.784,3.268c0.242,2.905-1.452,2.663-1.452,2.663l-8.109,5.688
					l-3.994-7.262L369.274,187.644z"/>
			</g>
			<g style="opacity:0.5;">
				<path d="M369.274,187.644c0,0,0.032-0.209,0.104-0.585c0.271-1.415,1.106-5.204,2.922-9.218c2.3-5.083,2.905-8.956,2.663-11.135
					c0,0,0.847-0.847,1.815,0.726c0.968,1.573,3.026,5.34,2.663,9.629c-0.363,4.289-0.605,11.673-0.605,11.673
					s2.542,0.363,2.784,3.268c0.242,2.905-1.452,2.663-1.452,2.663l-8.109,5.688l-3.994-7.262L369.274,187.644z"/>
			</g>
			<g>
				<path style="fill:#FF725E;" d="M333.21,215.095c0.89,0.474,6.513-0.332,6.513-0.332l-9.383,5.723
					c-0.579,0.589-1.165,1.439-0.787,2.174c0.278,0.54,0.953,0.727,1.558,0.781c0.37,0.033,0.737,0.037,1.101,0.018l-21.347,25.228
					c0,0-22.065,7.88-38.614,9.851c-16.549,1.97-51.617,1.97-82.35,12.215c-30.734,10.245-61.467,24.486-69.742,38.614
					c-8.274,14.128,61.467,42.948,61.467,42.948s26.399,1.182,46.889,13.003c20.489,11.821,58.709,7.88,58.709,7.88l49.253-15.761
					c0,0,20.095-24.429,20.095-31.522c0-7.092,0-18.125,0-18.125l4.728,5.122l1.93-0.185c4.301-4.731,11.934-9.503,16.692-22.255
					c0.922-0.048-1.379-6.502-0.461-8.011c9.042-14.868,4.557-12.026,7.017-20.148c0.866-2.859,2.078-7.063,2.078-7.063
					s25.916-1.861,30.036-2.126c1.998-0.129,3.142-1.384,3.796-2.641c3.059,0.412,5.789,0.451,8.89-1.618
					c4.362-2.911,9.2-9.946,11.88-14.801c0.123-0.505,0.951-2.071,1.281-2.474c2.174-2.653,0.867-4.78-1.392-7.704
					c-2.259-2.924-31.392-8.402-35.979-10.174c-0.372-0.143-5.218-8.653-5.545-9.072c-2.41-3.089-12.036-8.398-16.82-10.923
					c-4.785-2.525-15.018-3.456-15.018-3.456s-1.329-3.19-2.525-9.303c-1.196-6.114-7.081-13.82-9.207-13.554
					c-2.126,0.266-2.355,4.516-2.621,8.902s-3.19,14.752-5.981,20.866c-1.07,2.343-1.61,4.625-1.872,6.552
					c-2.286,1.928-10.878,8.702-13.846,11.039"/>
			</g>
			<g style="opacity:0.5;">
				<g>
					<path d="M330.746,224.171c0.686,11.477-3.863,22.691-9.934,32.455c-1.267,2.038-2.655,4.086-4.647,5.422
						c-1.992,1.337-4.738,1.813-6.791,0.571c-2.378-1.44-3.067-4.728-2.327-7.408c0.74-2.68,1.554-3.877,3.348-6
						c6.443-7.625,13.914-16.268,20.357-23.893"/>
				</g>
			</g>
			<g style="opacity:0.3;">
				<g>
					<path style="fill:#FFFFFF;" d="M379.922,290.473c0.922-0.048-1.379-6.502-0.461-8.01c5.014-8.246,5.867-11.043,6.053-13.286
						c-2.254,5.635-6.582,10.417-11.976,13.202c-0.651-1.939-0.365-4.17,0.754-5.883c-2.64,4.072-5.927,7.723-9.7,10.775
						c-0.641,0.519-1.386,1.048-2.207,0.963c-0.94-0.097-1.631-1.015-1.767-1.95c-0.137-0.935,0.157-1.876,0.488-2.761
						c-2.243,5.535-9.312,7.957-11.444,13.536c-1.566,4.099-0.003,8.668,1.647,12.734c1.177,2.901,2.659,6.037,5.262,7.601
						c0-5.101,0-9.604,0-9.604l4.728,5.122l1.93-0.185C367.531,307.996,375.164,303.224,379.922,290.473z"/>
				</g>
			</g>
			<g style="opacity:0.5;">
				<g>
					<path d="M407.149,213.74l-0.3,0.448c-0.333,4.169-0.69,8.432-2.396,12.251c-1.706,3.818-5.053,7.173-9.201,7.711
						c-2.649,0.344-5.451-0.457-7.956,0.471c-2.62,0.971-4.218,3.563-5.617,5.982c-1.178,2.036-2.392,4.208-2.335,6.559
						c0.05,2.089,1.1,4.006,2.123,5.828c0.941,1.677,2.008,3.469,3.786,4.202c0.829,0.342,1.724,0.412,2.628,0.384
						c0.391-1.339,0.675-2.327,0.675-2.327s25.916-1.861,30.036-2.126c1.998-0.129,3.142-1.384,3.796-2.641
						c3.059,0.412,5.789,0.451,8.89-1.618c4.362-2.911,9.2-9.946,11.88-14.801c0.123-0.505,0.951-2.071,1.281-2.474
						c2.174-2.653,0.867-4.78-1.392-7.704C440.798,220.976,411.963,215.54,407.149,213.74z"/>
				</g>
			</g>
			<g style="opacity:0.5;">
				<g>
					<path d="M256.481,267.966c-3.165,17.657-9.21,34.794-17.823,50.529c-2.317,4.233-4.993,8.542-9.171,10.958
						c-5.387,3.116-12.083,2.444-18.237,1.517c-5.658-0.852-11.392-1.872-16.497-4.456c-5.105-2.584-9.571-6.978-10.94-12.533
						c-4.836,2.692-11.789,0.152-13.75-5.024c-4.945,1.325-10.26,1.241-15.161-0.239c2.088-2.217,4.177-4.434,6.265-6.651
						c-10.745,1.382-21.238,0.274-31.614-2.839c0,0,12.497-10.237,36.753-19.783C186.706,271.417,256.481,267.966,256.481,267.966z"
						/>
				</g>
			</g>
			<g style="opacity:0.2;">
				<g>
					<path d="M205.908,356.36c-0.549-5.536-3.129-10.527-7.14-14.382c-4.012-3.855-9.422-6.221-14.976-6.55
						c4.703,2.284,8.882,5.638,12.129,9.736c1.298,1.638,2.469,3.953,1.321,5.698c-2.357-1.529-4.543-3.322-6.503-5.335
						c2.678,3.544,3.581,7.421,3.192,8.254L205.908,356.36z"/>
				</g>
			</g>
			<g style="opacity:0.5;">
				<path d="M360.255,174.953c0.559,4.577-2.54,8.734-3.966,13.12c-1.775,5.458-0.94,11.312-0.094,16.998
					c0.332,2.233,0.799,4.686,2.857,6.2c1.162-4.137,1.806-8.388,1.919-12.665c0.588-0.492,1.399,2.348,1.636,4.884
					c0.398-1.797,0.312-4.66,0.71-6.457c0.534-0.016,2.107,1.724,2.199,2.164l1.108-0.913
					C366.324,190.317,364.148,182.346,360.255,174.953z"/>
			</g>
			<g>
				<g>
					<path style="fill:#263238;" d="M371.396,197.616c0.058-0.011-0.095-1.112-0.457-2.87c-0.359-1.758-0.947-4.167-1.667-6.805
						c-0.721-2.566-1.372-4.886-1.892-6.738c-0.49-1.722-0.8-2.786-0.864-2.771c-0.059,0.014,0.14,1.106,0.552,2.852
						c0.409,1.746,1.043,4.14,1.764,6.776c0.71,2.599,1.345,4.986,1.793,6.757C371.066,196.553,371.33,197.629,371.396,197.616z"/>
				</g>
			</g>
			<g>
				<g>
					<g>
						<path style="fill:#263238;" d="M398.321,249.22c0.006,0.043,0.746-0.064,2.09-0.146c1.344-0.087,3.293-0.115,5.698,0.021
							c2.405,0.13,5.259,0.441,8.444,0.704c1.601,0.12,3.254,0.215,4.967,0.486c1.712,0.244,3.489,0.59,5.36,0.643
							c0.934,0.014,1.866-0.048,2.764-0.242c0.889-0.217,1.756-0.502,2.535-0.926c1.585-0.806,2.874-1.942,4.02-3.061
							c2.28-2.27,3.992-4.608,5.369-6.593c1.372-1.994,2.364-3.683,3.022-4.863c0.325-0.593,0.571-1.056,0.725-1.377
							c0.157-0.319,0.233-0.49,0.219-0.498c-0.014-0.007-0.117,0.149-0.3,0.454c-0.208,0.346-0.472,0.788-0.798,1.332
							c-0.703,1.15-1.734,2.807-3.133,4.768c-1.403,1.951-3.134,4.256-5.399,6.477c-1.137,1.096-2.406,2.197-3.93,2.964
							c-0.75,0.406-1.578,0.674-2.428,0.88c-0.858,0.183-1.752,0.243-2.658,0.229c-1.815-0.051-3.584-0.389-5.307-0.63
							c-1.722-0.266-3.417-0.355-4.998-0.462c-3.177-0.24-6.043-0.518-8.461-0.608c-2.418-0.094-4.381-0.018-5.727,0.125
							c-0.673,0.072-1.194,0.141-1.544,0.208C398.502,249.165,398.319,249.204,398.321,249.22z"/>
					</g>
				</g>
			</g>
			<g>
				<g>
					<path style="fill:#FFFFFF;" d="M393.631,211.213c0.716-0.535,1.59-1.029,2.459-0.823c0.791,0.188,1.353,0.933,1.562,1.718
						c0.209,0.786,0.131,1.616,0.051,2.425l-0.662,5.842c-1.435,0.061-2.917-0.197-4.13-0.965c-1.213-0.768-2.117-2.096-2.154-3.532
						C390.709,213.98,392.109,212.35,393.631,211.213z"/>
				</g>
				<g>
					<path style="fill:#263238;" d="M395.344,210.278c0.215,0,0.532-0.001,0.747-0.001c1.3,0.392,1.84,1.618,2.059,2.726
						c0.426,2.151,0.177,4.388-0.702,6.443c-0.264,0.616-1.049,1.027-1.905,0.977c-0.007,0-0.013-0.001-0.02-0.001
						c-0.431-0.026-0.844-0.156-1.15-0.386c-1.179-0.886-1.981-2.624-1.981-4.628C392.393,212.893,393.657,210.794,395.344,210.278z
						"/>
				</g>
				<g>
					<g>
						<path style="fill:#263238;" d="M390.756,216.945c-0.061,0.022,0.026,0.535,0.496,1.223c0.466,0.695,1.381,1.417,2.482,1.975
							c0.595,0.294,1.208,0.382,1.741,0.423c0.525,0.043,1.039,0.031,1.444-0.067c0.827-0.19,1.206-0.593,1.159-0.642
							c-0.046-0.074-0.473,0.177-1.223,0.247c-0.377,0.04-0.813,0.013-1.328-0.057c-0.503-0.066-1.049-0.166-1.541-0.411
							c-1.051-0.535-1.921-1.146-2.421-1.717C391.059,217.352,390.838,216.908,390.756,216.945z"/>
					</g>
				</g>
				<g>
					<g>
						<path style="fill:#263238;" d="M390.458,216.548c0.097,0.025,0.274-1.068,1.127-2.565c0.429-0.741,1.039-1.572,1.876-2.325
							c0.417-0.374,0.888-0.725,1.429-0.929c0.531-0.202,1.162-0.245,1.683-0.006c0.527,0.237,0.879,0.745,1.09,1.291
							c0.213,0.552,0.307,1.133,0.366,1.7c0.122,1.132,0.103,2.164,0.029,3.025c-0.152,1.725-0.477,2.767-0.388,2.793
							c0.058,0.023,0.525-0.985,0.786-2.747c0.128-0.878,0.191-1.943,0.093-3.119c-0.046-0.585-0.133-1.219-0.367-1.85
							c-0.229-0.618-0.66-1.285-1.373-1.607c-0.709-0.319-1.484-0.245-2.118,0.003c-0.639,0.252-1.151,0.657-1.584,1.064
							c-0.868,0.821-1.474,1.721-1.875,2.519c-0.405,0.8-0.602,1.501-0.706,1.985C390.428,216.266,390.423,216.542,390.458,216.548z
							"/>
					</g>
				</g>
			</g>
			<g>
				<g>
					<path style="fill:#263238;" d="M363.358,214.15c0.012,0.015,0.15-0.071,0.398-0.251c0.247-0.182,0.601-0.46,1.033-0.843
						c0.861-0.764,2.036-1.956,3.182-3.626l-0.339-0.119c-0.182,1.844-0.122,4.075,0.415,6.408l0.117,0.509l0.289-0.436
						c0.495-0.746,0.948-1.559,1.328-2.406c0.507-1.131,0.874-2.287,1.11-3.413l-0.436-0.005c0.221,1.17,0.463,2.299,0.857,3.312
						c0.387,1.012,0.951,1.896,1.64,2.523l0.204,0.185l0.084-0.258c0.559-1.716,0.729-3.185,0.773-4.194
						c0.022-0.506,0.012-0.9-0.002-1.167c-0.017-0.267-0.038-0.407-0.055-0.407c-0.041,0.001-0.041,0.563-0.141,1.559
						c-0.104,0.993-0.324,2.429-0.91,4.095l0.287-0.072c-0.628-0.601-1.141-1.434-1.499-2.41c-0.364-0.976-0.59-2.08-0.802-3.248
						l-0.199-1.096l-0.236,1.09c-0.237,1.094-0.598,2.218-1.091,3.318c-0.376,0.837-0.815,1.624-1.287,2.344l0.406,0.073
						c-0.536-2.278-0.623-4.46-0.483-6.274l0.056-0.72l-0.394,0.601c-1.091,1.663-2.209,2.875-3.019,3.678
						C363.831,213.704,363.331,214.116,363.358,214.15z"/>
				</g>
			</g>
			<g>
				<path style="fill:#263238;" d="M435.27,220.907c0,0-2.879,7.151-0.543,9.971c2.337,2.82,6.95,5.506,7.091,5.28
					c0.141-0.227,4.906-5.521,4.835-10.92C446.63,223.578,436.376,220.444,435.27,220.907z"/>
			</g>
			<g>
				<g>
					<path style="fill:#263238;" d="M398.165,208.599c0.032,0.354-0.317,0.726-0.976,0.93c-0.653,0.209-1.584,0.214-2.511-0.044
						c-1.866-0.535-2.929-1.754-2.619-2.384c0.318-0.658,1.797-0.554,3.314-0.126c0.765,0.21,1.412,0.457,1.908,0.714
						C397.771,207.951,398.133,208.237,398.165,208.599z"/>
				</g>
			</g>
			<g style="opacity:0.5;">
				<g>
					<path d="M378.687,233.622c-1.607,0.218-3.148,0.901-4.389,1.945c-0.295,0.248-0.579,0.525-0.736,0.876
						c-0.157,0.352-0.161,0.793,0.078,1.095c0.317,0.401,0.913,0.42,1.421,0.355c1.292-0.163,2.543-0.637,3.618-1.37
						c0.395-0.27,0.776-0.583,1.015-0.997c0.24-0.414,0.318-0.946,0.102-1.373c-0.216-0.427-0.772-0.683-1.205-0.479"/>
				</g>
			</g>
		</g>
		<g>
			<g>
				<path style="fill:#263238;" d="M166.871,272.351c-2.623,1.456-3.083,5.043-0.982,7.184c5.92,6.034,17.206,17.821,19.779,22.555
					c3.528,6.491,26.962,53.108,37.041,57.643c10.079,4.536,40.524,12.05,54.932,9.986c14.408-2.064,14.615-14.018,15.623-24.853
					c1.008-10.835-5.796-25.078,3.528-42.776c9.323-17.699,30.862-29.165,30.862-29.165s-12.781-22.399-16.908-24.239
					s-14.962,1.436-19.75,2.192C286.563,251.578,192.061,258.37,166.871,272.351z"/>
			</g>
			<g style="opacity:0.5;">
				<g>
					<path d="M210.361,284.292l-2.644,1.868c7.173,2.406,14.899,2.496,22.461,2.259c16.895-0.53,33.743-2.574,50.275-6.1
						c4.907-1.046,10.432-2.729,12.506-7.298C265.426,278.111,237.894,281.201,210.361,284.292z"/>
				</g>
			</g>
			<g>
				<g>
					<path style="fill:#263238;" d="M215.376,283.916c0,0,0.266,61.041,21.271,89.911c0,0,20.595,3.928,19.472,3.692
						c-1.124-0.237-8.711-21.053-14.674-43.181c-2.853-12.777-5.466-39.238-5.543-53.783L215.376,283.916z"/>
				</g>
				<g>
					<g>
						<path style="fill:#455A64;" d="M215.376,283.917c-0.005-0.005,0.108-0.028,0.334-0.071c0.246-0.044,0.582-0.105,1.018-0.183
							c0.925-0.16,2.263-0.392,3.994-0.691c3.535-0.598,8.67-1.466,15.155-2.563l0.17-0.029l0.002,0.174
							c0.065,5.253,0.382,11.393,0.942,18.256c0.558,6.862,1.323,14.454,2.462,22.589c0.578,4.063,1.237,8.276,2.157,12.545
							c1.101,4.229,2.37,8.572,3.698,12.998c1.335,4.427,2.767,8.94,4.304,13.514c1.549,4.567,3.157,9.222,5.067,13.818
							c0.396,0.914,0.788,1.853,1.28,2.673c0.061,0.107,0.126,0.193,0.189,0.267c0.044,0.063,0.034,0.018,0.026,0.044
							c-0.009,0.005,0.007,0.01,0.028,0.013l0.014,0.003c0.197-0.347,0.06,0.72-0.074,0.514l-0.013-0.001l-0.04-0.006l-0.095-0.017
							l-0.738-0.137l-1.468-0.276c-1.953-0.371-3.893-0.739-5.818-1.104c-3.85-0.735-7.645-1.458-11.372-2.169l-0.101-0.019
							l-0.058-0.081c-3.892-5.469-6.78-11.334-9.023-17.132c-2.258-5.799-3.971-11.52-5.321-16.999
							c-2.694-10.967-4.134-20.921-5.08-29.226c-0.932-8.312-1.314-14.998-1.509-19.594c-0.095-2.299-0.134-4.077-0.147-5.28
							c-0.002-0.588-0.003-1.04-0.003-1.367C215.36,284.076,215.37,283.907,215.376,283.917c0.006,0.009,0.018,0.154,0.029,0.464
							c0.012,0.326,0.028,0.778,0.049,1.365c0.042,1.202,0.111,2.977,0.234,5.273c0.25,4.591,0.683,11.268,1.659,19.565
							c0.989,8.29,2.466,18.224,5.183,29.156c1.361,5.462,3.082,11.16,5.34,16.93c2.243,5.768,5.124,11.594,8.985,17.008l-0.158-0.1
							c3.728,0.709,7.522,1.43,11.373,2.162c1.926,0.365,3.865,0.732,5.818,1.102l1.467,0.276l0.734,0.136l0.089,0.016l0.006,0.001
							c0.007-0.088-0.011,0.139-0.018,0.212c-0.057-0.338-0.234,0.536-0.07,0.299l-0.008-0.002c-0.01-0.001-0.024-0.004-0.058-0.021
							c-0.108-0.047-0.239-0.142-0.262-0.189c-0.1-0.115-0.184-0.231-0.247-0.342c-0.537-0.897-0.915-1.82-1.321-2.749
							c-1.922-4.626-3.527-9.281-5.077-13.857c-1.536-4.581-2.966-9.1-4.297-13.533c-1.325-4.438-2.585-8.769-3.686-13.03
							c-0.921-4.311-1.569-8.519-2.139-12.595c-1.122-8.15-1.863-15.75-2.395-22.622c-0.532-6.872-0.819-13.021-0.851-18.285
							l0.172,0.145c-6.463,1.024-11.58,1.835-15.103,2.393c-1.749,0.27-3.101,0.479-4.035,0.624
							c-0.448,0.066-0.794,0.117-1.047,0.155C215.504,283.906,215.376,283.917,215.376,283.917z"/>
					</g>
				</g>
			</g>
			<g>
				<path style="fill:#263238;" d="M210.823,260.458c0,0-7.001,19.242-4.029,25.188c0,0,86.79-8.875,87.933-11.258
					c1.143-2.384,0.545-24.374,0-24.256C294.183,250.251,219.532,256.458,210.823,260.458z"/>
				<path style="fill:#455A64;" d="M206.502,286.178l-0.154-0.309c-3.034-6.068,3.717-24.788,4.006-25.582l0.071-0.196l0.19-0.087
					c5.089-2.338,32.17-5.716,80.491-10.041c1.977-0.177,3.404-0.305,3.54-0.324l0.285-0.041l0.221,0.24
					c0.746,0.944,1.193,22.335,0.028,24.766c-0.271,0.565-0.835,1.738-44.79,6.804c-21.593,2.488-43.327,4.714-43.544,4.735
					L206.502,286.178z M211.221,260.829c-0.715,2.02-6.445,18.593-4.12,24.282c33.865-3.467,84.595-9.211,87.203-11
					c0.966-2.361,0.556-20.647,0.083-23.441c-0.447,0.042-1.347,0.124-3.192,0.289C232.186,256.241,215.048,259.234,211.221,260.829
					z M294.339,274.086L294.339,274.086L294.339,274.086z"/>
			</g>
			<g>
				<path style="fill:#263238;" d="M323.328,283.212c-0.937,0.159-7.624,0.492-5.361,4.546c2.263,4.054,19.646,18.995,24.358,27.415
					c4.711,8.42,9.277,16.933,8.897,22.198l-5.168,7.586c0,0,4.337,2.991,10.095-3.742c5.759-6.734,9.485-14.086,9.933-20.648
					c0.449-6.561-2.451-18.163-4.928-19.535c-2.477-1.372-19.74-28.184-23.332-28.095
					C334.231,273.026,323.328,283.212,323.328,283.212z"/>
			</g>
			<g>
				<g>
					<path style="fill:#263238;" d="M303.414,269.176c0.946,1.4,17.396,12.894,22.271,17.553
						c10.398,9.936,23.976,29.073,23.976,29.073c1.313-0.292,12.358-7.9,11.967-10.799c-0.391-2.899-21.307-30.064-27.583-35.609
						c-6.275-5.546-16.637-14.594-19.994-13.864C310.695,256.259,301.147,265.82,303.414,269.176z"/>
				</g>
				<g>
					<g>
						<path style="fill:#455A64;" d="M303.414,269.176c0,0-0.097-0.117-0.222-0.384c-0.115-0.272-0.203-0.717-0.14-1.292
							c0.12-1.156,0.856-2.732,2.124-4.489c1.281-1.75,3.055-3.754,5.466-5.688c0.606-0.478,1.255-0.95,1.98-1.361
							c0.359-0.209,0.747-0.392,1.168-0.527c0.425-0.139,0.915-0.132,1.349-0.038c1.759,0.412,3.35,1.415,4.976,2.461
							c3.232,2.152,6.519,4.842,9.978,7.794c1.714,1.503,3.523,2.98,5.278,4.688c1.716,1.726,3.366,3.599,5.032,5.54
							c3.323,3.89,6.688,8.074,10.09,12.478c3.378,4.423,6.886,8.993,10.076,13.986c0.439,0.72,0.88,1.422,1.21,2.239
							c0.198,0.447,0.112,1.003-0.066,1.392c-0.175,0.41-0.398,0.781-0.648,1.122c-1.007,1.362-2.234,2.466-3.463,3.528
							c-1.239,1.052-2.513,2.03-3.807,2.949c-0.648,0.459-1.3,0.903-1.962,1.327c-0.688,0.414-1.278,0.845-2.118,1.148l-0.15,0.054
							l-0.112-0.155c-5.529-7.685-10.975-14.694-16.154-20.744c-2.596-3.019-5.126-5.803-7.641-8.228
							c-2.544-2.38-5.136-4.345-7.452-6.158c-4.669-3.563-8.405-6.416-10.998-8.394c-1.28-0.99-2.251-1.778-2.891-2.331
							C303.673,269.543,303.414,269.176,303.414,269.176c0.006-0.004,0.088,0.072,0.24,0.223c0.14,0.16,0.406,0.349,0.722,0.625
							c0.657,0.529,1.644,1.293,2.94,2.261c2.583,1.946,6.394,4.711,11.089,8.275c2.335,1.799,4.935,3.743,7.523,6.136
							c2.543,2.424,5.092,5.205,7.706,8.221c5.215,6.046,10.682,13.044,16.234,20.738l-0.262-0.101
							c0.61-0.223,1.313-0.684,1.953-1.082c0.652-0.419,1.298-0.86,1.94-1.316c1.282-0.913,2.545-1.885,3.769-2.924
							c1.211-1.046,2.425-2.148,3.376-3.438c0.432-0.632,0.93-1.395,0.648-2.031c-0.291-0.722-0.733-1.442-1.164-2.145
							c-3.162-4.95-6.672-9.532-10.037-13.948c-3.392-4.402-6.745-8.587-10.051-12.477c-1.656-1.941-3.299-3.814-4.991-5.528
							c-1.71-1.676-3.539-3.186-5.236-4.685c-3.44-2.961-6.706-5.661-9.9-7.815c-1.599-1.047-3.189-2.047-4.837-2.443
							c-0.828-0.224-1.592,0.119-2.301,0.512c-0.706,0.392-1.35,0.852-1.953,1.318c-2.401,1.89-4.188,3.864-5.482,5.579
							c-1.282,1.724-2.034,3.262-2.183,4.382C302.991,268.653,303.466,269.17,303.414,269.176z"/>
					</g>
				</g>
			</g>
			<g>
				<path style="fill:#455A64;" d="M218.95,302.07l-4.087,0.43l-0.6,6.25c0,0,2.546-0.098,3.102,4.823
					c0.556,4.921-2.655,5.504-2.655,5.504l0.309,6.064c0,0,5.749,0.827,13.983,0.041c8.235-0.786,13.226-2.775,13.226-2.775
					l-0.458-5.941c0,0-3.015-0.016-3.419-4.374c-0.404-4.358,2.567-5.307,2.567-5.307l-1.398-6.854L218.95,302.07z"/>
			</g>
			<g>
				<g>
					<path style="fill:#263238;" d="M279.622,277.276c0,0,15.57,67.225,2.013,100.254c0,0-17.401,0.382-16.366-0.114
						c1.036-0.496,0.456-20.604,0.999-43.515c-0.259-13.089-3.998-39.845-7.374-53.992L279.622,277.276z"/>
				</g>
				<g>
					<g>
						<path style="fill:#455A64;" d="M279.622,277.276c0,0-0.127,0.026-0.365,0.062c-0.254,0.036-0.602,0.086-1.053,0.15
							c-0.941,0.128-2.303,0.313-4.065,0.553c-3.551,0.47-8.711,1.153-15.226,2.015l0.125-0.18
							c1.233,5.185,2.415,11.308,3.531,18.203c1.117,6.895,2.198,14.561,3.042,22.86c0.411,4.153,0.78,8.454,0.899,12.925
							c-0.096,4.458-0.166,9.029-0.206,13.723c-0.026,4.693-0.053,9.497-0.08,14.395c-0.022,2.45-0.044,4.923-0.066,7.417
							c-0.031,1.248-0.063,2.501-0.094,3.76c-0.063,1.264-0.08,2.514-0.324,3.817c-0.025,0.097-0.036,0.186-0.084,0.297
							l-0.064,0.158c-0.044,0.072-0.124,0.155-0.198,0.21c-0.03,0.021,0.013-0.006,0.013-0.006l0.022-0.023
							c0.036-0.035,0.063-0.104,0.058-0.16c0.008-0.087-0.074-0.181-0.101-0.189l-0.015-0.009c0.008,0.002,0.046,0.013,0.084,0.019
							c0.076,0.014,0.163,0.023,0.25,0.032c0.351,0.033,0.713,0.048,1.073,0.061c0.724,0.013,1.447,0.027,2.167,0.04
							c1.444-0.003,2.879-0.005,4.302-0.007c2.848-0.043,5.649-0.085,8.382-0.125l-0.233,0.16c1.326-3.32,2.298-6.714,3.078-10.092
							c0.694-3.396,1.28-6.759,1.616-10.087c0.755-6.646,0.901-13.082,0.831-19.173c-0.177-12.193-1.3-23.036-2.455-32.044
							c-1.172-9.011-2.436-16.197-3.358-21.132c-0.477-2.45-0.848-4.352-1.103-5.662c-0.127-0.632-0.225-1.117-0.296-1.465
							C279.643,277.444,279.619,277.287,279.622,277.276c0.003-0.011,0.056,0.166,0.135,0.491c0.081,0.346,0.194,0.828,0.342,1.455
							c0.292,1.283,0.701,3.183,1.192,5.647c0.979,4.927,2.297,12.109,3.515,21.123c1.202,9.011,2.364,19.863,2.572,32.082
							c0.085,6.105-0.048,12.558-0.796,19.234c-0.332,3.342-0.916,6.723-1.611,10.141c-0.782,3.401-1.758,6.823-3.096,10.179
							l-0.063,0.157l-0.17,0.003c-2.735,0.042-5.539,0.085-8.389,0.129c-1.426,0.003-2.864,0.005-4.311,0.008
							c-0.725-0.013-1.452-0.027-2.181-0.04c-0.366-0.013-0.731-0.028-1.106-0.063c-0.095-0.01-0.189-0.02-0.292-0.038
							c-0.052-0.009-0.103-0.018-0.181-0.046l-0.077-0.038c-0.041-0.021-0.147-0.134-0.137-0.24
							c-0.001-0.066,0.031-0.146,0.071-0.192c0.029-0.032,0.031-0.028,0.049-0.043l0.044-0.03l0.023-0.013
							c0.137,0.274,0.035,0.068,0.064,0.125l-0.005-0.014c-0.105-0.202-0.08-0.083-0.079-0.111l0.035-0.097
							c0.029-0.056,0.043-0.149,0.063-0.228c0.223-1.188,0.251-2.475,0.311-3.718c0.032-1.254,0.063-2.504,0.094-3.748
							c0.023-2.492,0.046-4.964,0.069-7.412c0.031-4.898,0.062-9.704,0.092-14.397c0.044-4.691,0.121-9.28,0.225-13.719
							c-0.111-4.426-0.47-8.737-0.871-12.879c-0.823-8.289-1.88-15.952-2.968-22.844c-1.088-6.893-2.238-13.015-3.435-18.196
							l-0.037-0.161l0.162-0.02c6.558-0.798,11.752-1.43,15.327-1.865c1.753-0.207,3.108-0.367,4.044-0.477
							c0.443-0.049,0.784-0.087,1.033-0.115C279.511,277.28,279.622,277.276,279.622,277.276z"/>
					</g>
				</g>
			</g>
			<g>
				<path style="fill:#455A64;" d="M280.467,297.217l4.072-0.552l2.066,5.93c0,0-2.497,0.509-1.869,5.422
					c0.628,4.913,3.884,4.718,3.884,4.718l1.139,5.964c0,0-5.389,2.167-13.575,3.357c-8.186,1.19-13.506,0.442-13.506,0.442
					l-0.965-5.88c0,0,2.926-0.73,2.284-5.06c-0.642-4.33-3.753-4.547-3.753-4.547l-0.267-6.99L280.467,297.217z"/>
			</g>
			<g>
				<path style="fill:#455A64;" d="M309.909,251.271l2.664-3.129l5.496,3.036c0,0-1.52,2.045,2.227,5.285
					c3.747,3.24,6.041,0.921,6.041,0.921l4.828,3.681c0,0-2.566,5.21-7.868,11.56c-5.302,6.35-9.763,9.344-9.763,9.344l-4.643-3.734
					c0,0,1.691-2.497-1.676-5.293c-3.368-2.796-5.829-0.881-5.829-0.881l-4.865-5.027L309.909,251.271z"/>
			</g>
			<g>
				<path style="fill:#FFFFFF;" d="M228.209,264.724c0.937,0.601,1.472,1.521,1.606,2.762c0.115,1.06-0.035,2.011-0.449,2.855
					c-0.415,0.843-1.06,1.525-1.936,2.047c-0.876,0.522-1.94,0.85-3.193,0.986l-2.819,0.305l-0.309,3.563l-2.945,0.318l1.158-12.923
					l5.114-0.555C226.015,263.91,227.272,264.125,228.209,264.724z M226.292,270.061c0.481-0.504,0.677-1.17,0.587-2.002
					c-0.065-0.602-0.316-1.031-0.752-1.29c-0.436-0.257-1.033-0.345-1.793-0.263l-2.294,0.249l-0.41,4.487l2.476-0.268
					C225.081,270.868,225.809,270.564,226.292,270.061z"/>
				<path style="fill:#FFFFFF;" d="M234.611,275.301c-0.978-0.356-1.758-0.924-2.342-1.701c-0.585-0.778-0.935-1.709-1.053-2.794
					c-0.155-1.433,0.033-2.761,0.565-3.982c0.532-1.222,1.355-2.228,2.47-3.019c1.115-0.791,2.437-1.27,3.967-1.435
					c1.265-0.137,2.386-0.027,3.364,0.33c0.977,0.358,1.758,0.925,2.341,1.702c0.584,0.778,0.935,1.708,1.053,2.793
					c0.155,1.434-0.033,2.762-0.565,3.981c-0.532,1.224-1.355,2.23-2.47,3.021c-1.114,0.791-2.437,1.27-3.967,1.435
					C236.709,275.769,235.588,275.66,234.611,275.301z M240.324,272.178c0.65-0.521,1.122-1.176,1.415-1.963
					c0.292-0.788,0.39-1.634,0.292-2.536c-0.105-0.964-0.489-1.7-1.153-2.206c-0.665-0.508-1.545-0.702-2.641-0.583
					c-0.928,0.1-1.717,0.411-2.367,0.934c-0.65,0.52-1.123,1.175-1.415,1.963c-0.293,0.787-0.39,1.634-0.292,2.536
					c0.105,0.963,0.488,1.7,1.153,2.206c0.664,0.507,1.544,0.701,2.641,0.582C238.885,273.01,239.673,272.699,240.324,272.178z"/>
				<path style="fill:#FFFFFF;" d="M247.801,261.549l2.945-0.319l-0.947,10.488l6.343-0.688l-0.229,2.438l-9.27,1.005
					L247.801,261.549z"/>
				<path style="fill:#FFFFFF;" d="M258.716,260.366l2.945-0.319l-1.159,12.924l-2.945,0.319L258.716,260.366z"/>
				<path style="fill:#FFFFFF;" d="M266.767,271.817c-0.996-0.355-1.791-0.921-2.388-1.697c-0.596-0.776-0.953-1.706-1.07-2.791
					c-0.155-1.433,0.033-2.762,0.564-3.983c0.533-1.222,1.358-2.228,2.479-3.018c1.121-0.793,2.452-1.272,3.994-1.44
					c1.133-0.122,2.153-0.038,3.063,0.252c0.91,0.293,1.626,0.775,2.149,1.45l-1.926,1.964c-0.781-0.915-1.854-1.299-3.215-1.151
					c-0.928,0.101-1.723,0.406-2.387,0.917c-0.664,0.511-1.151,1.161-1.461,1.95c-0.311,0.79-0.417,1.643-0.317,2.558
					c0.105,0.976,0.5,1.717,1.183,2.221c0.682,0.506,1.584,0.697,2.703,0.576c1.338-0.146,2.405-0.755,3.203-1.828l1.927,1.582
					c-1.095,1.595-2.799,2.516-5.112,2.767C268.892,272.281,267.762,272.173,266.767,271.817z"/>
				<path style="fill:#FFFFFF;" d="M280.583,260.373l-0.244,2.806l5.873-0.636l-0.206,2.325l-5.891,0.639l-0.261,2.99l6.903-0.748
					l-0.233,2.401l-9.794,1.061l1.158-12.924l9.56-1.036l-0.233,2.402L280.583,260.373z"/>
			</g>
		</g>
		<g>
			<g>
				<path style="fill:#FF725E;" d="M299.713,354.678c0,0-8.668,16.943-14.579,20.883l7.289,1.576c0,0-8.077,5.852-4.925,5.487
					l7.092,0.016c0,0,0.788,7.105,0.788,14.986s9.457,39.796,17.337,51.617c7.88,11.821,11.033,11.821,11.033,11.821h35.462
					c0,0,2.364-6.698,0-9.063c-2.364-2.364-9.062-6.304-18.125-3.546c0,0-10.245-6.304-9.457-11.821
					c0.697-4.877-3.344-54.458-0.788-62.807c2.364-7.723,13.357-26.474,13.357-26.474l-15.327-22.227L299.713,354.678z"/>
			</g>
			<g>
				<g>
					<path style="fill:#263238;" d="M315.575,410.62c-0.015,0.009-0.107-0.116-0.27-0.364c-0.154-0.253-0.415-0.609-0.672-1.112
						c-0.555-0.984-1.243-2.485-1.81-4.44c-0.571-1.952-0.964-4.379-0.89-7.092c0.063-2.707,0.641-5.695,1.9-8.592l0.415,0.296
						c-0.237,0.221-0.492,0.458-0.749,0.696c-1.185,1.099-2.343,2.171-3.462,3.208c-0.56,0.517-1.11,1.025-1.649,1.523
						c-0.281,0.246-0.507,0.498-0.844,0.742c-0.168,0.112-0.378,0.224-0.641,0.217c-0.259-0.004-0.511-0.169-0.63-0.376
						c-0.228-0.409-0.189-0.809-0.184-1.143c0.01-0.341,0.019-0.677,0.028-1.009c0.019-0.662,0.038-1.306,0.056-1.93
						c0.039-1.238,0.075-2.397,0.108-3.464c0.079-2.055,0.145-3.748,0.193-5.015c0.031-0.541,0.057-0.99,0.079-1.363
						c0.024-0.311,0.045-0.475,0.063-0.474c0.018,0,0.032,0.164,0.042,0.477c0.005,0.373,0.011,0.823,0.019,1.365
						c-0.007,1.268-0.017,2.962-0.028,5.019c-0.014,1.067-0.029,2.226-0.045,3.465c-0.01,0.624-0.019,1.268-0.03,1.931
						c-0.005,0.332-0.011,0.669-0.016,1.01c-0.012,0.337-0.004,0.67,0.123,0.88c0.117,0.186,0.326,0.194,0.588,0.008
						c0.245-0.177,0.514-0.462,0.781-0.703c0.536-0.501,1.083-1.012,1.64-1.532c1.117-1.04,2.271-2.115,3.455-3.216
						c0.257-0.238,0.512-0.475,0.749-0.696l0.913-0.848l-0.498,1.144c-1.231,2.826-1.814,5.744-1.903,8.397
						c-0.1,2.658,0.247,5.047,0.765,6.981C314.205,408.5,315.695,410.564,315.575,410.62z"/>
				</g>
			</g>
		</g>
	</g>
</g>
</svg>
