<?xml version="1.0" encoding="utf-8"?>
<!-- Generator: Adobe Illustrator 27.5.0, SVG Export Plug-In . SVG Version: 6.00 Build 0)  -->
<svg version="1.1" xmlns="http://www.w3.org/2000/svg" xmlns:xlink="http://www.w3.org/1999/xlink" x="0px" y="0px"
	 viewBox="0 0 500 500" style="enable-background:new 0 0 500 500;" xml:space="preserve">
<g id="Background_Complete">
	<g>
		<path style="fill:#F5F5F5;" d="M372.074,203.874c0,3.602-2.92,6.521-6.521,6.521s-6.521-2.92-6.521-6.521
			c0-3.602,2.92-6.521,6.521-6.521S372.074,200.273,372.074,203.874z"/>
		<g>
			<path style="fill:#FFFFFF;" d="M360.778,204.749c-0.06,0.026-0.269-0.259-0.408-0.805c-0.14-0.539-0.176-1.352,0.116-2.178
				c0.292-0.826,0.831-1.436,1.279-1.767c0.451-0.337,0.793-0.428,0.823-0.37c0.089,0.122-1.094,0.834-1.61,2.311
				C360.45,203.412,360.923,204.71,360.778,204.749z"/>
		</g>
		<g>
			<path style="fill:#FFFFFF;" d="M363.556,207.946c-0.003,0.141-0.627,0.185-1.197-0.262c-0.573-0.444-0.681-1.06-0.545-1.098
				c0.138-0.054,0.416,0.345,0.866,0.687C363.12,207.627,363.574,207.799,363.556,207.946z"/>
		</g>
	</g>
	<g>
		<path style="fill:#F5F5F5;" d="M472.303,283.746c0,3.602-2.92,6.521-6.521,6.521s-6.521-2.92-6.521-6.521s2.92-6.521,6.521-6.521
			S472.303,280.145,472.303,283.746z"/>
		<g>
			<path style="fill:#FFFFFF;" d="M461.007,284.621c-0.06,0.026-0.268-0.259-0.408-0.805c-0.141-0.539-0.176-1.352,0.116-2.178
				c0.292-0.826,0.831-1.436,1.279-1.767c0.451-0.337,0.793-0.428,0.823-0.37c0.089,0.122-1.094,0.834-1.61,2.311
				C460.679,283.284,461.152,284.582,461.007,284.621z"/>
		</g>
		<g>
			<path style="fill:#FFFFFF;" d="M463.785,287.818c-0.004,0.141-0.627,0.185-1.197-0.262c-0.573-0.444-0.681-1.06-0.545-1.097
				c0.138-0.054,0.415,0.345,0.866,0.687C463.349,287.499,463.803,287.672,463.785,287.818z"/>
		</g>
	</g>
	<g>
		<circle style="fill:#F5F5F5;" cx="40.804" cy="395.155" r="12.801"/>
		<g>
			<path style="fill:#FFFFFF;" d="M31.431,396.871c-0.054,0.025-0.401-0.553-0.625-1.609c-0.227-1.044-0.266-2.592,0.289-4.163
				c0.555-1.571,1.559-2.751,2.392-3.42c0.837-0.681,1.471-0.912,1.497-0.858c0.042,0.072-0.514,0.414-1.251,1.133
				c-0.736,0.71-1.627,1.852-2.146,3.32c-0.518,1.468-0.542,2.916-0.417,3.93C31.291,396.225,31.509,396.841,31.431,396.871z"/>
		</g>
		<g>
			<path style="fill:#FFFFFF;" d="M36.885,403.148c0.004,0.137-1.139,0.121-2.196-0.712c-1.065-0.823-1.359-1.927-1.225-1.957
				c0.139-0.061,0.602,0.826,1.545,1.546C35.937,402.764,36.91,402.998,36.885,403.148z"/>
		</g>
	</g>
	<g>
		<path style="fill:#F5F5F5;" d="M109.133,279.674c0,3.602-2.92,6.521-6.521,6.521c-3.602,0-6.521-2.92-6.521-6.521
			s2.92-6.521,6.521-6.521C106.213,273.153,109.133,276.073,109.133,279.674z"/>
		<g>
			<path style="fill:#FFFFFF;" d="M97.836,280.548c-0.06,0.026-0.269-0.259-0.408-0.805c-0.14-0.539-0.176-1.352,0.116-2.178
				c0.292-0.826,0.831-1.436,1.278-1.767c0.451-0.337,0.793-0.428,0.823-0.37c0.089,0.122-1.094,0.834-1.61,2.311
				C97.509,279.212,97.982,280.51,97.836,280.548z"/>
		</g>
		<g>
			<path style="fill:#FFFFFF;" d="M100.615,283.746c-0.003,0.141-0.627,0.185-1.197-0.262c-0.573-0.444-0.681-1.06-0.545-1.098
				c0.138-0.054,0.415,0.345,0.866,0.687C100.179,283.427,100.633,283.599,100.615,283.746z"/>
		</g>
	</g>
	<g>
		<path style="fill:#F5F5F5;" d="M129.096,41.94c0,3.602-2.92,6.521-6.521,6.521s-6.521-2.92-6.521-6.521
			c0-3.602,2.92-6.521,6.521-6.521S129.096,38.339,129.096,41.94z"/>
		<g>
			<path style="fill:#FFFFFF;" d="M117.8,42.815c-0.06,0.026-0.269-0.259-0.408-0.805c-0.14-0.539-0.176-1.352,0.116-2.178
				c0.292-0.826,0.831-1.436,1.278-1.767c0.451-0.337,0.793-0.428,0.823-0.37c0.089,0.122-1.094,0.834-1.61,2.311
				C117.473,41.478,117.946,42.776,117.8,42.815z"/>
		</g>
		<g>
			<path style="fill:#FFFFFF;" d="M120.578,46.013c-0.004,0.14-0.627,0.185-1.197-0.262c-0.573-0.444-0.681-1.06-0.545-1.098
				c0.138-0.054,0.415,0.345,0.866,0.687C120.143,45.693,120.597,45.866,120.578,46.013z"/>
		</g>
	</g>
	<g>
		<path style="fill:#F5F5F5;" d="M328.123,147.884c0,3.602-2.92,6.521-6.521,6.521c-3.602,0-6.521-2.92-6.521-6.521
			s2.92-6.521,6.521-6.521C325.203,141.363,328.123,144.283,328.123,147.884z"/>
		<path style="fill:#F5F5F5;" d="M342.696,57.257c0,3.602-2.92,6.521-6.521,6.521s-6.521-2.92-6.521-6.521s2.92-6.521,6.521-6.521
			S342.696,53.655,342.696,57.257z"/>
		<g>
			<path style="fill:#FFFFFF;" d="M316.826,148.759c-0.06,0.026-0.268-0.259-0.408-0.805c-0.141-0.539-0.176-1.352,0.116-2.178
				c0.292-0.826,0.831-1.436,1.279-1.767c0.451-0.337,0.793-0.428,0.823-0.37c0.089,0.122-1.094,0.833-1.61,2.311
				C316.499,147.422,316.972,148.72,316.826,148.759z"/>
		</g>
		<g>
			<path style="fill:#FFFFFF;" d="M319.605,151.956c-0.004,0.14-0.627,0.185-1.197-0.262c-0.573-0.444-0.681-1.06-0.545-1.098
				c0.138-0.054,0.415,0.345,0.866,0.687C319.169,151.637,319.623,151.809,319.605,151.956z"/>
		</g>
	</g>
	<g>
		
			<ellipse transform="matrix(0.2307 -0.973 0.973 0.2307 -0.4454 303.3496)" style="fill:#F5F5F5;" cx="191.627" cy="151.956" rx="10.024" ry="10.024"/>
		<g>
			<path style="fill:#FFFFFF;" d="M184.287,153.3c-0.057,0.026-0.343-0.423-0.529-1.253c-0.189-0.82-0.226-2.044,0.212-3.285
				c0.439-1.242,1.237-2.17,1.899-2.689c0.667-0.529,1.171-0.698,1.199-0.643c0.041,0.07-0.387,0.35-0.953,0.917
				c-0.566,0.561-1.251,1.45-1.654,2.589c-0.402,1.138-0.428,2.261-0.34,3.053C184.206,152.785,184.363,153.271,184.287,153.3z"/>
		</g>
		<g>
			<path style="fill:#FFFFFF;" d="M188.558,158.216c0.001,0.139-0.912,0.149-1.754-0.513c-0.847-0.656-1.059-1.544-0.924-1.577
				c0.139-0.058,0.52,0.613,1.245,1.166C187.837,157.861,188.58,158.067,188.558,158.216z"/>
		</g>
	</g>
	<g>
		
			<ellipse transform="matrix(0.696 -0.7181 0.7181 0.696 -206.741 182.0505)" style="fill:#F5F5F5;" cx="111.623" cy="335.177" rx="11.881" ry="11.881"/>
		<g>
			<path style="fill:#FFFFFF;" d="M102.922,336.769c-0.055,0.025-0.382-0.51-0.593-1.491c-0.214-0.97-0.253-2.411,0.264-3.872
				c0.517-1.462,1.452-2.559,2.228-3.178c0.781-0.63,1.372-0.841,1.398-0.787c0.042,0.071-0.472,0.393-1.153,1.061
				c-0.679,0.661-1.503,1.719-1.983,3.078c-0.48,1.359-0.504,2.699-0.391,3.64C102.802,336.167,103,336.74,102.922,336.769z"/>
		</g>
		<g>
			<path style="fill:#FFFFFF;" d="M107.984,342.596c0.003,0.138-1.064,0.13-2.049-0.646c-0.993-0.768-1.259-1.8-1.125-1.831
				c0.139-0.06,0.575,0.755,1.445,1.42C107.112,342.221,108.009,342.446,107.984,342.596z"/>
		</g>
	</g>
	<g>
		
			<ellipse transform="matrix(0.2265 -0.974 0.974 0.2265 -32.8309 129.8896)" style="fill:#F5F5F5;" cx="65.363" cy="85.615" rx="21.837" ry="21.837"/>
		<g>
			<path style="fill:#FFFFFF;" d="M49.373,88.542c-0.03,0.012-0.167-0.233-0.355-0.702c-0.189-0.469-0.411-1.171-0.583-2.063
				c-0.352-1.77-0.396-4.376,0.538-7.019c0.935-2.644,2.607-4.643,3.993-5.799c0.694-0.586,1.307-0.993,1.749-1.238
				c0.441-0.247,0.702-0.352,0.718-0.323c0.048,0.079-0.929,0.623-2.221,1.836c-1.289,1.197-2.849,3.158-3.748,5.699
				c-0.897,2.54-0.916,5.046-0.666,6.787C49.042,87.474,49.46,88.512,49.373,88.542z"/>
		</g>
		<g>
			<path style="fill:#FFFFFF;" d="M58.676,99.251c0.014,0.133-1.875,0.028-3.632-1.359c-1.774-1.368-2.334-3.175-2.202-3.193
				c0.141-0.073,0.871,1.517,2.523,2.783C56.993,98.774,58.712,99.096,58.676,99.251z"/>
		</g>
	</g>
	<g>
		<circle style="fill:#F5F5F5;" cx="434.858" cy="63.778" r="21.837"/>
		<g>
			<path style="fill:#FFFFFF;" d="M418.868,66.705c-0.03,0.012-0.167-0.233-0.355-0.702c-0.189-0.469-0.411-1.171-0.582-2.063
				c-0.352-1.77-0.396-4.376,0.538-7.019c0.935-2.644,2.607-4.643,3.993-5.799c0.694-0.586,1.307-0.993,1.749-1.238
				c0.441-0.247,0.702-0.352,0.718-0.323c0.048,0.078-0.929,0.623-2.221,1.836c-1.289,1.197-2.849,3.158-3.748,5.699
				c-0.897,2.54-0.916,5.045-0.665,6.787C418.537,65.637,418.955,66.674,418.868,66.705z"/>
		</g>
		<g>
			<path style="fill:#FFFFFF;" d="M428.172,77.414c0.014,0.133-1.875,0.028-3.632-1.359c-1.774-1.368-2.334-3.174-2.202-3.193
				c0.141-0.073,0.871,1.517,2.522,2.783C426.488,76.937,428.208,77.259,428.172,77.414z"/>
		</g>
	</g>
	<g>
		<circle style="fill:#F5F5F5;" cx="168.879" cy="79.97" r="10.919"/>
		<g>
			<path style="fill:#FFFFFF;" d="M160.884,81.433c-0.056,0.025-0.361-0.465-0.56-1.368c-0.201-0.892-0.239-2.221,0.237-3.568
				c0.476-1.348,1.341-2.357,2.058-2.925c0.722-0.578,1.268-0.767,1.295-0.712c0.041,0.071-0.428,0.37-1.049,0.986
				c-0.62,0.609-1.372,1.579-1.813,2.824c-0.439,1.245-0.465,2.472-0.365,3.335C160.784,80.876,160.96,81.404,160.884,81.433z"/>
		</g>
		<g>
			<path style="fill:#FFFFFF;" d="M165.536,86.787c0.002,0.138-0.985,0.14-1.896-0.577c-0.917-0.709-1.156-1.667-1.021-1.699
				c0.139-0.059,0.546,0.682,1.341,1.289C164.742,86.423,165.559,86.638,165.536,86.787z"/>
		</g>
	</g>
	<g>
		<circle style="fill:#F5F5F5;" cx="451.42" cy="127.47" r="10.919"/>
		<g>
			<path style="fill:#FFFFFF;" d="M443.425,128.934c-0.056,0.025-0.362-0.465-0.56-1.368c-0.201-0.892-0.239-2.221,0.237-3.568
				c0.476-1.348,1.341-2.357,2.058-2.925c0.722-0.578,1.267-0.767,1.295-0.712c0.041,0.071-0.428,0.37-1.049,0.986
				c-0.62,0.609-1.372,1.579-1.813,2.824c-0.44,1.245-0.465,2.472-0.365,3.335C443.325,128.377,443.501,128.905,443.425,128.934z"/>
		</g>
		<g>
			<path style="fill:#FFFFFF;" d="M448.077,134.288c0.002,0.138-0.985,0.14-1.896-0.577c-0.917-0.709-1.155-1.667-1.021-1.699
				c0.139-0.059,0.546,0.681,1.341,1.289C447.283,133.924,448.1,134.139,448.077,134.288z"/>
		</g>
	</g>
	<g>
		
			<ellipse transform="matrix(0.7071 -0.7071 0.7071 0.7071 -178.6348 427.0596)" style="fill:#F5F5F5;" cx="426.189" cy="429.161" rx="10.919" ry="10.919"/>
		<g>
			<path style="fill:#FFFFFF;" d="M418.194,430.625c-0.056,0.025-0.361-0.465-0.56-1.368c-0.201-0.892-0.239-2.221,0.237-3.568
				c0.476-1.348,1.341-2.357,2.058-2.925c0.722-0.578,1.268-0.767,1.295-0.712c0.041,0.071-0.428,0.37-1.049,0.986
				c-0.62,0.609-1.372,1.579-1.813,2.824c-0.439,1.244-0.465,2.472-0.365,3.335C418.094,430.067,418.271,430.596,418.194,430.625z"
				/>
		</g>
		<g>
			<path style="fill:#FFFFFF;" d="M422.846,435.979c0.002,0.138-0.985,0.14-1.896-0.577c-0.917-0.709-1.155-1.667-1.021-1.699
				c0.139-0.059,0.546,0.682,1.341,1.289C422.052,435.615,422.869,435.83,422.846,435.979z"/>
		</g>
	</g>
	<g>
		<path style="fill:#F5F5F5;" d="M396.604,350.702c0,3.787-3.07,6.857-6.857,6.857c-3.787,0-6.857-3.07-6.857-6.857
			c0-3.787,3.07-6.857,6.857-6.857C393.534,343.845,396.604,346.915,396.604,350.702z"/>
		<g>
			<path style="fill:#FFFFFF;" d="M401.115,342.291c-0.06,0.026-0.276-0.275-0.419-0.848c-0.145-0.566-0.181-1.419,0.125-2.284
				c0.306-0.866,0.87-1.507,1.338-1.856c0.472-0.356,0.829-0.454,0.859-0.396c0.091,0.121-1.161,0.866-1.706,2.425
				C400.757,340.888,401.262,342.254,401.115,342.291z"/>
		</g>
		<g>
			<path style="fill:#FFFFFF;" d="M404.037,345.654c-0.003,0.14-0.654,0.182-1.251-0.286c-0.599-0.465-0.717-1.106-0.582-1.144
				c0.138-0.054,0.425,0.371,0.902,0.733C403.574,345.331,404.056,345.507,404.037,345.654z"/>
		</g>
	</g>
	<g>
		<circle style="fill:#F5F5F5;" cx="78.02" cy="438.804" r="6.857"/>
		<g>
			<path style="fill:#FFFFFF;" d="M89.388,430.393c-0.06,0.026-0.276-0.275-0.419-0.848c-0.145-0.566-0.181-1.419,0.125-2.284
				c0.306-0.865,0.87-1.507,1.338-1.856c0.472-0.356,0.829-0.454,0.859-0.396c0.091,0.121-1.161,0.866-1.706,2.425
				C89.03,428.989,89.535,430.356,89.388,430.393z"/>
		</g>
		<g>
			<path style="fill:#FFFFFF;" d="M92.31,433.756c-0.003,0.14-0.655,0.182-1.251-0.286c-0.599-0.465-0.717-1.106-0.582-1.143
				c0.138-0.054,0.425,0.371,0.902,0.733C91.847,433.433,92.329,433.609,92.31,433.756z"/>
		</g>
	</g>
</g>
<g id="Background_Simple" style="display:none;">
	<path style="display:inline;fill:#F5F5F5;" d="M95.832,190.426l0.207-3.489c1.746-29.41,19.085-55.746,45.706-67.73
		c3.422-1.54,6.956-2.834,10.577-3.857c26.071-7.363,55.81-0.421,76.244,17.799c12.018,10.715,21.522,25.342,36.546,30.949
		c19.552,7.297,40.611-3.278,58.624-13.527c18.013-10.249,39.114-20.777,58.635-13.394c12.226,4.624,21.167,15.662,26.683,27.592
		c14.602,31.585,7.711,70.368-12.299,98.409c-20.01,28.041-51.418,46.203-84.389,55.942
		c-46.188,13.643-98.094,11.513-140.814-11.569C128.831,284.469,97.098,239.035,95.832,190.426z"/>
	
		<ellipse transform="matrix(0.1558 -0.9878 0.9878 0.1558 -26.5647 139.1889)" style="display:inline;fill:#F5F5F5;" cx="68.147" cy="85.135" rx="16.324" ry="16.324"/>
	
		<ellipse transform="matrix(0.2282 -0.9736 0.9736 0.2282 260.2294 498.5316)" style="display:inline;fill:#F5F5F5;" cx="444.546" cy="85.135" rx="16.324" ry="16.324"/>
</g>
<g id="Floor">
	<g>
		<path style="fill:#FF725E;" d="M42.115,462.55c139.13,0,278.26,0,417.391,0"/>
		<g>
			<path style="fill:#263238;" d="M459.506,462.55c0,0.144-93.444,0.26-208.685,0.26c-115.282,0-208.705-0.116-208.705-0.26
				c0-0.144,93.424-0.26,208.705-0.26C366.062,462.29,459.506,462.406,459.506,462.55z"/>
		</g>
	</g>
</g>
<g id="Nail_clippers">
	<g>
		<path style="fill:#E0E0E0;" d="M369.267,108.203l5.684-10.424l2.39-6.147l3.258-0.41l1.271-1.517l-0.491-3.905l-1.697-1.874
			c0,0,4.866-0.24,4.936,3.555c0.085,4.616,1.561,9.095-2.265,11.873l-2.209,0.695l-5.53,9.987L369.267,108.203z"/>
		<g>
			<path style="fill:#FAFAFA;" d="M390.131,105.901l-8.088-8.692l-3.98-4.759c-0.277-0.331-0.702-0.498-1.13-0.444l-1.986,0.25
				L373.34,91.1l-0.678-3.317l1.061-2.192c0.121-0.25-0.115-0.527-0.379-0.439c-1.287,0.433-3.879,1.669-3.217,4.473
				c1.061,4.493,0.739,9.198,5.135,10.942l2.313,0.127l7.831,8.307L390.131,105.901z"/>
			<g>
				<path style="fill:#263238;" d="M390.13,105.901c0.013,0.002-0.081,0.074-0.277,0.213c-0.236,0.166-0.528,0.37-0.886,0.621
					c-0.853,0.584-2.021,1.383-3.484,2.384l-0.098,0.067l-0.085-0.089c-2.011-2.102-4.717-4.932-7.89-8.25l0.152,0.07
					c-0.723-0.037-1.51-0.076-2.313-0.117l-0.036-0.002l-0.038-0.014c-1.057-0.404-2.071-1.118-2.779-2.113
					c-0.717-0.987-1.155-2.17-1.439-3.378c-0.293-1.212-0.477-2.46-0.701-3.715c-0.11-0.628-0.237-1.255-0.379-1.883
					c-0.157-0.664-0.174-1.41,0.09-2.084c0.503-1.321,1.721-2.086,2.87-2.548c0.153-0.062,0.281-0.109,0.459-0.166
					c0.275-0.084,0.589,0.088,0.678,0.345c0.052,0.127,0.053,0.279,0.005,0.405c-0.049,0.118-0.07,0.15-0.107,0.229l-0.198,0.407
					c-0.263,0.542-0.524,1.078-0.782,1.609l0.02-0.162c0.229,1.131,0.453,2.238,0.671,3.318l-0.098-0.151
					c0.544,0.394,1.078,0.78,1.603,1.159l-0.171-0.043c0.388-0.048,0.773-0.095,1.154-0.141c0.402-0.031,0.709-0.128,1.189-0.102
					c0.44,0.037,0.86,0.337,1.076,0.648c0.235,0.283,0.467,0.563,0.697,0.84c0.916,1.107,1.789,2.163,2.615,3.161
					c1.691,1.971,3.301,3.645,4.552,5.061c1.227,1.366,2.215,2.464,2.937,3.268c0.307,0.348,0.557,0.631,0.759,0.859
					C390.064,105.803,390.144,105.902,390.13,105.901c-0.013-0.002-0.121-0.104-0.315-0.299c-0.222-0.227-0.498-0.509-0.836-0.854
					c-0.752-0.781-1.782-1.849-3.061-3.177c-1.287-1.371-2.877-2.944-4.576-4.882c-0.838-0.991-1.724-2.039-2.653-3.138
					c-0.232-0.275-0.467-0.554-0.705-0.836c-0.213-0.287-0.46-0.439-0.777-0.478c-0.273-0.023-0.716,0.075-1.077,0.11
					c-0.381,0.049-0.765,0.099-1.154,0.149l-0.093,0.012l-0.078-0.056c-0.527-0.377-1.063-0.76-1.61-1.15l-0.078-0.056l-0.02-0.095
					c-0.223-1.08-0.452-2.185-0.685-3.315l-0.017-0.084l0.038-0.078c0.257-0.532,0.516-1.069,0.777-1.612l0.197-0.408l0.086-0.182
					c0.006-0.015,0.005-0.025,0-0.039c-0.015-0.032-0.039-0.044-0.062-0.035c-0.112,0.038-0.272,0.094-0.403,0.149
					c-1.085,0.434-2.165,1.151-2.573,2.248c-0.221,0.563-0.211,1.188-0.072,1.784c0.145,0.641,0.273,1.279,0.382,1.911
					c0.223,1.264,0.404,2.505,0.685,3.685c0.273,1.179,0.687,2.296,1.343,3.209c0.648,0.92,1.563,1.577,2.555,1.966l-0.074-0.016
					c0.803,0.047,1.589,0.094,2.312,0.136l0.091,0.005l0.06,0.065c3.125,3.364,5.79,6.232,7.77,8.363l-0.182-0.021
					c1.469-0.922,2.641-1.658,3.498-2.196c0.385-0.236,0.699-0.429,0.953-0.585C389.997,105.968,390.117,105.899,390.13,105.901z"/>
			</g>
		</g>
		<path style="fill:#FF725E;" d="M371.09,106.095c0,0-4.497-0.061-5.802,6.994c-1.305,7.054-4.42,16.32-3.425,23.398
			c0.995,7.078,2.283,23.417,8.805,22.695c4.839-0.536-0.161-9.584-0.312-21.571c0,0-0.606-3.16,1.432-9.367
			c2.038-6.207,3.898-10.512,5.592-12.813c1.694-2.301,0.805-5.217-1.74-7.193C373.094,106.26,371.09,106.095,371.09,106.095z"/>
		<g>
			<path style="fill:#E0E0E0;" d="M380.275,96.753c0.147,1.166-0.68,2.23-1.846,2.377c-1.166,0.147-2.23-0.68-2.377-1.846
				c-0.147-1.166,0.68-2.23,1.846-2.377C379.064,94.76,380.128,95.587,380.275,96.753z"/>
			<g>
				<path style="fill:#263238;" d="M380.275,96.753c-0.042,0.006-0.082-0.18-0.225-0.47c-0.141-0.285-0.418-0.684-0.912-0.944
					c-0.479-0.264-1.201-0.341-1.833,0.001c-0.63,0.321-1.104,1.096-0.994,1.912c0.096,0.818,0.746,1.451,1.436,1.607
					c0.698,0.174,1.377-0.079,1.777-0.453c0.414-0.375,0.584-0.829,0.65-1.14C380.239,96.948,380.233,96.757,380.275,96.753
					c0.028-0.005,0.107,0.179,0.099,0.536c-0.008,0.349-0.138,0.895-0.593,1.379c-0.438,0.481-1.256,0.848-2.141,0.659
					c-0.873-0.163-1.726-0.961-1.847-2.01c-0.142-1.046,0.486-2.03,1.292-2.404c0.81-0.403,1.694-0.25,2.237,0.108
					c0.561,0.356,0.822,0.853,0.916,1.189C380.334,96.553,380.303,96.751,380.275,96.753z"/>
			</g>
		</g>
		<path style="fill:#FF725E;" d="M387.292,104.057c0,0,4.342-1.173,7.353,5.339c3.011,6.511,8.324,14.717,9.113,21.821
			c0.789,7.104,3.587,23.253-2.911,24.169c-4.821,0.679-2.217-9.326-5.039-20.976c0,0-0.195-3.212-3.707-8.721
			c-3.512-5.509-6.379-9.22-8.591-11.029c-2.211-1.81-2.072-4.855-0.096-7.4C385.391,104.714,387.292,104.057,387.292,104.057z"/>
	</g>
</g>
<g id="Ball_00000163788886037198356330000013622354877307857321_">
	<g>
		<g>
			
				<ellipse transform="matrix(0.2273 -0.9738 0.9738 0.2273 -29.1058 214.075)" style="fill:#FF725E;" cx="120.349" cy="125.379" rx="22.794" ry="22.794"/>
			<path style="opacity:0.3;" d="M131.074,105.192c3.449,3.994,5.535,9.198,5.535,14.89c0,12.589-10.205,22.794-22.794,22.794
				c-3.878,0-7.528-0.969-10.725-2.677c4.18,4.84,10.361,7.904,17.259,7.904c12.589,0,22.794-10.205,22.794-22.794
				C143.143,116.597,138.256,109.028,131.074,105.192z"/>
		</g>
		<g>
			<path style="fill:#FFFFFF;" d="M103.231,135.722c-0.025,0.019-0.275-0.259-0.664-0.809c-0.39-0.549-0.897-1.388-1.395-2.49
				c-1.003-2.182-1.851-5.553-1.381-9.253c0.472-3.701,2.139-6.753,3.656-8.613c0.758-0.942,1.459-1.627,1.974-2.061
				c0.514-0.435,0.825-0.641,0.845-0.617c0.068,0.074-1.112,0.996-2.527,2.902c-1.413,1.881-2.974,4.869-3.431,8.455
				c-0.455,3.585,0.307,6.868,1.203,9.043C102.404,134.479,103.316,135.667,103.231,135.722z"/>
		</g>
	</g>
</g>
<g id="Dog_Food">
	<g>
		<path style="fill:#AE7461;" d="M282.475,75.83c-1.895-2.395-5.138-3.644-8.15-3.137c-0.888-3.566-3.762-6.567-7.285-7.608
			c-3.524-1.041-7.567-0.083-10.25,2.428c-3.278-2.735-7.065-4.968-11.233-5.892c-4.168-0.923-8.746-0.435-12.331,1.883
			c-3.584,2.318-5.978,6.6-5.509,10.843c-2.647-0.387-5.458,0.618-7.259,2.596c-1.802,1.977-2.541,4.869-1.911,7.469l65.105,0.071
			C284.838,81.669,284.369,78.225,282.475,75.83z"/>
		<g>
			<path style="fill:#FF725E;" d="M301.35,108.347l-8.907-24.941c-0.732-2.048-2.672-3.415-4.847-3.415h-34.534
				c-0.037,0-0.314,0-0.79,0h-34.534c-2.175,0-4.115,1.367-4.847,3.415l-8.907,24.941h-5.453v7.011h53.741h0.79h53.741v-7.011
				H301.35z"/>
		</g>
		<path style="fill:#AE7461;" d="M261.448,56.962c-0.67-0.605-1.852-0.242-2.263-0.104l-0.796-0.456l-3.268-1.921
			c-0.089-0.425-0.374-1.628-1.235-1.9c-0.877-0.277-1.156,0.114-1.368,0.444c-0.212,0.33-0.253,1.083-0.253,1.083
			s-0.604,0.431-0.781,0.78c-0.178,0.35-0.373,0.789,0.309,1.405c0.67,0.605,1.852,0.242,2.264,0.104l2.412,1.414l1.603,0.934
			c0.09,0.425,0.374,1.628,1.235,1.9c0.876,0.277,1.156-0.114,1.368-0.444c0.212-0.33,0.278-1.069,0.278-1.069
			s0.628-0.416,0.806-0.766C261.935,58.017,262.13,57.578,261.448,56.962z"/>
		<g>
			<path style="fill:#263238;" d="M307.553,108.635c0,0.144-24.553,0.26-54.834,0.26c-30.291,0-54.839-0.117-54.839-0.26
				c0-0.144,24.548-0.26,54.839-0.26C282.999,108.375,307.553,108.491,307.553,108.635z"/>
		</g>
		<path style="fill:#6F4439;" d="M250.83,69.076c-0.9-0.069-1.613,0.941-1.854,1.302l-0.909,0.126l-3.761,0.48
			c-0.331-0.282-1.292-1.059-2.139-0.747c-0.863,0.318-0.845,0.798-0.81,1.188s0.462,1.011,0.462,1.011s-0.214,0.71-0.141,1.095
			c0.073,0.385,0.188,0.852,1.104,0.922c0.9,0.069,1.613-0.941,1.854-1.302l2.773-0.357l1.839-0.242
			c0.331,0.282,1.292,1.059,2.139,0.747c0.863-0.318,0.845-0.798,0.81-1.188c-0.035-0.391-0.434-1.015-0.434-1.015
			s0.242-0.714,0.169-1.099C251.86,69.612,251.746,69.146,250.83,69.076z"/>
		<path style="fill:#6F4439;" d="M270.929,76.213c-0.452-0.782-1.688-0.799-2.122-0.794l-0.618-0.678l-2.521-2.831
			c0.045-0.432,0.143-1.664-0.593-2.187c-0.749-0.532-1.135-0.246-1.438,0.003c-0.303,0.249-0.573,0.953-0.573,0.953
			s-0.707,0.225-0.983,0.503c-0.277,0.278-0.597,0.636-0.137,1.432c0.452,0.782,1.688,0.799,2.122,0.794l1.862,2.086l1.239,1.381
			c-0.045,0.432-0.143,1.664,0.593,2.187c0.749,0.532,1.135,0.246,1.438-0.003c0.303-0.249,0.592-0.932,0.592-0.932
			s0.725-0.204,1.002-0.482C271.069,77.367,271.389,77.009,270.929,76.213z"/>
	</g>
</g>
<g id="Hairdryer">
	<g>
		<g>
			<path style="fill:#E0E0E0;" d="M32.013,215.808c2.575-0.092,5.15-0.185,7.726-0.277c0.653-0.023,1.281-0.558,1.25-1.25
				c-0.029-0.657-0.55-1.275-1.25-1.25c-2.575,0.092-5.151,0.185-7.726,0.277c-0.653,0.023-1.281,0.558-1.25,1.25
				C30.793,215.215,31.313,215.833,32.013,215.808L32.013,215.808z"/>
		</g>
		<g>
			<path style="fill:#E0E0E0;" d="M32.434,220.789c2.575-0.092,5.151-0.185,7.726-0.278c0.653-0.023,1.281-0.558,1.25-1.25
				c-0.029-0.657-0.55-1.275-1.25-1.25c-2.575,0.093-5.151,0.185-7.726,0.278c-0.653,0.023-1.281,0.558-1.25,1.25
				C31.213,220.197,31.734,220.815,32.434,220.789L32.434,220.789z"/>
		</g>
		<g>
			<path style="fill:#263238;" d="M62.111,254.22c0.155,3.823-0.11,7.645-0.871,11.397c-0.699,3.447-1.682,7.047-3.334,10.17
				c-0.65,1.23-1.488,2.487-2.762,3.141c-1.755,0.901-3.802,0.365-5.537-0.309c-2.768-1.075-5.333-2.771-7.485-4.807
				c-4.246-4.019-7.131-9.612-7.223-15.525c-0.089-5.719,2.345-11.427,6.557-15.301c11.351-10.441,27.78-1.491,40.499,0.495
				c4.938,0.771,11.463,0.645,14.49-4.077c1.625-2.535,1.467-5.741,0.27-8.411c-1.335-2.976-3.939-5.102-6.712-6.693
				c-6.862-3.939-14.766-6.503-22.491-8.072c-7.91-1.607-16.023-2.092-24.066-1.416c-1.592,0.134-1.606,2.635,0,2.5
				c14.836-1.248,30.091,1.468,43.431,8.154c3.062,1.535,6.362,3.517,7.701,6.85c1.103,2.746,0.571,5.866-2.032,7.516
				c-2.336,1.48-5.323,1.671-8.01,1.469c-3.591-0.27-7.152-1.263-10.616-2.2c-7.192-1.946-14.569-4.191-22.107-3.27
				c-6.272,0.766-11.717,3.893-15.327,9.106c-3.316,4.787-4.703,10.799-3.793,16.547c0.926,5.854,4.25,11.277,8.756,15.075
				c2.625,2.212,5.789,4.168,9.148,5.01c3.614,0.906,6.765-0.319,8.811-3.398c2.155-3.244,3.282-7.445,4.101-11.207
				c0.91-4.181,1.275-8.467,1.102-12.741C64.546,252.616,62.046,252.608,62.111,254.22L62.111,254.22z"/>
		</g>
		<path style="fill:#263238;" d="M47.486,195.277l-1.693-0.76c-3.036-1.362-3.562-4.283-3.03-7.964
			c1.408-6.223,3.612-11.911,7.416-16.524c2.496-2.758,4.928-4.392,7.963-3.03l1.693,0.76L47.486,195.277z"/>
		<path style="fill:#FF725E;" d="M47.486,195.277c1.354-11.016,4.851-20.697,12.48-27.806c0,0,8.586-3.106,29.374,6.919
			c20.788,10.026,12.202,13.132,43.783,27.538l-11.873,26.454c0,0-31.849-15.76-36.693-8.653c-2.202,3.23,2.083,5.035-5.543,22.027
			c-2.41,5.369-3.568,8.095-4.831,10.908c-1.211,2.699-7.224,6.932-11.251,4.838c-4.098-2.131-7.038-7.813-5.093-11.892
			c4.647-9.745,6.175-14.363,7.358-21.363c0.756-4.473,1.3-7.006,0.823-9.358C64.704,208.415,56.789,203.366,47.486,195.277z"/>
		<g>
			<path style="fill:#FF725E;" d="M129.35,216.118c-3.28,7.309-6.907,12.8-8.1,12.264c-1.193-0.536,0.498-6.895,3.779-14.204
				c3.28-7.309,6.907-12.8,8.1-12.264S132.63,208.81,129.35,216.118z"/>
			<path style="opacity:0.3;" d="M128.838,215.889c-2.962,6.599-6.101,11.618-7.012,11.209c-0.911-0.409,0.752-6.09,3.714-12.689
				s6.101-11.618,7.012-11.209S131.8,209.29,128.838,215.889z"/>
		</g>
		<path style="fill:#263238;" d="M81.208,231.029c-0.909,2.026-2.66,3.212-3.911,2.651c-1.251-0.562-1.528-2.659-0.619-4.684
			c0.909-2.026,2.66-3.213,3.911-2.651C81.84,226.906,82.118,229.003,81.208,231.029z"/>
		<path style="fill:#263238;" d="M59.346,241.998c-0.004,0.01,16.298,7.315,16.298,7.315l-1.703,3.794
			c-2.02,4.501-7.306,6.512-11.806,4.492l0,0c-4.501-2.02-6.512-7.306-4.492-11.807L59.346,241.998z"/>
		
			<rect x="94.78" y="206.986" transform="matrix(0.9123 0.4095 -0.4095 0.9123 94.2798 -23.6818)" style="fill:#FFFFFF;" width="15.322" height="2.661"/>
		<path style="fill:#263238;" d="M35.494,222.64l-1.227-12.018l5.395-0.551c3.319-0.339,6.284,2.077,6.622,5.396l0,0
			c0.339,3.319-2.077,6.284-5.396,6.622L35.494,222.64z"/>
	</g>
</g>
<g id="Dog">
	<g>
		<g>
			<path style="fill:#E0E0E0;" d="M201.734,350.202c-8.48-10.251-21.388-7.748-26.639-4.866
				c-5.251,2.882-11.282,13.022-12.052,18.962c-6.036-1.042-12.565,1.84-15.863,7.001c-3.298,5.161-3.171,12.297,0.31,17.337
				c-9.08,0.482-21.84,15.482-13.631,19.393c2.796,1.332,78.645,1.332,78.645,1.332L201.734,350.202z M145.887,396.344
				c-1.072,0-1.941-0.869-1.941-1.94c0-1.072,0.869-1.94,1.941-1.94c1.072,0,1.94,0.869,1.94,1.94
				C147.827,395.475,146.958,396.344,145.887,396.344z M151.876,394.417c-0.249,0.608-0.944,0.898-1.551,0.649
				c-0.607-0.249-0.898-0.944-0.649-1.551c0.249-0.607,0.944-0.898,1.551-0.649S152.126,393.809,151.876,394.417z"/>
		</g>
		<path style="fill:#E0E0E0;" d="M379.399,407.093c0-11.55-12.865-18.994-20.851-16.203c5.514-6.375,1.928-17.334-5.483-21.35
			s-16.771-2.409-24.219,1.536c1.615-7.978-1.384-16.724-7.555-22.032c-6.171-5.308-16.12-8.661-22.914-4.177
			c-4.045,2.669-12.353,67.527-9.167,68.036c3.186,0.509,18.768,6.241,19.629,5.665C309.7,417.992,379.399,407.093,379.399,407.093z
			"/>
		<g>
			<path style="fill:#E0E0E0;" d="M261.131,214.293c-4.933-6.133-14.851-7.442-21.207-2.8c-3.156,2.305-5.458,6.397-4.234,10.109
				c-2.58,0.471-4.779,2.595-5.34,5.157c-0.561,2.562,0.549,5.411,2.695,6.917l26.277,1.931
				C265.218,230.394,266.064,220.426,261.131,214.293z M241.999,219.281c-1.397,0-2.529-1.132-2.529-2.529
				c0-1.397,1.132-2.529,2.529-2.529c1.397,0,2.529,1.132,2.529,2.529C244.528,218.148,243.396,219.281,241.999,219.281z
				 M244.864,214.223c-0.482,0-0.873-0.391-0.873-0.873c0-0.482,0.391-0.873,0.873-0.873c0.482,0,0.873,0.391,0.873,0.873
				C245.737,213.832,245.346,214.223,244.864,214.223z"/>
			<path style="fill:#6F4439;" d="M216.825,391.84c-5.061,3.71-7.563,10.131-7.973,16.393c-0.409,6.262,1.004,12.483,2.409,18.599
				c-2.793-1.205-6.204,1.296-6.589,4.314s1.61,5.956,4.22,7.517c2.611,1.561,5.73,1.996,8.764,2.216
				c5.076,0.368,10.173,0.224,15.26,0.079c3.28-0.093,6.844-0.291,9.328-2.434c2.727-2.352,3.303-6.307,3.47-9.904
				c0.415-8.945-0.579-17.953-2.935-26.592"/>
			<path style="fill:#AE7461;" d="M315.448,355.763c0,0-1.25-19.541-8.897-30.798c-5.831-8.584-21.452-24.426-21.452-24.426
				l-77.401,6.992c0,0-18.994,26.61-15.237,55.835c3.757,29.224,0.826,57.048,0.826,57.048s-13.326,3.107-7.942,19.462h17.684
				c0,0,3.829,0.096,8.479-5.283c4.65-5.38,8.217-40.515,9.585-47.718l-3.141,18.418c0.275,0.823,14.548,18.802,38.703,20.312
				c24.155,1.51,27.449-1.235,27.449-1.235l35.272-44.879L315.448,355.763z"/>
			<path style="fill:#AE7461;" d="M284.012,386.478c0.475,0.158,3.48,9.017,3.638,17.244c0.158,8.226-2.373,27.21-1.819,32.905
				c0.554,5.695,3.718,7.91,9.887,9.017c6.17,1.107,19.933,0.949,21.357-2.848c1.424-3.797,3.48-9.492-2.848-12.972
				c-6.328-3.48-7.435-9.211-7.119-13.464c0.316-4.254,7.34-27.883,8.226-37.317c0.886-9.434-3.096-20.921-3.096-20.921
				l-18.894,8.423L284.012,386.478z"/>
			<path style="fill:#AE7461;" d="M311.381,382.206c0,0,6.486-6.328,14.396,0c7.91,6.328,5.853,34.487,3.48,38.917l-0.791,1.898
				c0,0,10.599-1.582,10.125,16.136c0,0-13.059,6.44-21.242,2.904c-8.183-3.536-16.059-10.181-16.059-10.181l-3.039-24.521
				L311.381,382.206z"/>
			<g>
				<path style="fill:#263238;" d="M225.34,368.916c0.035,0.007-0.057,0.637-0.253,1.769c-0.212,1.215-0.495,2.833-0.838,4.793
					c-0.713,4.127-1.672,9.681-2.732,15.819c-1.07,6.18-2.079,11.768-2.884,15.8c-0.398,2.016-0.745,3.644-1.001,4.765
					c-0.258,1.121-0.417,1.736-0.452,1.729c-0.035-0.007,0.057-0.637,0.253-1.769c0.213-1.215,0.495-2.832,0.838-4.792
					c0.713-4.127,1.672-9.681,2.733-15.821c1.07-6.178,2.079-11.766,2.883-15.797c0.398-2.017,0.745-3.644,1.001-4.765
					C225.146,369.525,225.305,368.909,225.34,368.916z"/>
			</g>
			<g>
				<path style="fill:#263238;" d="M284.422,365.86c0.143-0.01,0.841,8.526,1.557,19.062c0.717,10.54,1.181,19.089,1.037,19.099
					c-0.143,0.01-0.84-8.524-1.557-19.064C284.743,374.42,284.279,365.869,284.422,365.86z"/>
			</g>
			<g>
				<path style="fill:#263238;" d="M314.723,347.233c0.018-0.001,0.053,0.24,0.103,0.702c0.05,0.514,0.114,1.186,0.195,2.023
					c0.077,0.899,0.168,1.971,0.274,3.205c0.076,1.261,0.162,2.685,0.257,4.252c0.333,6.301,0.539,15.044-0.241,24.66
					c-0.398,4.806-1.01,9.364-1.741,13.478c-0.719,4.117-1.615,7.775-2.398,10.833c-0.811,3.052-1.552,5.498-2.091,7.179
					c-0.265,0.798-0.478,1.438-0.641,1.929c-0.152,0.439-0.24,0.667-0.257,0.661c-0.017-0.005,0.038-0.244,0.157-0.693
					c0.139-0.497,0.321-1.147,0.548-1.956c0.479-1.697,1.164-4.154,1.928-7.211c0.736-3.063,1.592-6.717,2.283-10.825
					c0.703-4.104,1.298-8.647,1.695-13.437c0.777-9.583,0.63-18.305,0.392-24.601c-0.066-1.567-0.126-2.99-0.179-4.251
					c-0.071-1.235-0.133-2.308-0.185-3.208c-0.04-0.84-0.072-1.513-0.097-2.029C314.705,347.479,314.705,347.235,314.723,347.233z"
					/>
			</g>
			<g style="opacity:0.3;">
				<path style="fill:#FFFFFF;" d="M272.819,382.783c-0.416-4.608-0.841-9.26-2.24-13.67c-1.399-4.411-3.871-8.623-7.657-11.284
					c-5.812-4.085-14.034-3.774-20.174-0.202c-6.14,3.572-10.303,9.951-12.337,16.757c-2.033,6.807-2.121,14.048-1.573,21.131
					c0.548,7.083,1.714,14.111,2.131,21.202l44.287-6.957C274.444,400.768,273.632,391.776,272.819,382.783z"/>
			</g>
			<g>
				<path style="fill:#6F4439;" d="M272.386,314.323c-0.016-4.924-3.61-9.186-7.749-11.853c-4.749-3.06-10.412-4.61-16.061-4.672
					c-3.976-0.044-8.143,0.713-11.247,3.197c-3.085,2.467-4.764,6.432-4.941,10.378c-0.177,3.946-2.901,7.231-1.016,10.702
					c7.12,4.543,15.762,6.653,24.175,5.904c3.961-0.353,7.96-1.365,11.208-3.659C270.002,322.027,272.399,318.299,272.386,314.323z"
					/>
				<path style="fill:#AE7461;" d="M298.446,297.762l0.513-9.11c0,0,0.482-4.276-5.285-28.823
					c-7.61-32.391-49.009-29.057-49.009-29.057l0,0.001c-3.901-0.139-40.675,0.673-45.378,35.468
					c-2.522,18.654-0.276,25.461-0.276,25.461l2.698,11.962c0,0,3.378,23.601,22.332,26.133c0,0,5.171,1.284,11.102-9.796
					c5.774-10.785,4.758-15.966,13.487-18.461c10.925,0.835,10.561,7.069,18.165,17.056c7.613,9.999,12.515,7.911,12.515,7.911
					C297.624,321.001,298.446,297.762,298.446,297.762z"/>
				<path style="fill:#263238;" d="M223.024,282.205c-2.894,2.212-7.034,1.66-9.247-1.235c-2.212-2.894-1.66-7.034,1.235-9.246
					c2.894-2.212,7.034-1.66,9.247,1.235C226.471,275.853,225.919,279.992,223.024,282.205z"/>
				<path style="fill:#263238;" d="M281.979,278.422c-2.894,2.212-7.034,1.659-9.246-1.235c-2.212-2.894-1.66-7.034,1.235-9.247
					c2.894-2.212,7.034-1.659,9.246,1.235C285.426,272.069,284.873,276.209,281.979,278.422z"/>
				<g style="opacity:0.2;">
					<path d="M297.975,301.81c-18.503-16.515-27.314-27.592-43.485-29.524l-0.89-0.085c-9.755-1.784-20.298,1.511-27.3,8.532
						c-4.883,4.896-6.879,12.227-12.689,15.975c-2.556,1.649-7.614,2.954-9.637,5.225c-0.997,1.12-1.588,2.339-1.895,3.621
						c1.265,5.639,6.28,22.148,21.963,24.242c0,0,5.171,1.284,11.102-9.796c5.774-10.785,4.758-15.966,13.487-18.461
						c10.925,0.835,10.561,7.069,18.165,17.056c7.613,9.999,12.515,7.911,12.515,7.911
						C292.832,322.442,296.815,308.719,297.975,301.81z"/>
				</g>
				<path style="fill:#263238;" d="M258.06,279.248c-0.443-0.96-1.437-1.758-2.592-2.336l0.036,0.011
					c-0.022-0.009-0.043-0.016-0.065-0.025c-0.7-0.347-1.454-0.613-2.189-0.778c-3.606-1.112-6.982-1.14-10.818,0.444
					c-1.65,0.682-3.265,1.672-4.162,3.217c-0.897,1.544-0.855,3.736,0.479,4.923c1.42,1.263,3.662,1,5.294,1.973
					c1.056,0.629,1.749,1.709,2.643,2.552c0.894,0.842,2.244,1.462,3.334,0.894c1.384-0.721,1.414-2.797,2.617-3.79
					c1.134-0.936,2.896-0.594,4.15-1.361C258.388,283.99,258.846,280.952,258.06,279.248z"/>
				<g>
					<path style="fill:#263238;" d="M271.046,278.276c-0.009,0.015-0.201-0.075-0.557-0.261c-0.405-0.212-0.921-0.482-1.556-0.814
						c-1.356-0.693-3.339-1.663-5.882-2.627c-2.547-0.942-5.662-1.887-9.221-2.356c-3.547-0.482-7.544-0.478-11.576,0.442
						c-4.032,0.902-7.671,2.6-10.535,4.736c-1.436,1.064-2.679,2.232-3.735,3.421c-1.045,1.2-1.911,2.412-2.665,3.544
						c-1.499,2.271-2.636,4.172-3.511,5.426c-0.433,0.63-0.784,1.11-1.032,1.427c-0.249,0.316-0.387,0.477-0.401,0.467
						c-0.014-0.011,0.095-0.192,0.316-0.528c0.247-0.384,0.561-0.874,0.948-1.477c0.82-1.285,1.904-3.206,3.372-5.517
						c0.739-1.152,1.597-2.39,2.646-3.625c1.062-1.223,2.318-2.427,3.774-3.522c2.904-2.199,6.607-3.942,10.708-4.86
						c4.102-0.936,8.169-0.924,11.757-0.409c3.602,0.502,6.738,1.494,9.288,2.488c2.546,1.016,4.515,2.041,5.846,2.792
						c0.668,0.373,1.174,0.684,1.512,0.902C270.882,278.139,271.055,278.26,271.046,278.276z"/>
				</g>
				<path style="fill:#AE7461;" d="M201.291,201.493c-4.175-4.75-9.343-9.925-15.644-9.387c-4.118,0.352-7.702,3.25-9.795,6.815
					c-2.092,3.565-2.897,7.733-3.353,11.841c-1.769,15.934,1.319,32.374,8.75,46.579c3.726,7.124,9.345,14.231,17.274,15.557
					l31.681-38.51C220.567,223.423,210.929,212.458,201.291,201.493z"/>
				<path style="fill:#AE7461;" d="M287.994,199.978c3.926-4.957,8.823-10.39,15.142-10.175c4.131,0.141,7.859,2.852,10.131,6.305
					c2.272,3.453,3.289,7.575,3.955,11.654c2.582,15.822,0.34,32.399-6.354,46.966c-3.357,7.305-8.604,14.691-16.455,16.421
					l-33.611-36.837C269.866,222.867,278.93,211.423,287.994,199.978z"/>
				<g>
					<path style="fill:#263238;" d="M226.762,234.654c0.013,0.04-0.593,0.26-1.671,0.69c-1.079,0.427-2.62,1.102-4.441,2.089
						c-3.636,1.948-8.366,5.38-12.209,10.408c-3.847,5.029-5.918,10.494-6.844,14.513c-0.475,2.016-0.722,3.68-0.851,4.833
						c-0.131,1.153-0.185,1.796-0.227,1.793c-0.018-0.001-0.025-0.162-0.023-0.469c0.008-0.307,0-0.761,0.049-1.343
						c0.067-1.165,0.261-2.849,0.694-4.896c0.842-4.078,2.887-9.647,6.79-14.748c3.899-5.102,8.736-8.535,12.45-10.417
						c1.861-0.955,3.436-1.583,4.543-1.953c0.548-0.2,0.989-0.311,1.283-0.399C226.599,234.672,226.757,234.637,226.762,234.654z"/>
				</g>
				<g>
					<path style="fill:#263238;" d="M244.666,230.773c-0.003-0.019,0.214-0.053,0.627-0.09c0.413-0.038,1.023-0.077,1.81-0.102
						c1.574-0.054,3.856-0.048,6.666,0.162c5.586,0.423,13.446,1.646,21.229,5.456c3.85,1.946,7.247,4.357,9.88,7.021
						c2.627,2.67,4.547,5.489,5.815,8.012c1.262,2.529,2.009,4.698,2.429,6.215c0.178,0.721,0.323,1.305,0.436,1.761
						c0.094,0.404,0.135,0.617,0.117,0.621c-0.017,0.004-0.092-0.201-0.219-0.595c-0.137-0.448-0.312-1.02-0.528-1.728
						c-0.477-1.491-1.271-3.623-2.561-6.103c-1.296-2.475-3.221-5.23-5.828-7.844c-2.614-2.608-5.969-4.971-9.773-6.895
						c-7.688-3.765-15.476-5.041-21.027-5.555c-2.792-0.256-5.064-0.318-6.633-0.327c-0.74,0.002-1.339,0.003-1.808,0.004
						C244.884,230.79,244.666,230.79,244.666,230.773z"/>
				</g>
				<g>
					<path style="fill:#263238;" d="M298.446,297.762c0,0,0.014,0.228-0.01,0.668c-0.023,0.44-0.075,1.094-0.178,1.943
						c-0.213,1.695-0.607,4.191-1.541,7.269c-0.943,3.059-2.411,6.763-5.118,10.397c-1.358,1.799-3.01,3.593-5.075,5.092
						c-2.051,1.509-4.468,2.757-7.151,3.581l0.022-0.008c-0.8,0.268-1.583,0.221-2.366,0.1c-0.783-0.123-1.535-0.396-2.261-0.728
						c-1.445-0.684-2.778-1.64-4.003-2.744c-2.447-2.222-4.53-4.963-6.494-7.878c-0.972-1.468-1.907-2.993-2.833-4.543
						c-0.938-1.541-1.872-3.117-3.026-4.536c-1.144-1.421-2.587-2.62-4.3-3.345c-1.707-0.738-3.596-1.058-5.502-1.233l0.091-0.009
						c-1.488,0.451-3.064,1.051-4.409,2.029c-2.488,1.759-3.696,4.674-4.842,7.394c-1.14,2.761-2.298,5.484-3.64,8.049
						c-1.334,2.566-2.835,5.011-4.703,7.089c-0.958,1.014-1.992,1.951-3.177,2.654c-1.184,0.684-2.497,1.228-3.946,1.022
						l0.025,0.005c-3.863-0.542-7.424-2.015-10.253-4.154c-2.836-2.132-5.017-4.745-6.663-7.392c-1.652-2.652-2.836-5.32-3.71-7.827
						c-0.871-2.51-1.469-4.851-1.808-6.976l0.002,0.01c-0.835-3.828-1.488-6.817-1.937-8.876c-0.21-0.998-0.372-1.771-0.487-2.319
						c-0.048-0.247-0.086-0.44-0.116-0.594c-0.024-0.133-0.033-0.202-0.027-0.203c0.006-0.001,0.027,0.064,0.063,0.195
						c0.039,0.151,0.088,0.342,0.15,0.586c0.131,0.544,0.316,1.312,0.555,2.304c0.478,2.053,1.172,5.033,2.061,8.848l0.001,0.002
						l0.001,0.008c0.355,2.09,0.973,4.421,1.855,6.903c0.886,2.481,2.078,5.119,3.725,7.73c1.641,2.607,3.803,5.169,6.593,7.248
						c2.783,2.086,6.268,3.513,10.056,4.035l0.026,0.005c1.171,0.167,2.484-0.318,3.585-0.979c1.127-0.673,2.128-1.581,3.059-2.57
						c1.82-2.033,3.297-4.443,4.615-6.989c1.329-2.549,2.474-5.248,3.614-8.016c0.574-1.381,1.172-2.78,1.944-4.116
						c0.766-1.333,1.781-2.581,3.069-3.5c1.418-1.03,3.05-1.647,4.573-2.108l0.045-0.013l0.046,0.004
						c1.942,0.179,3.884,0.505,5.669,1.278c1.791,0.757,3.315,2.03,4.489,3.495c1.186,1.464,2.124,3.055,3.061,4.6
						c0.925,1.554,1.85,3.07,2.812,4.53c1.944,2.9,4.001,5.618,6.395,7.804c1.198,1.086,2.495,2.019,3.881,2.682
						c0.695,0.321,1.413,0.584,2.146,0.701c0.716,0.124,1.497,0.146,2.123-0.062l0.022-0.008c2.64-0.799,5.018-2.012,7.043-3.484
						c2.037-1.462,3.676-3.219,5.029-4.986c2.698-3.568,4.189-7.23,5.16-10.26c0.964-3.049,1.396-5.528,1.649-7.213
						c0.124-0.844,0.197-1.493,0.241-1.931C298.415,297.988,298.446,297.762,298.446,297.762z"/>
				</g>
				<g>
					<path style="fill:#263238;" d="M249.528,289.612c0.137-0.007,0.354,2.706,0.145,6.048c-0.201,3.344-0.749,6.008-0.884,5.985
						c-0.149-0.023,0.165-2.702,0.364-6.017C249.36,292.314,249.377,289.616,249.528,289.612z"/>
				</g>
				<path style="fill:#263238;" d="M223.628,309.107c-0.085,0.639-0.672,1.088-1.311,1.002c-0.639-0.085-1.087-0.672-1.002-1.311
					s0.672-1.087,1.311-1.002C223.264,307.881,223.713,308.468,223.628,309.107z"/>
				<path style="fill:#263238;" d="M229.252,301.71c-0.085,0.639-0.672,1.088-1.311,1.002c-0.639-0.085-1.087-0.672-1.002-1.311
					c0.085-0.639,0.672-1.088,1.311-1.002C228.889,300.484,229.338,301.071,229.252,301.71z"/>
				<path style="fill:#263238;" d="M236.258,307.366c-0.085,0.639-0.672,1.087-1.311,1.002c-0.639-0.085-1.087-0.672-1.002-1.311
					s0.672-1.087,1.311-1.002C235.895,306.14,236.343,306.727,236.258,307.366z"/>
				<path style="fill:#263238;" d="M240.564,299.801c-0.085,0.639-0.672,1.088-1.311,1.002c-0.639-0.085-1.088-0.672-1.002-1.311
					c0.085-0.639,0.672-1.088,1.311-1.002C240.2,298.575,240.649,299.162,240.564,299.801z"/>
				<path style="fill:#263238;" d="M228.6,315.408c-0.085,0.639-0.672,1.088-1.311,1.002c-0.639-0.085-1.088-0.672-1.002-1.311
					c0.085-0.639,0.672-1.088,1.311-1.002C228.237,314.182,228.686,314.77,228.6,315.408z"/>
				<path style="fill:#263238;" d="M278.497,308.286c-0.085,0.639,0.363,1.226,1.002,1.311s1.226-0.363,1.311-1.002
					c0.085-0.639-0.363-1.226-1.002-1.311C279.169,307.199,278.582,307.647,278.497,308.286z"/>
				<path style="fill:#263238;" d="M272.887,300.827c-0.085,0.639,0.363,1.226,1.002,1.311c0.639,0.085,1.226-0.363,1.311-1.002
					c0.085-0.639-0.363-1.226-1.002-1.311C273.559,299.739,272.972,300.188,272.887,300.827z"/>
				<path style="fill:#263238;" d="M265.858,303.924c-0.085,0.639,0.363,1.226,1.002,1.311c0.639,0.085,1.226-0.363,1.311-1.002
					c0.085-0.639-0.363-1.226-1.002-1.311C266.53,302.836,265.943,303.285,265.858,303.924z"/>
				<path style="fill:#263238;" d="M262.473,296.016c-0.085,0.639,0.363,1.226,1.002,1.311c0.639,0.085,1.226-0.363,1.311-1.002
					c0.085-0.639-0.363-1.226-1.002-1.311C263.145,294.928,262.558,295.377,262.473,296.016z"/>
				<path style="fill:#263238;" d="M271.387,312.057c-0.085,0.639,0.363,1.226,1.002,1.311c0.639,0.085,1.226-0.363,1.311-1.002
					c0.085-0.639-0.363-1.226-1.002-1.311C272.059,310.969,271.472,311.418,271.387,312.057z"/>
				<g>
					<path style="fill:#263238;" d="M223.929,255.872c0.035,0.728-0.779,1.405-2.001,2.092c-1.231,0.682-2.9,1.405-4.79,2.129
						c-3.761,1.413-7.116,2.405-7.972,1.225c-0.402-0.586-0.026-1.652,1.05-2.827c1.072-1.165,2.847-2.424,5.067-3.263
						c2.212-0.849,4.417-1.105,6.025-0.892C222.923,254.539,223.896,255.165,223.929,255.872z"/>
				</g>
				<g>
					<path style="fill:#263238;" d="M281.846,252.026c-0.227,0.692-1.23,1.034-2.617,1.239c-1.394,0.197-3.211,0.276-5.235,0.277
						c-4.018-0.024-7.505-0.296-7.883-1.704c-0.166-0.691,0.566-1.552,1.99-2.266c1.417-0.705,3.525-1.247,5.898-1.238
						c2.37-0.003,4.521,0.546,5.946,1.319C281.383,250.422,282.068,251.354,281.846,252.026z"/>
				</g>
			</g>
			<g>
				<path style="fill:#263238;" d="M256.346,268.344c-0.02,0.083-1.146-0.16-2.981-0.388c-1.834-0.231-4.39-0.394-7.2-0.195
					c-2.811,0.206-5.317,0.734-7.099,1.226c-1.784,0.489-2.863,0.891-2.894,0.812c-0.013-0.033,0.243-0.167,0.719-0.382
					c0.474-0.22,1.181-0.491,2.069-0.783c1.774-0.588,4.311-1.183,7.167-1.392c2.856-0.202,5.452,0.022,7.292,0.35
					c0.921,0.162,1.659,0.329,2.16,0.478C256.082,268.213,256.354,268.309,256.346,268.344z"/>
			</g>
			<g style="opacity:0.2;">
				<path d="M201.624,261.123c-1.41,6.27-12.477-3.597-16.073-8.923c-3.597-5.326-5.191-11.715-6.722-17.957
					c-2.014-8.211-4.04-16.702-2.626-25.037c0.479-2.824,1.386-5.646,3.17-7.886c1.784-2.24,4.559-3.822,7.417-3.645
					c3.226,0.199,5.909,2.487,8.143,4.824c7.66,8.011,13.183,18.048,15.851,28.806c1.033,4.165,2.776,9.516,0.331,13.044
					C211.116,244.347,203.855,251.203,201.624,261.123z"/>
			</g>
			<g style="opacity:0.2;">
				<path d="M293.674,258.595c1.41,6.27,10.191-4.381,13.788-9.707c3.596-5.326,5.191-11.715,6.722-17.957
					c2.014-8.211,1.952-14.915,0.538-23.25c-0.479-2.824-1.639-6.556-3.796-10.61c-1.345-2.529-4.806-5.181-7.664-5.004
					c-3.226,0.2-6.348,2.489-8.582,4.825c-7.66,8.011-9.783,20.342-12.452,31.101c-1.033,4.166-2.776,9.516-0.331,13.044
					C281.898,241.036,291.444,248.676,293.674,258.595z"/>
			</g>
			<g>
				<path style="fill:#263238;" d="M257.508,375.972c-0.011,0.009-0.095-0.076-0.245-0.248c-0.147-0.175-0.375-0.427-0.639-0.778
					c-0.537-0.695-1.276-1.749-2.058-3.164c-1.563-2.804-3.251-7.198-3.38-12.54l0.487,0.061c-0.326,1.157-0.662,2.582-1.884,3.461
					c-0.589,0.4-1.361,0.647-2.131,0.439c-0.791-0.204-1.299-0.919-1.555-1.587c-0.915-2.493-0.758-5.167,0.09-7.346l0.287,0.334
					c-0.591,0.13-1.084,0.546-1.505,1.017c-0.432,0.473-0.789,0.998-1.274,1.466c-0.49,0.448-1.067,0.791-1.719,0.911
					c-0.648,0.147-1.411-0.145-1.742-0.718c-0.335-0.563-0.35-1.171-0.356-1.706c0.005-0.539,0.018-1.059,0.065-1.559
					c0.081-1,0.238-1.915,0.432-2.731c0.386-1.636,0.909-2.874,1.308-3.694c0.201-0.41,0.37-0.72,0.495-0.922
					c0.123-0.204,0.193-0.306,0.206-0.299c0.031,0.017-0.195,0.456-0.547,1.291c-0.347,0.835-0.818,2.074-1.154,3.693
					c-0.17,0.808-0.304,1.71-0.364,2.691c-0.037,0.49-0.04,1-0.037,1.527c0.009,0.517,0.052,1.064,0.315,1.482
					c0.263,0.418,0.772,0.617,1.301,0.503c0.528-0.101,1.05-0.41,1.476-0.811c0.418-0.407,0.788-0.95,1.234-1.448
					c0.439-0.496,1.006-1.008,1.759-1.18l0.456-0.104l-0.169,0.438c-0.797,2.068-0.929,4.644-0.073,6.97
					c0.237,0.609,0.642,1.137,1.211,1.282c0.563,0.16,1.208-0.026,1.702-0.363c1.011-0.704,1.375-2.008,1.696-3.166l0.457-1.647
					l0.03,1.708c0.093,5.243,1.687,9.59,3.157,12.404c0.736,1.419,1.427,2.491,1.919,3.212
					C257.256,375.567,257.534,375.952,257.508,375.972z"/>
			</g>
			<path style="fill:#E0E0E0;" d="M292.176,405.539c-6.024-4.387-14.331-5.431-21.253-2.671
				c-3.564-7.286-12.939-11.119-20.586-8.417c-7.648,2.702-12.534,11.573-10.73,19.481c-7.908-3.206-18.063,1.82-20.31,10.051
				l81.946,0.963C301.743,417.511,298.2,409.926,292.176,405.539z"/>
		</g>
		<g>
			<path style="fill:#FF725E;" d="M125.285,412.679l73.599,0.324l21.096,11.418c5.259,0.438,87.215,0,87.215,0l11.742-11.742h59.027
				l-29.422,49.871H153.363L125.285,412.679z"/>
			<g>
				<path style="fill:#FF725E;" d="M379.209,403.914c-15.811,0-31.622,0-47.432,0c-2.076,0-4.197-0.132-6.27,0
					c-4.334,0.277-6.529,2.817-9.309,5.597c-4.925,4.925-9.85,9.85-14.775,14.775c-26.845,0-53.69,0-80.535,0
					c-4.712-3.842-9.423-7.684-14.135-11.527c-4.791-3.908-9.15-8.698-15.609-8.846c-17.173-0.393-34.4,0-51.577,0
					c-6.493,0-12.985,0-19.478,0c-11.28,0-11.299,17.531,0,17.531c23.234,0,46.468,0,69.702,0
					c7.103,5.815,14.181,11.663,21.348,17.397c6.134,4.908,16.582,2.975,23.989,2.975c14.11,0,28.219,0,42.329,0
					c9.056,0,18.297,0.539,27.34,0c5.902-0.352,9.885-6,13.783-9.897c3.492-3.492,6.983-6.983,10.475-10.475
					c16.717,0,33.435,0,50.152,0C390.489,421.445,390.508,403.914,379.209,403.914z"/>
				<g>
					<path style="fill:#263238;" d="M379.209,403.914c0,0,0.113-0.003,0.338,0.004c0.223,0.021,0.563-0.012,1.003,0.069
						c0.874,0.097,2.227,0.383,3.674,1.386c1.429,0.989,2.848,2.84,3.336,5.382c0.256,1.259,0.269,2.674-0.048,4.125
						c-0.315,1.442-0.986,2.95-2.154,4.17c-1.137,1.24-2.811,2.121-4.663,2.379c-0.928,0.153-1.888,0.119-2.855,0.125
						c-0.971,0.002-1.965,0.003-2.982,0.005c-4.067,0.006-8.493,0.013-13.259,0.02c-9.535,0.011-20.432,0.023-32.542,0.037
						l0.123-0.051c-3.498,3.508-7.151,7.172-10.949,10.98c-1.865,1.924-3.641,4.032-5.763,5.882
						c-2.087,1.835-4.703,3.435-7.693,3.59c-5.779,0.344-11.759,0.257-17.905,0.136c-6.145-0.156-12.467-0.118-18.962-0.115
						c-6.492,0.003-13.15,0.006-19.96,0.009c-6.817,0.052-13.763-0.156-20.857,0.321c-3.546,0.129-7.194,0.122-10.759-0.769
						c-1.77-0.464-3.503-1.205-4.997-2.322c-1.465-1.116-2.851-2.3-4.29-3.455c-5.711-4.652-11.519-9.383-17.414-14.185l0.16,0.057
						c-22.149,0.002-45.581,0.005-69.673,0.007c-1.552,0.006-3.128-0.35-4.496-1.117c-1.357-0.777-2.477-1.965-3.174-3.351
						c-1.429-2.766-1.431-6.165-0.086-8.935c0.665-1.391,1.733-2.587,3.044-3.402c1.317-0.81,2.86-1.186,4.375-1.23
						c2.972-0.005,5.931-0.009,8.878-0.014c11.776,0.027,23.334-0.035,34.643-0.129c5.654-0.036,11.244-0.054,16.766-0.016
						c2.761,0.033,5.504,0.067,8.229,0.099c1.367,0.042,2.709,0.015,4.093,0.146c1.371,0.162,2.704,0.548,3.955,1.089
						c2.512,1.089,4.671,2.755,6.699,4.458c2.019,1.729,4.012,3.422,6.051,5.057c4.044,3.301,8.026,6.551,11.941,9.746l-0.147-0.052
						c30.231,0.019,57.37,0.036,80.534,0.051l-0.128,0.053c4.704-4.695,9.181-9.163,13.414-13.388
						c1.059-1.056,2.103-2.097,3.131-3.123c1.04-1.016,2.146-1.967,3.397-2.662c1.25-0.696,2.635-1.089,4.011-1.195
						c1.37-0.114,2.715-0.082,4.032-0.058c10.527,0.089,19.59,0.049,26.986,0.081c7.392,0.021,13.125,0.037,17.02,0.048
						c1.938,0.011,3.416,0.02,4.419,0.025C378.699,403.896,379.209,403.914,379.209,403.914s-0.509,0.018-1.504,0.026
						c-1.003,0.006-2.482,0.014-4.419,0.025c-3.895,0.011-9.628,0.027-17.02,0.048c-7.399-0.002-16.454,0.068-26.992,0.006
						c-2.599-0.022-5.447-0.204-7.888,1.235c-2.429,1.376-4.295,3.687-6.447,5.747c-4.224,4.233-8.693,8.709-13.388,13.414
						l-0.053,0.053h-0.076c-23.164,0.015-50.303,0.032-80.534,0.051h-0.083l-0.064-0.052c-3.918-3.192-7.902-6.439-11.949-9.736
						c-2.035-1.629-4.053-3.341-6.059-5.057c-2.018-1.695-4.145-3.327-6.582-4.38c-1.214-0.524-2.498-0.894-3.818-1.05
						c-1.311-0.124-2.69-0.099-4.046-0.14c-2.723-0.031-5.465-0.063-8.224-0.095c-5.518-0.035-11.107-0.014-16.759,0.024
						c-11.305,0.099-22.872,0.164-34.646,0.14c-2.941,0.005-5.896,0.01-8.862,0.016c-1.443,0.043-2.889,0.398-4.118,1.154
						c-1.223,0.762-2.222,1.876-2.849,3.189c-1.272,2.61-1.27,5.862,0.081,8.466c0.657,1.307,1.704,2.412,2.97,3.138
						c1.278,0.715,2.754,1.054,4.238,1.048c24.092,0.002,47.524,0.005,69.673,0.007h0.09l0.07,0.057
						c5.892,4.804,11.696,9.536,17.404,14.19c1.432,1.151,2.836,2.351,4.273,3.446c1.432,1.072,3.102,1.791,4.827,2.244
						c3.477,0.872,7.087,0.888,10.617,0.76c7.085-0.472,14.076-0.26,20.874-0.305c6.81,0.003,13.467,0.006,19.96,0.009
						c6.49,0.004,12.823-0.027,18.97,0.137c6.145,0.128,12.114,0.223,17.873-0.112c2.865-0.143,5.398-1.675,7.462-3.483
						c2.095-1.819,3.868-3.915,5.748-5.849c3.806-3.803,7.466-7.461,10.972-10.964l0.051-0.051l0.072,0
						c12.11,0.014,23.007,0.026,32.542,0.037c4.766,0.007,9.192,0.014,13.259,0.02c1.017,0.002,2.011,0.004,2.982,0.005
						c0.973-0.002,1.921,0.034,2.823-0.112c1.812-0.245,3.442-1.095,4.557-2.301c1.145-1.185,1.811-2.661,2.128-4.076
						c0.319-1.426,0.315-2.82,0.069-4.062c-0.466-2.509-1.849-4.341-3.251-5.33c-1.419-1.003-2.756-1.305-3.624-1.417
						c-0.435-0.089-0.774-0.064-0.997-0.093C379.322,403.928,379.209,403.914,379.209,403.914z"/>
				</g>
			</g>
		</g>
		<g>
			<g>
				<path style="fill:#FF725E;" d="M154.412,370.588c0.533-3.165,1.545-5.792,3.99-7.871c-2.069-1.233-3.848-2.044-4.195-5.392
					c-0.191-1.848,0.351-3.731,1.562-5.14c1.211-1.409,2.824-2.402,4.409-3.371c-0.694-1.046-1.079-2.295-1.093-3.55
					c0.622,0.789,1.465,1.401,2.408,1.747c-0.592-1.618-0.462-3.486,0.349-5.007c0.056,2.522,2.358,4.408,4.658,5.444
					c2.3,1.036,4.877,1.649,6.737,3.353c2.175,1.992,2.944,5.311,2.058,8.124c-0.887,2.813-3.306,5.04-6.129,5.895
					c2.785,1.759,6.212,2.476,9.468,1.983c3.257-0.493,6.317-2.194,8.456-4.699c1.942,2.636,2.804,6.044,2.347,9.285
					c-0.456,3.242-2.732,7.306-5.327,9.303h-27.359C155.124,377.927,153.879,373.753,154.412,370.588z"/>
				<path style="fill:#FF725E;" d="M156.754,357.566c-0.23-0.259-1.668-3.972-1.668-3.972s-2.295-0.421-3.714-1.7
					c0,0-0.685,0.36,0.374,1.983c1.059,1.622,2.285,2.587,2.285,2.587s-3.224,0.168-3.216,2.387l2.645-0.138l1.238,0.91
					L156.754,357.566z"/>
				<path style="opacity:0.3;" d="M156.754,357.566c-0.23-0.259-1.882-4.018-1.882-4.018s-2.081-0.376-3.501-1.654
					c0,0-0.685,0.36,0.374,1.983c1.059,1.622,2.285,2.587,2.285,2.587s-3.224,0.168-3.216,2.387l2.645-0.138l1.238,0.91
					L156.754,357.566z"/>
				<path style="fill:#263238;" d="M158.527,354.845c0.035,0.677,0.613,1.197,1.29,1.162c0.677-0.035,1.197-0.613,1.162-1.29
					c-0.035-0.677-0.613-1.198-1.29-1.162C159.012,353.59,158.492,354.167,158.527,354.845z"/>
				<g>
					<path style="fill:#263238;" d="M160.642,370.086c0.077-0.075,0.908,1.039,2.753,2.181c1.803,1.14,4.78,2.196,8.047,1.721
						c3.266-0.493,5.808-2.368,7.203-3.982c1.434-1.628,1.906-2.935,2.001-2.885c0.028,0.011-0.065,0.341-0.319,0.906
						c-0.252,0.565-0.702,1.351-1.401,2.218c-1.364,1.725-3.979,3.741-7.407,4.259c-3.43,0.499-6.518-0.671-8.323-1.926
						c-0.921-0.627-1.579-1.248-1.985-1.716C160.804,370.394,160.619,370.104,160.642,370.086z"/>
				</g>
			</g>
			<path style="fill:#E0E0E0;" d="M152.479,384.208c0.908-2.405,2.888-4.382,5.294-5.287c2.406-0.905,5.198-0.723,7.466,0.486
				c1.605-1.892,4.02-2.973,6.474-3.34c2.454-0.367,4.962-0.076,7.396,0.405c2.467,0.487,4.95,1.193,7.008,2.639
				c2.058,1.446,3.644,3.746,3.694,6.261"/>
		</g>
	</g>
</g>
<g id="Bubbles">
	<g>
		<g>
			<circle style="fill:#E0E0E0;" cx="150.902" cy="284.294" r="13.502"/>
			<g>
				<path style="fill:#263238;" d="M164.404,284.294c-0.078,0.007,0.006-1.204-0.521-3.272c-0.521-2.028-1.874-5.009-4.924-7.314
					c-1.511-1.126-3.413-2.082-5.605-2.465c-2.178-0.369-4.633-0.297-6.97,0.595c-1.176,0.41-2.31,1.029-3.352,1.809
					c-1.054,0.766-2.01,1.716-2.799,2.816c-1.629,2.169-2.547,4.956-2.574,7.828c0.026,2.873,0.943,5.661,2.573,7.831
					c0.788,1.101,1.745,2.052,2.799,2.817c1.042,0.781,2.176,1.4,3.352,1.81c2.337,0.892,4.793,0.964,6.971,0.595
					c2.192-0.383,4.095-1.339,5.605-2.465c3.049-2.305,4.403-5.286,4.923-7.314C164.41,285.498,164.325,284.287,164.404,284.294
					c0.018,0,0.021,0.296,0.009,0.864c0.001,0.284-0.013,0.635-0.081,1.046c-0.054,0.412-0.105,0.89-0.252,1.412
					c-0.468,2.072-1.792,5.149-4.896,7.557c-1.537,1.176-3.489,2.182-5.749,2.597c-2.245,0.401-4.786,0.343-7.213-0.568
					c-1.221-0.419-2.4-1.055-3.484-1.861c-1.096-0.791-2.092-1.774-2.914-2.915c-1.697-2.248-2.658-5.148-2.683-8.133
					c0.026-2.984,0.987-5.882,2.684-8.13c0.822-1.141,1.818-2.124,2.914-2.914c1.084-0.806,2.263-1.442,3.484-1.861
					c2.427-0.91,4.968-0.969,7.213-0.568c2.261,0.414,4.212,1.42,5.749,2.596c3.104,2.408,4.429,5.485,4.897,7.558
					c0.147,0.521,0.198,1,0.252,1.412c0.068,0.41,0.082,0.761,0.081,1.046C164.424,283.997,164.422,284.294,164.404,284.294z"/>
			</g>
		</g>
		<g>
			<path style="fill:#FFFFFF;" d="M141.015,286.104c-0.053,0.025-0.416-0.586-0.649-1.698c-0.237-1.1-0.276-2.731,0.308-4.385
				c0.585-1.654,1.64-2.898,2.516-3.605c0.881-0.719,1.546-0.966,1.572-0.913c0.043,0.073-0.547,0.43-1.327,1.187
				c-0.779,0.748-1.722,1.953-2.27,3.504c-0.548,1.551-0.572,3.081-0.436,4.152C140.86,285.426,141.094,286.074,141.015,286.104z"/>
		</g>
		<g>
			<path style="fill:#FFFFFF;" d="M146.767,292.725c0.005,0.137-1.196,0.113-2.307-0.762c-1.12-0.865-1.434-2.024-1.3-2.053
				c0.139-0.062,0.623,0.879,1.621,1.642C145.763,292.334,146.794,292.574,146.767,292.725z"/>
		</g>
	</g>
	<g>
		<g>
			<circle style="fill:#E0E0E0;" cx="256.346" cy="167.016" r="12.193"/>
			<g>
				<path style="fill:#263238;" d="M268.539,167.016c-0.074,0.006-0.002-1.087-0.48-2.952c-0.473-1.829-1.697-4.516-4.448-6.593
					c-1.363-1.014-3.079-1.875-5.055-2.219c-1.963-0.331-4.177-0.266-6.282,0.538c-1.06,0.37-2.082,0.928-3.02,1.631
					c-0.95,0.69-1.811,1.547-2.522,2.539c-1.468,1.955-2.295,4.466-2.319,7.055c0.023,2.589,0.85,5.102,2.318,7.057
					c0.71,0.993,1.572,1.849,2.522,2.539c0.939,0.704,1.961,1.262,3.021,1.632c2.106,0.805,4.32,0.87,6.283,0.538
					c1.977-0.344,3.692-1.205,5.055-2.22c2.751-2.077,3.975-4.764,4.447-6.593C268.537,168.103,268.465,167.01,268.539,167.016
					c0.018,0,0.022,0.268,0.013,0.78c0.002,0.257-0.01,0.574-0.071,0.945c-0.048,0.372-0.094,0.805-0.225,1.276
					c-0.42,1.873-1.615,4.657-4.421,6.837c-1.39,1.065-3.154,1.975-5.199,2.351c-2.031,0.363-4.329,0.311-6.526-0.512
					c-1.105-0.379-2.172-0.954-3.153-1.683c-0.992-0.715-1.893-1.605-2.637-2.637c-1.536-2.034-2.405-4.658-2.428-7.359
					c0.023-2.7,0.893-5.323,2.429-7.357c0.744-1.032,1.645-1.921,2.637-2.636c0.981-0.729,2.048-1.304,3.153-1.683
					c2.196-0.823,4.495-0.875,6.525-0.512c2.045,0.376,3.809,1.286,5.199,2.351c2.806,2.18,4.001,4.963,4.421,6.837
					c0.132,0.471,0.177,0.904,0.225,1.276c0.061,0.371,0.073,0.688,0.071,0.945C268.561,166.749,268.557,167.016,268.539,167.016z"
					/>
			</g>
		</g>
		<g>
			<path style="fill:#FFFFFF;" d="M247.417,168.651c-0.054,0.025-0.388-0.525-0.604-1.531c-0.219-0.995-0.257-2.472,0.272-3.971
				c0.53-1.499,1.488-2.624,2.284-3.26c0.8-0.647,1.405-0.865,1.432-0.811c0.042,0.072-0.487,0.4-1.186,1.086
				c-0.699,0.678-1.545,1.764-2.038,3.16c-0.493,1.396-0.517,2.772-0.4,3.738C247.29,168.034,247.495,168.621,247.417,168.651z"/>
		</g>
		<g>
			<path style="fill:#FFFFFF;" d="M252.612,174.63c0.003,0.138-1.089,0.127-2.099-0.668c-1.017-0.786-1.293-1.843-1.159-1.874
				c0.139-0.061,0.584,0.779,1.479,1.463C251.714,174.253,252.637,174.48,252.612,174.63z"/>
		</g>
	</g>
	<g>
		<g>
			<path style="fill:#E0E0E0;" d="M398.2,291.318c0,3.602-2.92,6.521-6.521,6.521c-3.602,0-6.521-2.92-6.521-6.521
				s2.92-6.521,6.521-6.521C395.28,284.796,398.2,287.716,398.2,291.318z"/>
			<g>
				<path style="fill:#263238;" d="M398.2,291.318c-0.056,0.003-0.034-0.581-0.302-1.568c-0.265-0.968-0.926-2.383-2.385-3.47
					c-1.41-1.09-3.73-1.699-5.973-0.862c-1.105,0.4-2.159,1.155-2.906,2.196c-0.77,1.027-1.202,2.344-1.215,3.703
					c0.013,1.359,0.445,2.676,1.214,3.704c0.748,1.041,1.802,1.796,2.907,2.196c2.244,0.837,4.564,0.228,5.974-0.862
					c1.459-1.087,2.12-2.502,2.385-3.47C398.166,291.898,398.144,291.314,398.2,291.318c0.018,0,0.028,0.143,0.031,0.419
					c0.008,0.275-0.024,0.685-0.137,1.198c-0.212,1.012-0.845,2.523-2.358,3.713c-1.461,1.191-3.933,1.896-6.361,1.021
					c-1.195-0.419-2.339-1.224-3.154-2.345c-0.837-1.106-1.312-2.536-1.324-4.006c0.012-1.47,0.487-2.899,1.324-4.005
					c0.815-1.121,1.959-1.926,3.154-2.345c2.427-0.875,4.899-0.171,6.36,1.02c1.514,1.19,2.146,2.701,2.358,3.713
					c0.113,0.513,0.146,0.923,0.137,1.198C398.228,291.174,398.218,291.318,398.2,291.318z"/>
			</g>
		</g>
		<g>
			<path style="fill:#FFFFFF;" d="M386.904,292.192c-0.06,0.026-0.268-0.259-0.408-0.805c-0.14-0.539-0.176-1.352,0.116-2.178
				c0.292-0.826,0.831-1.436,1.279-1.767c0.451-0.337,0.793-0.428,0.823-0.37c0.089,0.122-1.094,0.833-1.61,2.311
				C386.576,290.855,387.049,292.153,386.904,292.192z"/>
		</g>
		<g>
			<path style="fill:#FFFFFF;" d="M389.682,295.389c-0.004,0.141-0.627,0.185-1.197-0.262c-0.573-0.444-0.681-1.06-0.545-1.098
				c0.138-0.054,0.415,0.345,0.866,0.687C389.246,295.07,389.7,295.243,389.682,295.389z"/>
		</g>
	</g>
	<g>
		<g>
			<path style="fill:#E0E0E0;" d="M356.586,300.423c-3.531,5.752-11.056,7.553-16.808,4.022c-5.752-3.53-7.553-11.056-4.023-16.808
				c3.531-5.752,11.056-7.553,16.808-4.022C358.316,287.146,360.117,294.671,356.586,300.423z"/>
			<g>
				<path style="fill:#263238;" d="M356.586,300.423c-0.066-0.034,0.569-0.93,1.138-2.773c0.555-1.81,0.919-4.747-0.342-7.964
					c-0.632-1.581-1.646-3.216-3.155-4.546c-1.503-1.313-3.429-2.417-5.649-2.834c-1.099-0.24-2.264-0.299-3.435-0.19
					c-1.173,0.091-2.358,0.371-3.485,0.846c-2.279,0.9-4.302,2.612-5.68,4.81c-1.338,2.224-1.949,4.803-1.72,7.244
					c0.087,1.22,0.374,2.404,0.823,3.492c0.433,1.094,1.013,2.106,1.725,2.978c1.377,1.791,3.234,3.008,5.085,3.754
					c1.869,0.742,3.786,0.906,5.482,0.754c3.439-0.332,5.893-1.986,7.255-3.3C356.015,301.35,356.526,300.379,356.586,300.423
					c0.015,0.009-0.122,0.24-0.398,0.673c-0.133,0.22-0.31,0.485-0.556,0.77c-0.236,0.293-0.502,0.638-0.861,0.972
					c-1.341,1.38-3.821,3.131-7.36,3.522c-1.745,0.181-3.73,0.034-5.673-0.717c-1.925-0.754-3.861-2.004-5.306-3.858
					c-0.745-0.903-1.355-1.954-1.811-3.091c-0.472-1.131-0.776-2.363-0.87-3.635c-0.245-2.543,0.388-5.24,1.784-7.559
					c1.435-2.294,3.553-4.078,5.931-5.01c1.176-0.491,2.412-0.779,3.634-0.869c1.22-0.108,2.433-0.04,3.575,0.215
					c2.308,0.448,4.298,1.609,5.842,2.984c1.55,1.393,2.579,3.095,3.208,4.733c1.254,3.333,0.816,6.337,0.192,8.158
					c-0.134,0.472-0.322,0.865-0.477,1.208c-0.143,0.349-0.299,0.626-0.435,0.845C356.745,300.206,356.601,300.432,356.586,300.423z
					"/>
			</g>
		</g>
		<g>
			<path style="fill:#FFFFFF;" d="M337.688,290.745c-0.06-0.007-0.056-0.652,0.287-1.624c0.335-0.964,1.076-2.246,2.314-3.249
				c1.238-1.003,2.647-1.461,3.66-1.588c1.023-0.134,1.654-0.003,1.648,0.057c-0.001,0.083-0.625,0.086-1.582,0.305
				c-0.952,0.212-2.244,0.697-3.398,1.63c-1.153,0.934-1.896,2.097-2.301,2.984C337.902,290.151,337.769,290.761,337.688,290.745z"
				/>
		</g>
		<g>
			<path style="fill:#FFFFFF;" d="M338.99,298.576c-0.069,0.119-0.997-0.463-1.442-1.672c-0.457-1.205-0.139-2.252-0.008-2.208
				c0.15,0.021,0.09,0.972,0.496,2.025C338.42,297.783,339.09,298.462,338.99,298.576z"/>
		</g>
	</g>
</g>
<g id="Comb">
	<g>
		<path style="fill:#E0E0E0;" d="M73.464,353.324l-3.009,1.508l-20.427-40.764c-0.416-0.831-0.08-1.842,0.75-2.258l0,0
			c0.831-0.416,1.842-0.08,2.258,0.75L73.464,353.324z"/>
		<g>
			<path style="fill:#E0E0E0;" d="M53.535,314.585c3.972-1.991,7.944-3.981,11.917-5.972c0.591-0.296,0.132-1.215-0.46-0.918
				c-3.972,1.991-7.945,3.981-11.917,5.972C52.484,313.962,52.943,314.881,53.535,314.585L53.535,314.585z"/>
		</g>
		<g>
			<path style="fill:#E0E0E0;" d="M54.826,317.161c3.972-1.991,7.945-3.981,11.917-5.972c0.591-0.296,0.132-1.215-0.46-0.918
				c-3.972,1.991-7.945,3.981-11.917,5.972C53.775,316.539,54.234,317.458,54.826,317.161L54.826,317.161z"/>
		</g>
		<g>
			<path style="fill:#E0E0E0;" d="M56.117,319.738c3.972-1.99,7.945-3.981,11.917-5.972c0.591-0.296,0.132-1.215-0.46-0.918
				c-3.972,1.991-7.945,3.981-11.917,5.972C55.066,319.116,55.525,320.034,56.117,319.738L56.117,319.738z"/>
		</g>
		<g>
			<path style="fill:#E0E0E0;" d="M57.409,322.315c3.972-1.991,7.944-3.981,11.917-5.972c0.591-0.296,0.132-1.215-0.46-0.918
				c-3.972,1.991-7.945,3.981-11.917,5.972C56.357,321.692,56.817,322.611,57.409,322.315L57.409,322.315z"/>
		</g>
		<g>
			<path style="fill:#E0E0E0;" d="M58.7,324.891c3.972-1.991,7.945-3.981,11.917-5.972c0.591-0.296,0.132-1.215-0.46-0.918
				c-3.972,1.991-7.945,3.981-11.917,5.972C57.649,324.269,58.108,325.188,58.7,324.891L58.7,324.891z"/>
		</g>
		<g>
			<path style="fill:#E0E0E0;" d="M59.991,327.468c3.972-1.991,7.945-3.981,11.917-5.972c0.591-0.296,0.132-1.215-0.46-0.918
				c-3.972,1.991-7.945,3.981-11.917,5.972C58.94,326.845,59.399,327.764,59.991,327.468L59.991,327.468z"/>
		</g>
		<g>
			<path style="fill:#E0E0E0;" d="M61.282,330.044c3.972-1.991,7.945-3.981,11.917-5.972c0.591-0.296,0.132-1.215-0.46-0.918
				c-3.972,1.991-7.945,3.981-11.917,5.972C60.231,329.422,60.69,330.341,61.282,330.044L61.282,330.044z"/>
		</g>
		<g>
			<path style="fill:#E0E0E0;" d="M62.573,332.621c3.972-1.991,7.945-3.981,11.917-5.972c0.591-0.296,0.132-1.215-0.46-0.918
				c-3.972,1.991-7.945,3.981-11.917,5.972C61.522,331.999,61.981,332.918,62.573,332.621L62.573,332.621z"/>
		</g>
		<g>
			<path style="fill:#E0E0E0;" d="M63.864,335.198c3.972-1.991,7.945-3.981,11.917-5.972c0.591-0.296,0.132-1.215-0.46-0.918
				c-3.972,1.991-7.945,3.981-11.917,5.972C62.813,334.575,63.272,335.494,63.864,335.198L63.864,335.198z"/>
		</g>
		<g>
			<path style="fill:#E0E0E0;" d="M65.156,337.774c3.972-1.991,7.945-3.981,11.917-5.972c0.591-0.296,0.132-1.215-0.46-0.918
				c-3.972,1.991-7.945,3.981-11.917,5.972C64.104,337.152,64.564,338.071,65.156,337.774L65.156,337.774z"/>
		</g>
		<g>
			<path style="fill:#E0E0E0;" d="M66.398,340.253c3.972-1.991,7.945-3.981,11.917-5.972c0.591-0.296,0.132-1.215-0.46-0.918
				c-3.972,1.991-7.945,3.981-11.917,5.972C65.346,339.63,65.806,340.549,66.398,340.253L66.398,340.253z"/>
		</g>
		<g>
			<path style="fill:#E0E0E0;" d="M67.64,342.731c3.972-1.99,7.945-3.981,11.917-5.972c0.591-0.296,0.132-1.215-0.46-0.918
				c-3.972,1.991-7.945,3.981-11.917,5.972C66.589,342.109,67.048,343.028,67.64,342.731L67.64,342.731z"/>
		</g>
		<g>
			<path style="fill:#E0E0E0;" d="M68.882,345.21c3.972-1.991,7.945-3.981,11.917-5.972c0.591-0.296,0.132-1.215-0.46-0.918
				c-3.972,1.991-7.945,3.981-11.917,5.972C67.831,344.588,68.29,345.507,68.882,345.21L68.882,345.21z"/>
		</g>
		<g>
			<path style="fill:#E0E0E0;" d="M70.124,347.688c3.972-1.99,7.945-3.981,11.917-5.972c0.591-0.296,0.132-1.215-0.46-0.918
				c-3.972,1.991-7.945,3.981-11.917,5.972C69.073,347.066,69.532,347.985,70.124,347.688L70.124,347.688z"/>
		</g>
		<path style="fill:#FF725E;" d="M93.576,396.534L93.576,396.534c-2.777,1.391-6.156,0.268-7.548-2.509l-19.023-37.962l10.056-5.039
			l19.023,37.962C97.476,391.763,96.353,395.142,93.576,396.534z"/>
	</g>
</g>
<g id="Bone">
	<g>
		<path style="fill:#FF725E;" d="M449.864,391.164c2.831-6.115-2.371-13.734-4.266-16.365l1.488-6.684l6.457-27.548
			c2.833-1.579,10.775-6.271,10.806-13.009c0.032-6.86-3.371-7.991-6.194-8.768c-2.823-0.777-8.278,0.593-8.278,0.593
			s-4.404-3.349-7.29-3.842c-2.886-0.494-6.447-0.913-9.329,5.312c-2.831,6.115,2.371,13.733,4.266,16.365l-4.742,20.325
			l-3.111,13.493c-2.833,1.579-10.775,6.271-10.806,13.009c-0.032,6.86,3.371,7.991,6.194,8.768
			c2.823,0.778,8.232-0.386,8.232-0.386s4.358,3.555,7.244,4.049C443.422,396.97,446.982,397.389,449.864,391.164z"/>
		<g>
			<path style="fill:#263238;" d="M436.173,319.416c-0.04-0.024,0.316-0.662,1.245-1.354c0.458-0.351,1.075-0.668,1.795-0.925
				c0.727-0.233,1.56-0.389,2.443-0.396c0.883,0.009,1.716,0.166,2.443,0.401c0.719,0.258,1.336,0.576,1.793,0.928
				c0.928,0.693,1.282,1.332,1.242,1.356c-0.072,0.063-0.522-0.475-1.447-1.051c-0.457-0.295-1.053-0.559-1.734-0.777
				c-0.689-0.195-1.469-0.328-2.297-0.337c-0.828,0.007-1.608,0.139-2.297,0.333c-0.681,0.216-1.277,0.479-1.735,0.773
				C436.696,318.941,436.245,319.479,436.173,319.416z"/>
		</g>
		<g>
			<path style="fill:#263238;" d="M460.823,321.816c-0.039,0.07-0.679-0.26-1.748-0.674c-1.064-0.41-2.592-0.887-4.318-0.894
				c-1.723-0.005-3.238,0.535-4.193,1.125c-0.97,0.585-1.43,1.149-1.497,1.09c-0.046-0.027,0.321-0.694,1.295-1.397
				c0.956-0.705,2.562-1.345,4.397-1.338c1.831,0.008,3.412,0.57,4.462,1.077C460.279,321.317,460.856,321.762,460.823,321.816z"/>
		</g>
	</g>
</g>
<g id="Scissors">
	<g>
		<g>
			<path style="fill:#E0E0E0;" d="M464.642,180.911c-0.34-0.442-55.402,55.878-55.402,55.878l0.021,0.025
				c-3.885-2.601-9.162-1.682-11.927,2.136c-2.828,3.907-1.954,9.366,1.953,12.195c3.907,2.828,9.366,1.954,12.194-1.953
				c2.154-2.976,2.158-6.851,0.312-9.78c1.87-1.992,16.161-16.962,22.149-15.678C433.942,223.734,467.674,184.849,464.642,180.911z
				 M409.625,247.849c-2.086,2.882-6.114,3.526-8.995,1.44c-2.882-2.086-3.526-6.113-1.44-8.995c2.086-2.882,6.113-3.526,8.995-1.44
				C411.066,240.94,411.711,244.967,409.625,247.849z"/>
			<path style="opacity:0.3;" d="M436.072,209.438c0.025-0.025,3.109,2.832,3.109,2.832s24.461-27.771,25.461-31.359
				c-0.046-0.028-0.365,0.257-0.764,0.634l-2.246,2.16l-6.007,5.969L436.072,209.438z"/>
		</g>
		<g>
			<g>
				<path style="fill:#E0E0E0;" d="M428.728,220.475c4.884,3.694,2.891,24.294,2.605,27.011c-3.423,0.516-6.354,3.052-7.199,6.627
					c-1.109,4.694,1.797,9.398,6.49,10.507c4.694,1.109,9.398-1.797,10.507-6.49c1.084-4.588-1.669-9.183-6.176-10.424l0.033-0.001
					c0,0,6.653-78.482,6.096-78.451C436.121,169.531,428.728,220.475,428.728,220.475z M434.113,249.852
					c3.462,0.818,5.606,4.288,4.788,7.75c-0.818,3.462-4.288,5.606-7.75,4.787c-3.462-0.818-5.606-4.288-4.787-7.75
					C427.181,251.178,430.651,249.034,434.113,249.852z"/>
				<g>
					<path style="fill:none;" d="M428.728,220.475c4.884,3.694,2.891,24.294,2.605,27.011c-3.423,0.516-6.354,3.052-7.199,6.627
						c-1.109,4.694,1.797,9.398,6.49,10.507c4.694,1.109,9.398-1.797,10.507-6.49c1.084-4.588-1.669-9.183-6.176-10.424l0.033-0.001
						c0,0,6.653-78.482,6.096-78.451C436.121,169.531,428.728,220.475,428.728,220.475z M434.113,249.852
						c3.462,0.818,5.606,4.288,4.788,7.75c-0.818,3.462-4.288,5.606-7.75,4.787c-3.462-0.818-5.606-4.288-4.787-7.75
						C427.181,251.178,430.651,249.034,434.113,249.852z"/>
					<g>
						<path style="fill:#263238;" d="M434.114,249.852c-0.01,0.055-0.567-0.098-1.576-0.064c-0.99,0.035-2.5,0.35-3.876,1.505
							c-1.367,1.107-2.479,3.199-2.184,5.544c0.134,1.153,0.619,2.336,1.45,3.291c0.812,0.973,1.98,1.687,3.282,2.008
							c1.308,0.296,2.673,0.18,3.834-0.326c1.171-0.482,2.135-1.323,2.77-2.294c1.314-1.966,1.256-4.334,0.528-5.936
							c-0.713-1.649-1.922-2.606-2.792-3.08C434.664,250.018,434.098,249.906,434.114,249.852c0.004-0.017,0.144,0.005,0.41,0.064
							c0.266,0.054,0.653,0.178,1.121,0.403c0.925,0.434,2.235,1.385,3.035,3.11c0.814,1.676,0.93,4.213-0.464,6.349
							c-0.674,1.054-1.708,1.972-2.972,2.501c-1.254,0.554-2.737,0.686-4.154,0.363c-1.411-0.346-2.677-1.128-3.55-2.184
							c-0.893-1.039-1.407-2.322-1.538-3.566c-0.29-2.533,0.949-4.75,2.427-5.885c1.488-1.185,3.085-1.449,4.106-1.423
							c0.519,0.008,0.921,0.07,1.183,0.141C433.982,249.792,434.118,249.835,434.114,249.852z"/>
					</g>
					<g>
						<path style="fill:#263238;" d="M428.728,220.475c0,0,0.009-0.188,0.053-0.542c0.05-0.377,0.121-0.904,0.212-1.584
							c0.21-1.411,0.514-3.456,0.904-6.079c0.831-5.272,2.054-12.9,3.952-22.257c0.981-4.67,2.053-9.796,3.763-15.163
							c0.448-1.335,0.926-2.69,1.615-3.998c0.18-0.324,0.364-0.648,0.6-0.952c0.231-0.301,0.493-0.612,0.911-0.791
							c0.046-0.028,0.111-0.032,0.166-0.047l0.087-0.018l0.043-0.008c0.048,0.004-0.046-0.02,0.119,0.007
							c0.244,0.17,0.129,0.171,0.166,0.192c0.006,0.025,0.01,0.051,0.011,0.061l0.007,0.084l0.005,0.148l-0.007,0.565l-0.046,1.12
							c-0.156,2.989-0.378,6.056-0.603,9.203c-0.92,12.584-2.041,26.409-3.235,40.918c-0.766,9.137-1.509,18.001-2.213,26.392
							l-0.019,0.226l-0.227,0.005l-0.033,0.001l0.061-0.495c2.506,0.686,4.604,2.495,5.691,4.752
							c1.107,2.258,1.155,4.925,0.269,7.166c-0.87,2.259-2.675,4.058-4.802,4.964c-2.127,0.929-4.549,0.944-6.619,0.185
							c-2.09-0.741-3.782-2.294-4.774-4.13c-1.002-1.837-1.318-3.971-0.928-5.904c0.35-1.942,1.361-3.678,2.717-4.92
							c1.355-1.253,3.045-2.013,4.73-2.262l-0.148,0.155c0.864-8.609,0.881-15.586,0.203-20.296
							c-0.33-2.355-0.887-4.127-1.477-5.218C429.283,220.867,428.688,220.493,428.728,220.475c0,0,0.137,0.102,0.376,0.306
							c0.231,0.214,0.539,0.589,0.865,1.125c0.627,1.091,1.219,2.873,1.58,5.237c0.74,4.731,0.777,11.722-0.043,20.361l-0.013,0.134
							l-0.136,0.021c-1.617,0.247-3.235,0.986-4.527,2.192c-1.293,1.197-2.251,2.859-2.578,4.717
							c-0.365,1.848-0.055,3.879,0.906,5.627c0.951,1.746,2.566,3.218,4.553,3.915c1.972,0.715,4.267,0.694,6.283-0.192
							c2.016-0.864,3.721-2.573,4.539-4.712c0.834-2.125,0.784-4.644-0.266-6.777c-1.032-2.132-3.015-3.835-5.381-4.481
							l-1.671-0.456l1.732-0.039l0.033-0.001l-0.246,0.231c0.698-8.391,1.436-17.256,2.197-26.393
							c1.193-14.509,2.329-28.332,3.275-40.911c0.231-3.144,0.461-6.212,0.624-9.191l0.049-1.111l0.008-0.545l-0.004-0.129
							l-0.004-0.054c-0.001-0.013-0.001-0.007-0.001-0.007c-0.013,0.003,0.208-0.059,0.199-0.062
							c0.033,0.394-0.005,0.113-0.004,0.203l-0.024,0.006l-0.049,0.011c-0.032,0.011-0.066,0.004-0.098,0.026
							c-0.55,0.252-0.946,0.941-1.286,1.535c-0.667,1.258-1.149,2.602-1.596,3.922c-1.716,5.323-2.81,10.445-3.812,15.102
							c-1.942,9.337-3.22,16.955-4.112,22.215c-0.432,2.616-0.768,4.655-1.001,6.063c-0.113,0.677-0.2,1.201-0.263,1.576
							C428.773,220.298,428.728,220.475,428.728,220.475z"/>
					</g>
				</g>
			</g>
			<path style="opacity:0.2;" d="M438.159,209.521c0.003-0.035-4.176-0.503-4.176-0.503s5.038-36.663,7.1-39.765
				c0.051,0.016,0.044,0.444,0.02,0.992l-0.167,3.112l-0.593,8.448L438.159,209.521z"/>
		</g>
		<g>
			<path style="fill:#E0E0E0;" d="M435.448,219.101c-0.721,0.996-2.114,1.219-3.11,0.498c-0.996-0.721-1.219-2.113-0.498-3.11
				s2.113-1.219,3.11-0.498C435.946,216.712,436.169,218.105,435.448,219.101z"/>
			<g>
				<path style="fill:#263238;" d="M435.448,219.101c-0.035-0.024,0.068-0.195,0.168-0.519c0.098-0.319,0.172-0.823-0.019-1.377
					c-0.178-0.547-0.675-1.125-1.407-1.318c-0.715-0.207-1.636,0.048-2.139,0.755c-0.515,0.698-0.469,1.653-0.05,2.268
					c0.412,0.635,1.116,0.927,1.691,0.925c0.587,0.008,1.042-0.219,1.315-0.412C435.284,219.227,435.414,219.075,435.448,219.101
					c0.024,0.016-0.049,0.211-0.31,0.477c-0.256,0.259-0.744,0.582-1.436,0.625c-0.676,0.054-1.56-0.25-2.098-1.024
					c-0.548-0.745-0.629-1.958,0.025-2.843c0.636-0.897,1.813-1.199,2.692-0.911c0.903,0.269,1.468,1.014,1.628,1.673
					c0.175,0.67,0.021,1.235-0.145,1.559C435.633,218.988,435.47,219.119,435.448,219.101z"/>
			</g>
		</g>
		<g>
			<path style="fill:#263238;" d="M435.311,217.846c-0.039,0.145-0.787,0.051-1.682,0.157c-0.897,0.094-1.606,0.351-1.675,0.218
				c-0.074-0.117,0.606-0.626,1.618-0.736C434.581,217.369,435.357,217.716,435.311,217.846z"/>
		</g>
		<g>
			<path style="fill:#263238;" d="M434.099,219.551c-0.149-0.01-0.206-0.782-0.417-1.691c-0.202-0.912-0.484-1.633-0.354-1.706
				c0.117-0.074,0.639,0.593,0.862,1.59C434.419,218.74,434.237,219.567,434.099,219.551z"/>
		</g>
	</g>
</g>
</svg>
